SplineFontDB: 3.0
FontName: ArchivoNarrowDevanagari-Bold
FullName: Archivo Narrow Devanagari-Bold
FamilyName: Archivo Narrow Devanagari
Weight: Bold
Copyright: Copyright (c) 2012-2014, Omnibus-Type (www.omnibus-type.com omnibus.type@gmail.com) with Reserved Font Name 'Archivo'
Version: 001.004
ItalicAngle: 0
UnderlinePosition: -50
UnderlineWidth: 50
Ascent: 800
Descent: 200
sfntRevision: 0x00010106
LayerCount: 2
Layer: 0 1 "Back"  1
Layer: 1 1 "Fore"  0
XUID: [1021 191 1600663927 14551964]
FSType: 8
OS2Version: 3
OS2_WeightWidthSlopeOnly: 0
OS2_UseTypoMetrics: 1
CreationTime: 1405803944
ModificationTime: 1405898753
PfmFamily: 81
TTFWeight: 700
TTFWidth: 5
LineGap: 0
VLineGap: 0
Panose: 0 0 8 0 0 0 0 0 0 0
OS2TypoAscent: 827
OS2TypoAOffset: 0
OS2TypoDescent: -404
OS2TypoDOffset: 0
OS2TypoLinegap: 0
OS2WinAscent: 827
OS2WinAOffset: 0
OS2WinDescent: 404
OS2WinDOffset: 0
HheadAscent: 827
HheadAOffset: 0
HheadDescent: -404
HheadDOffset: 0
OS2SubXSize: 650
OS2SubYSize: 600
OS2SubXOff: 0
OS2SubYOff: 75
OS2SupXSize: 650
OS2SupYSize: 600
OS2SupXOff: 0
OS2SupYOff: 350
OS2StrikeYSize: 50
OS2StrikeYPos: 279
OS2Vendor: 'Omni'
OS2CodePages: 20000093.00000000
OS2UnicodeRanges: 00008007.00000000.00000000.00000000
Lookup: 1 0 0 "'aalt' Access All Alternates lookup 0"  {"'aalt' Access All Alternates lookup 0 subtable"  } ['aalt' ('DFLT' <'dflt' > 'dev2' <'dflt' > 'grek' <'dflt' > 'latn' <'CAT ' 'MOL ' 'ROM ' 'dflt' > ) ]
Lookup: 3 0 0 "'aalt' Access All Alternates lookup 1"  {"'aalt' Access All Alternates lookup 1 subtable"  } ['aalt' ('DFLT' <'dflt' > 'dev2' <'dflt' > 'grek' <'dflt' > 'latn' <'CAT ' 'MOL ' 'ROM ' 'dflt' > ) ]
Lookup: 4 0 0 "Ligature Substitution lookup 2"  {"Ligature Substitution lookup 2 subtable"  } []
Lookup: 1 0 0 "'locl' Localized Forms in Latin lookup 3"  {"'locl' Localized Forms in Latin lookup 3 subtable"  } ['locl' ('latn' <'ROM ' > ) ]

StartChar: .notdef
Encoding: 65536 -1 0
Width: 442
Flags: MW
HStem: 0 44<71 371 71 442> 575 44<71 371 71 71>
VStem: 0 44<84 535 84 619> 398 44<84 535 535 535>
LayerCount: 2
Fore
SplineSet
0 619 m 1,0,-1
 442 619 l 1,1,-1
 442 0 l 1,2,-1
 0 0 l 1,3,-1
 0 619 l 1,0,-1
371 575 m 1,4,-1
 71 575 l 1,5,-1
 221 349 l 1,6,-1
 371 575 l 1,4,-1
44 535 m 1,7,-1
 44 84 l 1,8,-1
 194 309 l 1,9,-1
 44 535 l 1,7,-1
398 535 m 1,10,-1
 248 309 l 1,11,-1
 398 84 l 1,12,-1
 398 535 l 1,10,-1
221 270 m 1,13,-1
 71 44 l 1,14,-1
 371 44 l 1,15,-1
 221 270 l 1,13,-1
EndSplineSet
EndChar

StartChar: A
Encoding: 65 65 1
Width: 523
Flags: MW
HStem: 0 21G<0 110 0 0 407 522 407 407> 119 101<177 339 177 370 146 339> 505 101<256 256 256 260>
VStem: 0 522<0 0>
LayerCount: 2
Fore
SplineSet
407 0 m 1,0,-1
 370 119 l 1,1,-1
 146 119 l 1,2,-1
 110 0 l 1,3,-1
 0 0 l 1,4,-1
 195 606 l 1,5,-1
 327 606 l 1,6,-1
 522 0 l 1,7,-1
 407 0 l 1,0,-1
256 505 m 1,8,9
 248 451 248 451 239 423 c 2,10,-1
 177 220 l 1,11,-1
 339 220 l 1,12,-1
 278 423 l 1,13,-1
 260 505 l 1,14,-1
 256 505 l 1,8,9
EndSplineSet
Substitution2: "Single Substitution lookup 20 subtable" ordfeminine
Substitution2: "'aalt' Access All Alternates lookup 0 subtable" ordfeminine
Position2: "'cpsp' Capital Spacing lookup 0 subtable" dx=5 dy=0 dh=10 dv=0
EndChar

StartChar: Aacute
Encoding: 193 193 2
Width: 523
Flags: MW
HStem: 0 21G<0 110 0 0 407 522 407 407> 119 101<177 339 177 370 146 339> 505 101<256 256 256 260> 664 117<277 288 201 383>
VStem: 0 522<0 0>
LayerCount: 2
Fore
SplineSet
288 664 m 1,0,-1
 201 664 l 1,1,-1
 277 781 l 1,2,-1
 383 781 l 1,3,-1
 384 778 l 1,4,-1
 288 664 l 1,0,-1
407 0 m 1,5,-1
 370 119 l 1,6,-1
 146 119 l 1,7,-1
 110 0 l 1,8,-1
 0 0 l 1,9,-1
 195 606 l 1,10,-1
 327 606 l 1,11,-1
 522 0 l 1,12,-1
 407 0 l 1,5,-1
256 505 m 1,13,14
 248 451 248 451 239 423 c 2,15,-1
 177 220 l 1,16,-1
 339 220 l 1,17,-1
 278 423 l 1,18,-1
 260 505 l 1,19,-1
 256 505 l 1,13,14
EndSplineSet
Position2: "'cpsp' Capital Spacing lookup 0 subtable" dx=5 dy=0 dh=10 dv=0
EndChar

StartChar: Abreve
Encoding: 258 258 3
Width: 523
Flags: MW
HStem: 0 21G<0 110 0 0 407 522 407 407> 119 101<177 339 177 370 146 339> 505 101<256 256 256 260> 686 95<144 297.5>
VStem: 0 522<0 0>
LayerCount: 2
Fore
SplineSet
380 781 m 1,0,1
 380 745 380 745 346.5 715.5 c 128,-1,2
 313 686 313 686 261 686 c 128,-1,3
 209 686 209 686 176.5 715.5 c 128,-1,4
 144 745 144 745 144 781 c 1,5,-1
 210 781 l 1,6,7
 212 770 212 770 226.5 760.5 c 128,-1,8
 241 751 241 751 262 751 c 0,9,10
 283 751 283 751 298 760.5 c 128,-1,11
 313 770 313 770 314 781 c 1,12,-1
 380 781 l 1,0,1
407 0 m 1,13,-1
 370 119 l 1,14,-1
 146 119 l 1,15,-1
 110 0 l 1,16,-1
 0 0 l 1,17,-1
 195 606 l 1,18,-1
 327 606 l 1,19,-1
 522 0 l 1,20,-1
 407 0 l 1,13,-1
256 505 m 1,21,22
 248 451 248 451 239 423 c 2,23,-1
 177 220 l 1,24,-1
 339 220 l 1,25,-1
 278 423 l 1,26,-1
 260 505 l 1,27,-1
 256 505 l 1,21,22
EndSplineSet
Position2: "'cpsp' Capital Spacing lookup 0 subtable" dx=5 dy=0 dh=10 dv=0
EndChar

StartChar: Acircumflex
Encoding: 194 194 4
Width: 523
Flags: MW
HStem: 0 21G<0 110 0 0 407 522 407 407> 119 101<177 339 177 370 146 339> 505 101<256 256 256 260> 661 120<219 222 143 306 301 306 219 381 301 301>
VStem: 0 522<0 0>
LayerCount: 2
Fore
SplineSet
301 661 m 1,0,-1
 262 722 l 1,1,-1
 222 661 l 1,2,-1
 143 661 l 1,3,-1
 219 781 l 1,4,-1
 306 781 l 1,5,-1
 381 661 l 1,6,-1
 301 661 l 1,0,-1
407 0 m 1,7,-1
 370 119 l 1,8,-1
 146 119 l 1,9,-1
 110 0 l 1,10,-1
 0 0 l 1,11,-1
 195 606 l 1,12,-1
 327 606 l 1,13,-1
 522 0 l 1,14,-1
 407 0 l 1,7,-1
256 505 m 1,15,16
 248 451 248 451 239 423 c 2,17,-1
 177 220 l 1,18,-1
 339 220 l 1,19,-1
 278 423 l 1,20,-1
 260 505 l 1,21,-1
 256 505 l 1,15,16
EndSplineSet
Position2: "'cpsp' Capital Spacing lookup 0 subtable" dx=5 dy=0 dh=10 dv=0
EndChar

StartChar: Adieresis
Encoding: 196 196 5
Width: 523
Flags: MW
HStem: 0 21G<0 110 0 0 407 522 407 407> 119 101<177 339 177 370 146 339> 505 101<256 256 256 260> 684 97<141 229 141 229 294 384 141 294>
VStem: 141 88<684 781 684 781> 294 90<684 781 684 781>
LayerCount: 2
Fore
SplineSet
141 684 m 1,0,-1
 141 781 l 1,1,-1
 229 781 l 1,2,-1
 229 684 l 1,3,-1
 141 684 l 1,0,-1
294 684 m 1,4,-1
 294 781 l 1,5,-1
 384 781 l 1,6,-1
 384 684 l 1,7,-1
 294 684 l 1,4,-1
407 0 m 1,8,-1
 370 119 l 1,9,-1
 146 119 l 1,10,-1
 110 0 l 1,11,-1
 0 0 l 1,12,-1
 195 606 l 1,13,-1
 327 606 l 1,14,-1
 522 0 l 1,15,-1
 407 0 l 1,8,-1
256 505 m 1,16,17
 248 451 248 451 239 423 c 2,18,-1
 177 220 l 1,19,-1
 339 220 l 1,20,-1
 278 423 l 1,21,-1
 260 505 l 1,22,-1
 256 505 l 1,16,17
EndSplineSet
Position2: "'cpsp' Capital Spacing lookup 0 subtable" dx=5 dy=0 dh=10 dv=0
EndChar

StartChar: Agrave
Encoding: 192 192 6
Width: 523
Flags: MW
HStem: 0 21G<0 110 0 0 407 522 407 407> 119 101<177 339 177 370 146 339> 505 101<256 256 256 260> 664 117<235 235 235 247 141 323>
VStem: 0 522<0 0>
LayerCount: 2
Fore
SplineSet
235 664 m 1,0,-1
 140 778 l 1,1,-1
 141 781 l 1,2,-1
 247 781 l 1,3,-1
 323 664 l 1,4,-1
 235 664 l 1,0,-1
407 0 m 1,5,-1
 370 119 l 1,6,-1
 146 119 l 1,7,-1
 110 0 l 1,8,-1
 0 0 l 1,9,-1
 195 606 l 1,10,-1
 327 606 l 1,11,-1
 522 0 l 1,12,-1
 407 0 l 1,5,-1
256 505 m 1,13,14
 248 451 248 451 239 423 c 2,15,-1
 177 220 l 1,16,-1
 339 220 l 1,17,-1
 278 423 l 1,18,-1
 260 505 l 1,19,-1
 256 505 l 1,13,14
EndSplineSet
Position2: "'cpsp' Capital Spacing lookup 0 subtable" dx=5 dy=0 dh=10 dv=0
EndChar

StartChar: Amacron
Encoding: 256 256 7
Width: 523
Flags: MW
HStem: 0 21G<0 110 0 0 407 522 407 407> 119 101<177 339 177 370 146 339> 505 101<256 256 256 260> 671 77<149 375 149 375>
VStem: 149 226<671 748 671 748>
LayerCount: 2
Fore
SplineSet
149 671 m 1,0,-1
 149 748 l 1,1,-1
 375 748 l 1,2,-1
 375 671 l 1,3,-1
 149 671 l 1,0,-1
407 0 m 1,4,-1
 370 119 l 1,5,-1
 146 119 l 1,6,-1
 110 0 l 1,7,-1
 0 0 l 1,8,-1
 195 606 l 1,9,-1
 327 606 l 1,10,-1
 522 0 l 1,11,-1
 407 0 l 1,4,-1
256 505 m 1,12,13
 248 451 248 451 239 423 c 2,14,-1
 177 220 l 1,15,-1
 339 220 l 1,16,-1
 278 423 l 1,17,-1
 260 505 l 1,18,-1
 256 505 l 1,12,13
EndSplineSet
Position2: "'cpsp' Capital Spacing lookup 0 subtable" dx=5 dy=0 dh=10 dv=0
EndChar

StartChar: Aogonek
Encoding: 260 260 8
Width: 523
Flags: MW
HStem: -168 61<476.5 555> -156 21G<555 555> -156 49<536 555> 0 21G<0 110 0 0 407 449 407 407 522 522> 119 101<177 339 177 370 146 339> 505 101<256 260 256 256>
VStem: 409 87<-73.5 -66>
LayerCount: 2
Fore
SplineSet
555 -107 m 1,0,-1
 555 -156 l 1,1,2
 525 -168 525 -168 493 -168 c 128,-1,3
 461 -168 461 -168 435 -149 c 128,-1,4
 409 -130 409 -130 409 -88 c 0,5,6
 409 -51.3333333333 409 -51.3333333333 429.5 -24 c 0,7,8
 443 -6 443 -6 449 0 c 1,9,-1
 407 0 l 1,10,-1
 370 119 l 1,11,-1
 146 119 l 1,12,-1
 110 0 l 1,13,-1
 0 0 l 1,14,-1
 195 606 l 1,15,-1
 327 606 l 1,16,-1
 522 0 l 1,17,18
 496 -26 496 -26 496 -62 c 0,19,20
 496 -107 496 -107 536 -107 c 2,21,-1
 555 -107 l 1,0,-1
339 220 m 1,22,-1
 278 423 l 1,23,-1
 260 505 l 1,24,-1
 256 505 l 1,25,26
 248 451 248 451 239 423 c 2,27,-1
 177 220 l 1,28,-1
 339 220 l 1,22,-1
EndSplineSet
Position2: "'cpsp' Capital Spacing lookup 0 subtable" dx=5 dy=0 dh=10 dv=0
EndChar

StartChar: Aring
Encoding: 197 197 9
Width: 523
Flags: MW
HStem: 0 21G<0 110 0 0 407 522 407 407> 119 101<177 339 177 370 146 339> 505 101<256 256 256 260> 637 45<250.5 273 250.5 285.5> 763 44<250.5 273>
VStem: 177 44<710.5 733.5 710.5 745.5> 302 45<710.5 733.5>
LayerCount: 2
Fore
SplineSet
262 807 m 128,-1,1
 297 807 297 807 322 782 c 128,-1,2
 347 757 347 757 347 722 c 128,-1,3
 347 687 347 687 322 662 c 128,-1,4
 297 637 297 637 262 637 c 128,-1,5
 227 637 227 637 202 661.5 c 128,-1,6
 177 686 177 686 177 721.5 c 0,7,8
 177 757 177 757 202 782 c 128,-1,0
 227 807 227 807 262 807 c 128,-1,1
262 763 m 128,-1,10
 245 763 245 763 233 751 c 128,-1,11
 221 739 221 739 221 722 c 128,-1,12
 221 705 221 705 233 693.5 c 128,-1,13
 245 682 245 682 262 682 c 128,-1,14
 279 682 279 682 290.5 693.5 c 128,-1,15
 302 705 302 705 302 722 c 128,-1,16
 302 739 302 739 290.5 751 c 128,-1,9
 279 763 279 763 262 763 c 128,-1,10
407 0 m 1,17,-1
 370 119 l 1,18,-1
 146 119 l 1,19,-1
 110 0 l 1,20,-1
 0 0 l 1,21,-1
 195 606 l 1,22,-1
 327 606 l 1,23,-1
 522 0 l 1,24,-1
 407 0 l 1,17,-1
256 505 m 1,25,26
 248 451 248 451 239 423 c 2,27,-1
 177 220 l 1,28,-1
 339 220 l 1,29,-1
 278 423 l 1,30,-1
 260 505 l 1,31,-1
 256 505 l 1,25,26
EndSplineSet
Position2: "'cpsp' Capital Spacing lookup 0 subtable" dx=5 dy=0 dh=10 dv=0
EndChar

StartChar: Aringacute
Encoding: 506 506 10
Width: 523
Flags: MW
HStem: 0 21G<0 110 0 0 407 522 407 407> 119 101<177 339 177 370 146 339> 682 44<250.5 273> 750 96<224 392 286 311>
VStem: 177 44<635 655 632.5 666.5> 302 45<635 655>
LayerCount: 2
Fore
SplineSet
224 750 m 1,0,-1
 286 846 l 1,1,-1
 392 846 l 1,2,-1
 392 843 l 1,3,-1
 311 750 l 1,4,-1
 224 750 l 1,0,-1
192 596 m 1,5,6
 177 616 177 616 177 647 c 0,7,8
 177 678 177 678 202 702 c 128,-1,9
 227 726 227 726 262 726 c 128,-1,10
 297 726 297 726 322 701.5 c 128,-1,11
 347 677 347 677 347 648.5 c 0,12,13
 347 620 347 620 331 595 c 1,14,-1
 522 0 l 1,15,-1
 407 0 l 1,16,-1
 370 119 l 1,17,-1
 146 119 l 1,18,-1
 110 0 l 1,19,-1
 0 0 l 1,20,-1
 192 596 l 1,5,6
262 682 m 128,-1,22
 245 682 245 682 233 671 c 128,-1,23
 221 660 221 660 221 643.5 c 0,24,25
 221 627 221 627 233 615.5 c 128,-1,26
 245 604 245 604 262 604 c 128,-1,27
 279 604 279 604 290.5 615.5 c 128,-1,28
 302 627 302 627 302 643.5 c 0,29,30
 302 660 302 660 290.5 671 c 128,-1,21
 279 682 279 682 262 682 c 128,-1,22
256 505 m 1,31,32
 248 451 248 451 239 423 c 2,33,-1
 177 220 l 1,34,-1
 339 220 l 1,35,-1
 278 423 l 1,36,-1
 260 505 l 1,37,-1
 256 505 l 1,31,32
EndSplineSet
Position2: "'cpsp' Capital Spacing lookup 0 subtable" dx=5 dy=0 dh=10 dv=0
EndChar

StartChar: Atilde
Encoding: 195 195 11
Width: 523
Flags: MW
HStem: 0 21G<0 110 0 0 407 522 407 407> 119 101<177 339 177 370 146 339> 505 101<256 256 256 260> 673 75<301.5 326.5 297.5 354> 705 76<196.5 221.5 169 226>
VStem: 0 522<0 0>
LayerCount: 2
Fore
SplineSet
410 781 m 1,0,1
 410 739 410 739 388 706 c 128,-1,2
 366 673 366 673 323 673 c 0,3,4
 301 673 301 673 263.5 689 c 128,-1,5
 226 705 226 705 206 705 c 0,6,7
 176 705 176 705 171 673 c 1,8,-1
 113 673 l 1,9,10
 113 715 113 715 135 748 c 128,-1,11
 157 781 157 781 200 781 c 0,12,13
 222 781 222 781 260 764.5 c 128,-1,14
 298 748 298 748 317 748 c 0,15,16
 347 748 347 748 352 781 c 1,17,-1
 410 781 l 1,0,1
407 0 m 1,18,-1
 370 119 l 1,19,-1
 146 119 l 1,20,-1
 110 0 l 1,21,-1
 0 0 l 1,22,-1
 195 606 l 1,23,-1
 327 606 l 1,24,-1
 522 0 l 1,25,-1
 407 0 l 1,18,-1
256 505 m 1,26,27
 248 451 248 451 239 423 c 2,28,-1
 177 220 l 1,29,-1
 339 220 l 1,30,-1
 278 423 l 1,31,-1
 260 505 l 1,32,-1
 256 505 l 1,26,27
EndSplineSet
Position2: "'cpsp' Capital Spacing lookup 0 subtable" dx=5 dy=0 dh=10 dv=0
EndChar

StartChar: AE
Encoding: 198 198 12
Width: 725
Flags: MW
HStem: 0 101<486 687 486 687 395 687> 119 101<179 342 179 366 142 342> 260 101<447 643 447 447> 506 100<387 387 387 682>
VStem: -7 694<0 101>
LayerCount: 2
Fore
SplineSet
387 506 m 1,0,-1
 423 361 l 1,1,-1
 643 361 l 1,2,-1
 643 260 l 1,3,-1
 447 260 l 1,4,-1
 486 101 l 1,5,-1
 687 101 l 1,6,-1
 687 0 l 1,7,-1
 395 0 l 1,8,-1
 366 119 l 1,9,-1
 142 119 l 1,10,-1
 98 0 l 1,11,-1
 -7 0 l 1,12,-1
 225 606 l 1,13,-1
 682 606 l 1,14,-1
 682 506 l 1,15,-1
 387 506 l 1,0,-1
277 483 m 1,16,17
 274 477 274 477 270 466 c 128,-1,18
 266 455 266 455 264 450 c 2,19,-1
 179 220 l 1,20,-1
 342 220 l 1,21,-1
 288 450 l 2,22,23
 286 461 286 461 280 483 c 1,24,-1
 277 483 l 1,16,17
EndSplineSet
Position2: "'cpsp' Capital Spacing lookup 0 subtable" dx=5 dy=0 dh=10 dv=0
EndChar

StartChar: AEacute
Encoding: 508 508 13
Width: 725
Flags: MW
HStem: 0 101<486 687 486 687 395 687> 119 101<179 342 179 366 142 342> 260 101<447 643 447 447> 506 100<387 387 387 682> 664 117<377 389 301 484>
VStem: -7 694<0 101>
LayerCount: 2
Fore
SplineSet
389 664 m 1,0,-1
 301 664 l 1,1,-1
 377 781 l 1,2,-1
 484 781 l 1,3,-1
 484 778 l 1,4,-1
 389 664 l 1,0,-1
387 506 m 1,5,-1
 423 361 l 1,6,-1
 643 361 l 1,7,-1
 643 260 l 1,8,-1
 447 260 l 1,9,-1
 486 101 l 1,10,-1
 687 101 l 1,11,-1
 687 0 l 1,12,-1
 395 0 l 1,13,-1
 366 119 l 1,14,-1
 142 119 l 1,15,-1
 98 0 l 1,16,-1
 -7 0 l 1,17,-1
 225 606 l 1,18,-1
 682 606 l 1,19,-1
 682 506 l 1,20,-1
 387 506 l 1,5,-1
277 483 m 1,21,22
 275 479 275 479 261 439 c 2,23,-1
 179 220 l 1,24,-1
 342 220 l 1,25,-1
 290 442 l 2,26,27
 288 449 288 449 285 462.5 c 128,-1,28
 282 476 282 476 280 483 c 1,29,-1
 277 483 l 1,21,22
EndSplineSet
Position2: "'cpsp' Capital Spacing lookup 0 subtable" dx=5 dy=0 dh=10 dv=0
EndChar

StartChar: B
Encoding: 66 66 14
Width: 523
Flags: MW
HStem: 0 101<166 295 295 314> 261 100<166 283 283 290 166 283> 506 100<166 288 166 166>
VStem: 53 113<101 261 361 506> 363 116<421 459> 377 116<152 200.5>
LayerCount: 2
Fore
SplineSet
314 606 m 2,0,1
 386 606 386 606 432.5 564 c 128,-1,2
 479 522 479 522 479 464 c 0,3,4
 479 406 479 406 453 369.5 c 128,-1,5
 427 333 427 333 386 318 c 1,6,-1
 386 315 l 1,7,8
 433 300 433 300 463 259.5 c 128,-1,9
 493 219 493 219 493 163 c 0,10,11
 493 89 493 89 441 44.5 c 128,-1,12
 389 0 389 0 314 0 c 2,13,-1
 53 0 l 1,14,-1
 53 606 l 1,15,-1
 314 606 l 2,0,1
283 361 m 2,16,17
 322 361 322 361 342.5 382 c 128,-1,18
 363 403 363 403 363 436.5 c 0,19,20
 363 470 363 470 343 488 c 128,-1,21
 323 506 323 506 288 506 c 2,22,-1
 166 506 l 1,23,-1
 166 361 l 1,24,-1
 283 361 l 2,16,17
295 101 m 2,25,26
 332 101 332 101 354.5 121 c 128,-1,27
 377 141 377 141 377 177.5 c 0,28,29
 377 214 377 214 354.5 237.5 c 128,-1,30
 332 261 332 261 290 261 c 2,31,-1
 166 261 l 1,32,-1
 166 101 l 1,33,-1
 295 101 l 2,25,26
EndSplineSet
Position2: "'cpsp' Capital Spacing lookup 0 subtable" dx=5 dy=0 dh=10 dv=0
EndChar

StartChar: C
Encoding: 67 67 15
Width: 523
Flags: MW
HStem: -11 98<231.5 307.5 231.5 335.5> 520 97<229 303>
VStem: 30 117<220.5 281 281 325 220.5 410> 384 110<178 225>
LayerCount: 2
Fore
SplineSet
494 225 m 1,0,1
 494 109 494 109 433 49 c 128,-1,2
 372 -11 372 -11 263.5 -11 c 128,-1,3
 155 -11 155 -11 92.5 67 c 128,-1,4
 30 145 30 145 30 303 c 128,-1,5
 30 461 30 461 92.5 539 c 128,-1,6
 155 617 155 617 263.5 617 c 128,-1,7
 372 617 372 617 433 558 c 128,-1,8
 494 499 494 499 494 381 c 1,9,-1
 378 381 l 1,10,11
 378 450 378 450 349.5 485 c 128,-1,12
 321 520 321 520 265 520 c 128,-1,13
 209 520 209 520 178 469 c 128,-1,14
 147 418 147 418 147 325 c 2,15,-1
 147 281 l 2,16,17
 147 188 147 188 179 137.5 c 128,-1,18
 211 87 211 87 268.5 87 c 0,19,20
 384 87 384 87 384 225 c 1,21,-1
 494 225 l 1,0,1
EndSplineSet
Position2: "'cpsp' Capital Spacing lookup 0 subtable" dx=5 dy=0 dh=10 dv=0
EndChar

StartChar: Cacute
Encoding: 262 262 16
Width: 523
Flags: MW
HStem: -11 98<231.5 307.5 231.5 335.5> 520 97<229 303> 664 117<286 298 210 392>
VStem: 30 117<220.5 281 281 325 220.5 410> 384 110<178 225>
LayerCount: 2
Fore
SplineSet
298 664 m 1,0,-1
 210 664 l 1,1,-1
 286 781 l 1,2,-1
 392 781 l 1,3,-1
 393 778 l 1,4,-1
 298 664 l 1,0,-1
494 225 m 1,5,6
 494 109 494 109 433 49 c 128,-1,7
 372 -11 372 -11 263.5 -11 c 128,-1,8
 155 -11 155 -11 92.5 67 c 128,-1,9
 30 145 30 145 30 303 c 128,-1,10
 30 461 30 461 92.5 539 c 128,-1,11
 155 617 155 617 263.5 617 c 128,-1,12
 372 617 372 617 433 558 c 128,-1,13
 494 499 494 499 494 381 c 1,14,-1
 378 381 l 1,15,16
 378 450 378 450 349.5 485 c 128,-1,17
 321 520 321 520 265 520 c 128,-1,18
 209 520 209 520 178 469 c 128,-1,19
 147 418 147 418 147 325 c 2,20,-1
 147 281 l 2,21,22
 147 188 147 188 179 137.5 c 128,-1,23
 211 87 211 87 268.5 87 c 0,24,25
 384 87 384 87 384 225 c 1,26,-1
 494 225 l 1,5,6
EndSplineSet
Position2: "'cpsp' Capital Spacing lookup 0 subtable" dx=5 dy=0 dh=10 dv=0
EndChar

StartChar: Ccaron
Encoding: 268 268 17
Width: 523
Flags: MW
HStem: -11 98<231.5 307.5 231.5 335.5> 520 97<229 303> 661 120<228 232 311 315 228 228>
VStem: 30 117<220.5 281 281 325 220.5 410> 384 110<178 225>
LayerCount: 2
Fore
SplineSet
152 781 m 1,0,-1
 232 781 l 1,1,-1
 271 720 l 1,2,-1
 311 781 l 1,3,-1
 390 781 l 1,4,-1
 315 661 l 1,5,-1
 228 661 l 1,6,-1
 152 781 l 1,0,-1
494 225 m 1,7,8
 494 109 494 109 433 49 c 128,-1,9
 372 -11 372 -11 263.5 -11 c 128,-1,10
 155 -11 155 -11 92.5 67 c 128,-1,11
 30 145 30 145 30 303 c 128,-1,12
 30 461 30 461 92.5 539 c 128,-1,13
 155 617 155 617 263.5 617 c 128,-1,14
 372 617 372 617 433 558 c 128,-1,15
 494 499 494 499 494 381 c 1,16,-1
 378 381 l 1,17,18
 378 450 378 450 349.5 485 c 128,-1,19
 321 520 321 520 265 520 c 128,-1,20
 209 520 209 520 178 469 c 128,-1,21
 147 418 147 418 147 325 c 2,22,-1
 147 281 l 2,23,24
 147 188 147 188 179 137.5 c 128,-1,25
 211 87 211 87 268.5 87 c 0,26,27
 384 87 384 87 384 225 c 1,28,-1
 494 225 l 1,7,8
EndSplineSet
Position2: "'cpsp' Capital Spacing lookup 0 subtable" dx=5 dy=0 dh=10 dv=0
EndChar

StartChar: Ccedilla
Encoding: 199 199 18
Width: 523
Flags: MW
HStem: -161 50<251 252 252 261.5 189 282> -154 21G<189 189> -68 39<225 290> -10 21G<292 292> -8 21G<232 232> 520 97<229 303>
VStem: 30 117<220.5 281 281 325 220.5 410> 228.5 62.5 284 76<-97.5 -82> 384 110<178 225>
LayerCount: 2
Fore
SplineSet
232 -8 m 1,0,1
 30 17 30 17 30 303 c 0,2,3
 30 461 30 461 92.5 539 c 128,-1,4
 155 617 155 617 263.5 617 c 128,-1,5
 372 617 372 617 433 558 c 128,-1,6
 494 499 494 499 494 381 c 1,7,-1
 378 381 l 1,8,9
 378 450 378 450 349.5 485 c 128,-1,10
 321 520 321 520 265 520 c 128,-1,11
 209 520 209 520 178 469 c 128,-1,12
 147 418 147 418 147 325 c 2,13,-1
 147 281 l 2,14,15
 147 188 147 188 179 137.5 c 128,-1,16
 211 87 211 87 268.5 87 c 0,17,18
 384 87 384 87 384 225 c 1,19,-1
 494 225 l 1,20,21
 494 116 494 116 439 56 c 128,-1,22
 384 -4 384 -4 292 -10 c 1,23,-1
 290 -29 l 1,24,25
 360 -35 360 -35 360 -89 c 0,26,27
 360 -129 360 -129 330.5 -145 c 128,-1,28
 301 -161 301 -161 263.5 -161 c 128,-1,29
 226 -161 226 -161 189 -154 c 1,30,-1
 189 -111 l 1,31,-1
 252 -111 l 2,32,33
 284 -111 284 -111 284 -89.5 c 128,-1,34
 284 -68 284 -68 254 -68 c 2,35,-1
 225 -68 l 1,36,-1
 232 -8 l 1,0,1
EndSplineSet
Position2: "'cpsp' Capital Spacing lookup 0 subtable" dx=5 dy=0 dh=10 dv=0
EndChar

StartChar: Ccircumflex
Encoding: 264 264 19
Width: 523
Flags: MW
HStem: -11 98<231.5 307.5 231.5 335.5> 520 97<229 303> 661 120<228 232 152 315 311 311 311 315 228 390>
VStem: 30 117<220.5 281 281 325 220.5 410> 384 110<178 225>
LayerCount: 2
Fore
SplineSet
271 722 m 1,0,-1
 232 661 l 1,1,-1
 152 661 l 1,2,-1
 228 781 l 1,3,-1
 315 781 l 1,4,-1
 390 661 l 1,5,-1
 311 661 l 1,6,-1
 271 722 l 1,0,-1
494 225 m 1,7,8
 494 109 494 109 433 49 c 128,-1,9
 372 -11 372 -11 263.5 -11 c 128,-1,10
 155 -11 155 -11 92.5 67 c 128,-1,11
 30 145 30 145 30 303 c 128,-1,12
 30 461 30 461 92.5 539 c 128,-1,13
 155 617 155 617 263.5 617 c 128,-1,14
 372 617 372 617 433 558 c 128,-1,15
 494 499 494 499 494 381 c 1,16,-1
 378 381 l 1,17,18
 378 450 378 450 349.5 485 c 128,-1,19
 321 520 321 520 265 520 c 128,-1,20
 209 520 209 520 178 469 c 128,-1,21
 147 418 147 418 147 325 c 2,22,-1
 147 281 l 2,23,24
 147 188 147 188 179 137.5 c 128,-1,25
 211 87 211 87 268.5 87 c 0,26,27
 384 87 384 87 384 225 c 1,28,-1
 494 225 l 1,7,8
EndSplineSet
Position2: "'cpsp' Capital Spacing lookup 0 subtable" dx=5 dy=0 dh=10 dv=0
EndChar

StartChar: Cdotaccent
Encoding: 266 266 20
Width: 523
Flags: MW
HStem: -11 98<231.5 307.5 231.5 335.5> 520 97<229 303> 679 102<224 318 224 318>
VStem: 30 117<220.5 281 281 325 220.5 410> 224 94<679 781 679 781> 384 110<178 225>
LayerCount: 2
Fore
SplineSet
224 781 m 1,0,-1
 318 781 l 1,1,-1
 318 679 l 1,2,-1
 224 679 l 1,3,-1
 224 781 l 1,0,-1
494 225 m 1,4,5
 494 109 494 109 433 49 c 128,-1,6
 372 -11 372 -11 263.5 -11 c 128,-1,7
 155 -11 155 -11 92.5 67 c 128,-1,8
 30 145 30 145 30 303 c 128,-1,9
 30 461 30 461 92.5 539 c 128,-1,10
 155 617 155 617 263.5 617 c 128,-1,11
 372 617 372 617 433 558 c 128,-1,12
 494 499 494 499 494 381 c 1,13,-1
 378 381 l 1,14,15
 378 450 378 450 349.5 485 c 128,-1,16
 321 520 321 520 265 520 c 128,-1,17
 209 520 209 520 178 469 c 128,-1,18
 147 418 147 418 147 325 c 2,19,-1
 147 281 l 2,20,21
 147 188 147 188 179 137.5 c 128,-1,22
 211 87 211 87 268.5 87 c 0,23,24
 384 87 384 87 384 225 c 1,25,-1
 494 225 l 1,4,5
EndSplineSet
Position2: "'cpsp' Capital Spacing lookup 0 subtable" dx=5 dy=0 dh=10 dv=0
EndChar

StartChar: D
Encoding: 68 68 21
Width: 523
Flags: MW
HStem: 0 101<166 240 240 250> 506 100<166 240 166 166>
VStem: 53 113<101 506 101 606 101 606> 377 116<290 334 334 391>
LayerCount: 2
Fore
SplineSet
250 606 m 2,0,1
 365 606 365 606 429 531 c 128,-1,2
 493 456 493 456 493 307.5 c 0,3,4
 493 159 493 159 429 79.5 c 128,-1,5
 365 0 365 0 250 0 c 2,6,-1
 53 0 l 1,7,-1
 53 606 l 1,8,-1
 250 606 l 2,0,1
240 101 m 2,9,10
 304 101 304 101 340.5 149 c 128,-1,11
 377 197 377 197 377 290 c 2,12,-1
 377 334 l 2,13,14
 377 418 377 418 340.5 462 c 128,-1,15
 304 506 304 506 240 506 c 2,16,-1
 166 506 l 1,17,-1
 166 101 l 1,18,-1
 240 101 l 2,9,10
EndSplineSet
Position2: "'cpsp' Capital Spacing lookup 0 subtable" dx=5 dy=0 dh=10 dv=0
EndChar

StartChar: Eth
Encoding: 208 208 22
Width: 523
Flags: MW
HStem: 0 101<166 240 240 250> 276 75<9 53 9 53 166 277> 506 100<166 240 166 166>
VStem: 53 113<101 276 101 276 101 276 351 506> 377 116<290 334 334 391>
LayerCount: 2
Fore
SplineSet
53 606 m 1,0,-1
 250 606 l 2,1,2
 365 606 365 606 429 531 c 128,-1,3
 493 456 493 456 493 307.5 c 0,4,5
 493 159 493 159 429 79.5 c 128,-1,6
 365 0 365 0 250 0 c 2,7,-1
 53 0 l 1,8,-1
 53 276 l 1,9,-1
 9 276 l 1,10,-1
 9 351 l 1,11,-1
 53 351 l 1,12,-1
 53 606 l 1,0,-1
277 351 m 1,13,-1
 277 276 l 1,14,-1
 166 276 l 1,15,-1
 166 101 l 1,16,-1
 240 101 l 2,17,18
 304 101 304 101 340.5 149 c 128,-1,19
 377 197 377 197 377 290 c 2,20,-1
 377 334 l 2,21,22
 377 418 377 418 340.5 462 c 128,-1,23
 304 506 304 506 240 506 c 2,24,-1
 166 506 l 1,25,-1
 166 351 l 1,26,-1
 277 351 l 1,13,-1
EndSplineSet
Position2: "'cpsp' Capital Spacing lookup 0 subtable" dx=5 dy=0 dh=10 dv=0
EndChar

StartChar: Dcaron
Encoding: 270 270 23
Width: 523
Flags: MW
HStem: 0 101<166 240 240 250> 506 100<166 240 166 166> 661 120<181 185 263 268 181 181>
VStem: 53 113<101 506 101 606 101 606> 377 116<290 334 334 391>
LayerCount: 2
Fore
SplineSet
105 781 m 1,0,-1
 185 781 l 1,1,-1
 225 720 l 1,2,-1
 263 781 l 1,3,-1
 343 781 l 1,4,-1
 268 661 l 1,5,-1
 181 661 l 1,6,-1
 105 781 l 1,0,-1
250 606 m 2,7,8
 365 606 365 606 429 531 c 128,-1,9
 493 456 493 456 493 307.5 c 0,10,11
 493 159 493 159 429 79.5 c 128,-1,12
 365 0 365 0 250 0 c 2,13,-1
 53 0 l 1,14,-1
 53 606 l 1,15,-1
 250 606 l 2,7,8
240 101 m 2,16,17
 304 101 304 101 340.5 149 c 128,-1,18
 377 197 377 197 377 290 c 2,19,-1
 377 334 l 2,20,21
 377 418 377 418 340.5 462 c 128,-1,22
 304 506 304 506 240 506 c 2,23,-1
 166 506 l 1,24,-1
 166 101 l 1,25,-1
 240 101 l 2,16,17
EndSplineSet
Position2: "'cpsp' Capital Spacing lookup 0 subtable" dx=5 dy=0 dh=10 dv=0
EndChar

StartChar: Dcroat
Encoding: 272 272 24
Width: 523
Flags: MW
HStem: 0 101<166 240 240 250> 276 75<9 53 9 53 166 277> 506 100<166 240 166 166>
VStem: 53 113<101 276 101 276 101 276 351 506> 377 116<290 334 334 391>
LayerCount: 2
Fore
SplineSet
53 606 m 1,0,-1
 250 606 l 2,1,2
 365 606 365 606 429 531 c 128,-1,3
 493 456 493 456 493 307.5 c 0,4,5
 493 159 493 159 429 79.5 c 128,-1,6
 365 0 365 0 250 0 c 2,7,-1
 53 0 l 1,8,-1
 53 276 l 1,9,-1
 9 276 l 1,10,-1
 9 351 l 1,11,-1
 53 351 l 1,12,-1
 53 606 l 1,0,-1
277 351 m 1,13,-1
 277 276 l 1,14,-1
 166 276 l 1,15,-1
 166 101 l 1,16,-1
 240 101 l 2,17,18
 304 101 304 101 340.5 149 c 128,-1,19
 377 197 377 197 377 290 c 2,20,-1
 377 334 l 2,21,22
 377 418 377 418 340.5 462 c 128,-1,23
 304 506 304 506 240 506 c 2,24,-1
 166 506 l 1,25,-1
 166 351 l 1,26,-1
 277 351 l 1,13,-1
EndSplineSet
Position2: "'cpsp' Capital Spacing lookup 0 subtable" dx=5 dy=0 dh=10 dv=0
EndChar

StartChar: E
Encoding: 69 69 25
Width: 484
Flags: MW
HStem: 0 101<166 445 166 445> 260 101<166 400 166 400> 506 100<166 439 166 166>
VStem: 53 113<101 260 361 506>
LayerCount: 2
Fore
SplineSet
439 606 m 1,0,-1
 439 506 l 1,1,-1
 166 506 l 1,2,-1
 166 361 l 1,3,-1
 400 361 l 1,4,-1
 400 260 l 1,5,-1
 166 260 l 1,6,-1
 166 101 l 1,7,-1
 445 101 l 1,8,-1
 445 0 l 1,9,-1
 53 0 l 1,10,-1
 53 606 l 1,11,-1
 439 606 l 1,0,-1
EndSplineSet
Position2: "'cpsp' Capital Spacing lookup 0 subtable" dx=5 dy=0 dh=10 dv=0
EndChar

StartChar: Eacute
Encoding: 201 201 26
Width: 484
Flags: MW
HStem: 0 101<166 445 166 445> 260 101<166 400 166 400> 506 100<166 166 166 439> 664 117<257 269 181 363>
VStem: 53 113<101 260 361 506>
LayerCount: 2
Fore
SplineSet
269 664 m 1,0,-1
 181 664 l 1,1,-1
 257 781 l 1,2,-1
 363 781 l 1,3,-1
 364 778 l 1,4,-1
 269 664 l 1,0,-1
166 506 m 1,5,-1
 166 361 l 1,6,-1
 400 361 l 1,7,-1
 400 260 l 1,8,-1
 166 260 l 1,9,-1
 166 101 l 1,10,-1
 445 101 l 1,11,-1
 445 0 l 1,12,-1
 53 0 l 1,13,-1
 53 606 l 1,14,-1
 439 606 l 1,15,-1
 439 506 l 1,16,-1
 166 506 l 1,5,-1
EndSplineSet
Position2: "'cpsp' Capital Spacing lookup 0 subtable" dx=5 dy=0 dh=10 dv=0
EndChar

StartChar: Ebreve
Encoding: 276 276 27
Width: 484
Flags: MW
HStem: 0 101<166 445 166 445> 260 101<166 400 166 400> 506 100<166 439 166 166> 686 95<124 278>
VStem: 53 113<101 260 361 506>
LayerCount: 2
Fore
SplineSet
360 781 m 1,0,1
 360 745 360 745 327 715.5 c 128,-1,2
 294 686 294 686 242 686 c 0,3,4
 190 686 190 686 157 715.5 c 128,-1,5
 124 745 124 745 124 781 c 1,6,-1
 189 781 l 1,7,8
 192 770 192 770 206.5 760.5 c 128,-1,9
 221 751 221 751 241.5 751 c 0,10,11
 262 751 262 751 277.5 760.5 c 128,-1,12
 293 770 293 770 294 781 c 1,13,-1
 360 781 l 1,0,1
439 606 m 1,14,-1
 439 506 l 1,15,-1
 166 506 l 1,16,-1
 166 361 l 1,17,-1
 400 361 l 1,18,-1
 400 260 l 1,19,-1
 166 260 l 1,20,-1
 166 101 l 1,21,-1
 445 101 l 1,22,-1
 445 0 l 1,23,-1
 53 0 l 1,24,-1
 53 606 l 1,25,-1
 439 606 l 1,14,-1
EndSplineSet
Position2: "'cpsp' Capital Spacing lookup 0 subtable" dx=5 dy=0 dh=10 dv=0
EndChar

StartChar: Ecaron
Encoding: 282 282 28
Width: 484
Flags: MW
HStem: 0 101<166 445 166 445> 260 101<166 400 166 400> 506 100<166 439 166 166> 661 120<199 202 281 286 199 199>
VStem: 53 113<101 260 361 506>
LayerCount: 2
Fore
SplineSet
123 781 m 1,0,-1
 202 781 l 1,1,-1
 242 720 l 1,2,-1
 281 781 l 1,3,-1
 361 781 l 1,4,-1
 286 661 l 1,5,-1
 199 661 l 1,6,-1
 123 781 l 1,0,-1
439 606 m 1,7,-1
 439 506 l 1,8,-1
 166 506 l 1,9,-1
 166 361 l 1,10,-1
 400 361 l 1,11,-1
 400 260 l 1,12,-1
 166 260 l 1,13,-1
 166 101 l 1,14,-1
 445 101 l 1,15,-1
 445 0 l 1,16,-1
 53 0 l 1,17,-1
 53 606 l 1,18,-1
 439 606 l 1,7,-1
EndSplineSet
Position2: "'cpsp' Capital Spacing lookup 0 subtable" dx=5 dy=0 dh=10 dv=0
EndChar

StartChar: Ecircumflex
Encoding: 202 202 29
Width: 484
Flags: MW
HStem: 0 101<166 445 166 445> 260 101<166 400 166 400> 506 100<166 439 166 166> 661 120<199 202 123 286 281 281 281 286 199 361>
VStem: 53 113<101 260 361 506>
LayerCount: 2
Fore
SplineSet
242 722 m 1,0,-1
 202 661 l 1,1,-1
 123 661 l 1,2,-1
 199 781 l 1,3,-1
 286 781 l 1,4,-1
 361 661 l 1,5,-1
 281 661 l 1,6,-1
 242 722 l 1,0,-1
439 606 m 1,7,-1
 439 506 l 1,8,-1
 166 506 l 1,9,-1
 166 361 l 1,10,-1
 400 361 l 1,11,-1
 400 260 l 1,12,-1
 166 260 l 1,13,-1
 166 101 l 1,14,-1
 445 101 l 1,15,-1
 445 0 l 1,16,-1
 53 0 l 1,17,-1
 53 606 l 1,18,-1
 439 606 l 1,7,-1
EndSplineSet
Position2: "'cpsp' Capital Spacing lookup 0 subtable" dx=5 dy=0 dh=10 dv=0
EndChar

StartChar: Edieresis
Encoding: 203 203 30
Width: 484
Flags: MW
HStem: 0 101<166 445 166 445> 260 101<166 400 166 400> 506 100<166 166 166 439> 684 97<120 209 120 209 275 363 120 275>
VStem: 53 113<101 260 361 506> 120 89<684 781 684 781> 275 88<684 781 684 781>
LayerCount: 2
Fore
SplineSet
120 684 m 1,0,-1
 120 781 l 1,1,-1
 209 781 l 1,2,-1
 209 684 l 1,3,-1
 120 684 l 1,0,-1
275 684 m 1,4,-1
 275 781 l 1,5,-1
 363 781 l 1,6,-1
 363 684 l 1,7,-1
 275 684 l 1,4,-1
166 506 m 1,8,-1
 166 361 l 1,9,-1
 400 361 l 1,10,-1
 400 260 l 1,11,-1
 166 260 l 1,12,-1
 166 101 l 1,13,-1
 445 101 l 1,14,-1
 445 0 l 1,15,-1
 53 0 l 1,16,-1
 53 606 l 1,17,-1
 439 606 l 1,18,-1
 439 506 l 1,19,-1
 166 506 l 1,8,-1
EndSplineSet
Position2: "'cpsp' Capital Spacing lookup 0 subtable" dx=5 dy=0 dh=10 dv=0
EndChar

StartChar: Edotaccent
Encoding: 278 278 31
Width: 484
Flags: MW
HStem: 0 101<166 445 166 445> 260 101<166 400 166 400> 506 100<166 439 166 166> 679 102<194 289 194 289>
VStem: 53 113<101 260 361 506> 194 95<679 781 679 781>
LayerCount: 2
Fore
SplineSet
194 781 m 1,0,-1
 289 781 l 1,1,-1
 289 679 l 1,2,-1
 194 679 l 1,3,-1
 194 781 l 1,0,-1
439 606 m 1,4,-1
 439 506 l 1,5,-1
 166 506 l 1,6,-1
 166 361 l 1,7,-1
 400 361 l 1,8,-1
 400 260 l 1,9,-1
 166 260 l 1,10,-1
 166 101 l 1,11,-1
 445 101 l 1,12,-1
 445 0 l 1,13,-1
 53 0 l 1,14,-1
 53 606 l 1,15,-1
 439 606 l 1,4,-1
EndSplineSet
Position2: "'cpsp' Capital Spacing lookup 0 subtable" dx=5 dy=0 dh=10 dv=0
EndChar

StartChar: Egrave
Encoding: 200 200 32
Width: 484
Flags: MW
HStem: 0 101<166 445 166 445> 260 101<166 400 166 400> 506 100<166 166 166 439> 664 117<215 215 215 226 120 302>
VStem: 53 113<101 260 361 506>
LayerCount: 2
Fore
SplineSet
215 664 m 1,0,-1
 119 778 l 1,1,-1
 120 781 l 1,2,-1
 226 781 l 1,3,-1
 302 664 l 1,4,-1
 215 664 l 1,0,-1
166 506 m 1,5,-1
 166 361 l 1,6,-1
 400 361 l 1,7,-1
 400 260 l 1,8,-1
 166 260 l 1,9,-1
 166 101 l 1,10,-1
 445 101 l 1,11,-1
 445 0 l 1,12,-1
 53 0 l 1,13,-1
 53 606 l 1,14,-1
 439 606 l 1,15,-1
 439 506 l 1,16,-1
 166 506 l 1,5,-1
EndSplineSet
Position2: "'cpsp' Capital Spacing lookup 0 subtable" dx=5 dy=0 dh=10 dv=0
EndChar

StartChar: Emacron
Encoding: 274 274 33
Width: 484
Flags: MW
HStem: 0 101<166 445 166 445> 260 101<166 400 166 400> 506 100<166 439 166 166> 671 77<129 354 129 354>
VStem: 53 113<101 260 361 506> 129 225<671 748 671 748>
LayerCount: 2
Fore
SplineSet
129 748 m 1,0,-1
 354 748 l 1,1,-1
 354 671 l 1,2,-1
 129 671 l 1,3,-1
 129 748 l 1,0,-1
439 606 m 1,4,-1
 439 506 l 1,5,-1
 166 506 l 1,6,-1
 166 361 l 1,7,-1
 400 361 l 1,8,-1
 400 260 l 1,9,-1
 166 260 l 1,10,-1
 166 101 l 1,11,-1
 445 101 l 1,12,-1
 445 0 l 1,13,-1
 53 0 l 1,14,-1
 53 606 l 1,15,-1
 439 606 l 1,4,-1
EndSplineSet
Position2: "'cpsp' Capital Spacing lookup 0 subtable" dx=5 dy=0 dh=10 dv=0
EndChar

StartChar: Eogonek
Encoding: 280 280 34
Width: 484
Flags: MW
HStem: -168 61<398.5 477> -156 21G<477 477> -156 49<458 477> 0 101<166 370 166 445> 260 101<166 400 166 400> 506 100<166 439 166 166>
VStem: 53 113<101 260 361 506> 331 146<-118.5 -107 -156 -67.5>
LayerCount: 2
Fore
SplineSet
166 361 m 1,0,-1
 400 361 l 1,1,-1
 400 260 l 1,2,-1
 166 260 l 1,3,-1
 166 101 l 1,4,-1
 445 101 l 1,5,-1
 445 0 l 1,6,7
 418 -29 418 -29 418 -62 c 0,8,9
 418 -107 418 -107 458 -107 c 2,10,-1
 477 -107 l 1,11,-1
 477 -156 l 1,12,13
 447 -168 447 -168 415 -168 c 0,14,15
 383 -168 383 -168 357 -149 c 128,-1,16
 331 -130 331 -130 331 -85.5 c 0,17,18
 331 -41 331 -41 370 0 c 1,19,-1
 53 0 l 1,20,-1
 53 606 l 1,21,-1
 439 606 l 1,22,-1
 439 506 l 1,23,-1
 166 506 l 1,24,-1
 166 361 l 1,0,-1
EndSplineSet
Position2: "'cpsp' Capital Spacing lookup 0 subtable" dx=5 dy=0 dh=10 dv=0
EndChar

StartChar: F
Encoding: 70 70 35
Width: 443
Flags: MW
HStem: 0 21G<53 166 53 53> 252 101<166 374 166 374> 506 100<166 409 166 166>
VStem: 53 113<0 252 353 506>
LayerCount: 2
Fore
SplineSet
409 606 m 1,0,-1
 409 506 l 1,1,-1
 166 506 l 1,2,-1
 166 353 l 1,3,-1
 374 353 l 1,4,-1
 374 252 l 1,5,-1
 166 252 l 1,6,-1
 166 0 l 1,7,-1
 53 0 l 1,8,-1
 53 606 l 1,9,-1
 409 606 l 1,0,-1
EndSplineSet
Position2: "'cpsp' Capital Spacing lookup 0 subtable" dx=5 dy=0 dh=10 dv=0
EndChar

StartChar: G
Encoding: 71 71 36
Width: 564
Flags: MW
HStem: -11 98<237.5 296> 0 21G<446 519 446 446> 232 98<267 403 267 519> 520 97<236.5 316.5>
VStem: 30 117<219 281 281 325 219 410> 403 116<187.5 232 394 435>
LayerCount: 2
Fore
SplineSet
267 330 m 1,0,-1
 519 330 l 1,1,-1
 519 0 l 1,2,-1
 446 0 l 1,3,-1
 426 67 l 1,4,5
 366 -11 366 -11 258.5 -11 c 0,6,7
 151 -11 151 -11 90.5 67 c 128,-1,8
 30 145 30 145 30 303 c 128,-1,9
 30 461 30 461 96 539 c 128,-1,10
 162 617 162 617 287 617 c 0,11,12
 384 617 384 617 451.5 557.5 c 128,-1,13
 519 498 519 498 519 394 c 1,14,-1
 403 394 l 1,15,16
 403 453 403 453 369 486.5 c 128,-1,17
 335 520 335 520 284 520 c 0,18,19
 147 520 147 520 147 325 c 2,20,-1
 147 281 l 2,21,22
 147 87 147 87 285 87 c 0,23,24
 337 87 337 87 370 126.5 c 128,-1,25
 403 166 403 166 403 232 c 1,26,-1
 267 232 l 1,27,-1
 267 330 l 1,0,-1
EndSplineSet
Position2: "'cpsp' Capital Spacing lookup 0 subtable" dx=5 dy=0 dh=10 dv=0
EndChar

StartChar: Gbreve
Encoding: 286 286 37
Width: 564
Flags: MW
HStem: -11 98<237.5 296> 0 21G<446 519 446 446> 232 98<267 403 267 519> 520 97<236.5 316.5> 686 95<164 318.5>
VStem: 30 117<219 281 281 325 219 410> 403 116<187.5 232 394 435>
LayerCount: 2
Fore
SplineSet
400 781 m 1,0,1
 400 745 400 745 367 715.5 c 128,-1,2
 334 686 334 686 282.5 686 c 0,3,4
 231 686 231 686 197.5 715.5 c 128,-1,5
 164 745 164 745 164 781 c 1,6,-1
 230 781 l 1,7,8
 232 770 232 770 247 760.5 c 128,-1,9
 262 751 262 751 282.5 751 c 0,10,11
 303 751 303 751 318 760.5 c 128,-1,12
 333 770 333 770 335 781 c 1,13,-1
 400 781 l 1,0,1
267 330 m 1,14,-1
 519 330 l 1,15,-1
 519 0 l 1,16,-1
 446 0 l 1,17,-1
 426 67 l 1,18,19
 366 -11 366 -11 258.5 -11 c 0,20,21
 151 -11 151 -11 90.5 67 c 128,-1,22
 30 145 30 145 30 303 c 128,-1,23
 30 461 30 461 96 539 c 128,-1,24
 162 617 162 617 287 617 c 0,25,26
 384 617 384 617 451.5 557.5 c 128,-1,27
 519 498 519 498 519 394 c 1,28,-1
 403 394 l 1,29,30
 403 453 403 453 369 486.5 c 128,-1,31
 335 520 335 520 284 520 c 0,32,33
 147 520 147 520 147 325 c 2,34,-1
 147 281 l 2,35,36
 147 87 147 87 285 87 c 0,37,38
 337 87 337 87 370 126.5 c 128,-1,39
 403 166 403 166 403 232 c 1,40,-1
 267 232 l 1,41,-1
 267 330 l 1,14,-1
EndSplineSet
Position2: "'cpsp' Capital Spacing lookup 0 subtable" dx=5 dy=0 dh=10 dv=0
EndChar

StartChar: Gcircumflex
Encoding: 284 284 38
Width: 564
Flags: MW
HStem: -11 98<237.5 296> 0 21G<446 519 446 446> 232 98<267 403 267 519> 520 97<236.5 316.5> 661 120<240 243 164 326 322 322 322 326 240 401>
VStem: 30 117<219 281 281 325 219 410> 403 116<187.5 232 394 435>
LayerCount: 2
Fore
SplineSet
243 661 m 1,0,-1
 164 661 l 1,1,-1
 240 781 l 1,2,-1
 326 781 l 1,3,-1
 401 661 l 1,4,-1
 322 661 l 1,5,-1
 283 722 l 1,6,-1
 243 661 l 1,0,-1
267 330 m 1,7,-1
 519 330 l 1,8,-1
 519 0 l 1,9,-1
 446 0 l 1,10,-1
 426 67 l 1,11,12
 366 -11 366 -11 258.5 -11 c 0,13,14
 151 -11 151 -11 90.5 67 c 128,-1,15
 30 145 30 145 30 303 c 128,-1,16
 30 461 30 461 96 539 c 128,-1,17
 162 617 162 617 287 617 c 0,18,19
 384 617 384 617 451.5 557.5 c 128,-1,20
 519 498 519 498 519 394 c 1,21,-1
 403 394 l 1,22,23
 403 453 403 453 369 486.5 c 128,-1,24
 335 520 335 520 284 520 c 0,25,26
 147 520 147 520 147 325 c 2,27,-1
 147 281 l 2,28,29
 147 87 147 87 285 87 c 0,30,31
 337 87 337 87 370 126.5 c 128,-1,32
 403 166 403 166 403 232 c 1,33,-1
 267 232 l 1,34,-1
 267 330 l 1,7,-1
EndSplineSet
Position2: "'cpsp' Capital Spacing lookup 0 subtable" dx=5 dy=0 dh=10 dv=0
EndChar

StartChar: Gcommaaccent
Encoding: 290 290 39
Width: 564
Flags: MW
HStem: -157 108<214 257 214 323> -11 98<237.5 296> 0 21G<446 519 446 446> 232 98<267 403 267 519> 520 97<236.5 316.5>
VStem: 30 117<219 281 281 325 219 410> 214 109<-148 -49 -148 -49 -148 -49> 403 116<187.5 232 394 435>
LayerCount: 2
Fore
SplineSet
267 330 m 1,0,-1
 519 330 l 1,1,-1
 519 0 l 1,2,-1
 446 0 l 1,3,-1
 426 67 l 1,4,5
 366 -11 366 -11 258.5 -11 c 0,6,7
 151 -11 151 -11 90.5 67 c 128,-1,8
 30 145 30 145 30 303 c 128,-1,9
 30 461 30 461 96 539 c 128,-1,10
 162 617 162 617 287 617 c 0,11,12
 384 617 384 617 451.5 557.5 c 128,-1,13
 519 498 519 498 519 394 c 1,14,-1
 403 394 l 1,15,16
 403 453 403 453 369 486.5 c 128,-1,17
 335 520 335 520 284 520 c 0,18,19
 147 520 147 520 147 325 c 2,20,-1
 147 281 l 2,21,22
 147 87 147 87 285 87 c 0,23,24
 337 87 337 87 370 126.5 c 128,-1,25
 403 166 403 166 403 232 c 1,26,-1
 267 232 l 1,27,-1
 267 330 l 1,0,-1
214 -49 m 1,28,-1
 323 -49 l 1,29,-1
 323 -148 l 1,30,-1
 283 -232 l 1,31,-1
 225 -232 l 1,32,-1
 257 -157 l 1,33,-1
 214 -157 l 1,34,-1
 214 -49 l 1,28,-1
EndSplineSet
Position2: "'cpsp' Capital Spacing lookup 0 subtable" dx=5 dy=0 dh=10 dv=0
EndChar

StartChar: Gdotaccent
Encoding: 288 288 40
Width: 564
Flags: MW
HStem: -11 98<237.5 296> 0 21G<446 519 446 446> 232 98<267 403 267 519> 520 97<236.5 316.5> 679 102<235 330 235 330>
VStem: 30 117<219 281 281 325 219 410> 235 95<679 781> 403 116<187.5 232 394 435>
LayerCount: 2
Fore
SplineSet
330 679 m 1,0,-1
 235 679 l 1,1,-1
 235 781 l 1,2,-1
 330 781 l 1,3,-1
 330 679 l 1,0,-1
267 330 m 1,4,-1
 519 330 l 1,5,-1
 519 0 l 1,6,-1
 446 0 l 1,7,-1
 426 67 l 1,8,9
 366 -11 366 -11 258.5 -11 c 0,10,11
 151 -11 151 -11 90.5 67 c 128,-1,12
 30 145 30 145 30 303 c 128,-1,13
 30 461 30 461 96 539 c 128,-1,14
 162 617 162 617 287 617 c 0,15,16
 384 617 384 617 451.5 557.5 c 128,-1,17
 519 498 519 498 519 394 c 1,18,-1
 403 394 l 1,19,20
 403 453 403 453 369 486.5 c 128,-1,21
 335 520 335 520 284 520 c 0,22,23
 147 520 147 520 147 325 c 2,24,-1
 147 281 l 2,25,26
 147 87 147 87 285 87 c 0,27,28
 337 87 337 87 370 126.5 c 128,-1,29
 403 166 403 166 403 232 c 1,30,-1
 267 232 l 1,31,-1
 267 330 l 1,4,-1
EndSplineSet
Position2: "'cpsp' Capital Spacing lookup 0 subtable" dx=5 dy=0 dh=10 dv=0
EndChar

StartChar: H
Encoding: 72 72 41
Width: 523
Flags: MW
HStem: 0 21G<53 166 53 53 357 470 357 357> 260 101<166 357 166 357> 586 20G<53 166 166 166 357 470 470 470>
VStem: 53 113<0 260 0 361 361 606> 357 113<0 260 260 260 361 606 0 606>
LayerCount: 2
Fore
SplineSet
357 0 m 1,0,-1
 357 260 l 1,1,-1
 166 260 l 1,2,-1
 166 0 l 1,3,-1
 53 0 l 1,4,-1
 53 606 l 1,5,-1
 166 606 l 1,6,-1
 166 361 l 1,7,-1
 357 361 l 1,8,-1
 357 606 l 1,9,-1
 470 606 l 1,10,-1
 470 0 l 1,11,-1
 357 0 l 1,0,-1
EndSplineSet
Position2: "'cpsp' Capital Spacing lookup 0 subtable" dx=5 dy=0 dh=10 dv=0
EndChar

StartChar: Hbar
Encoding: 294 294 42
Width: 523
Flags: MW
HStem: 0 21G<53 166 53 53 357 470 357 357> 254 100<166 357 166 357> 433 77<9 53 9 53 166 357 470 514> 433 173<9 166 9 166 53 357 53 166>
VStem: 53 113<0 254 0 354 354 433 510 606> 357 113<0 254 254 254 354 433 510 606>
LayerCount: 2
Fore
SplineSet
470 0 m 1,0,-1
 357 0 l 1,1,-1
 357 254 l 1,2,-1
 166 254 l 1,3,-1
 166 0 l 1,4,-1
 53 0 l 1,5,-1
 53 433 l 1,6,-1
 9 433 l 1,7,-1
 9 510 l 1,8,-1
 53 510 l 1,9,-1
 53 606 l 1,10,-1
 166 606 l 1,11,-1
 166 510 l 1,12,-1
 357 510 l 1,13,-1
 357 606 l 1,14,-1
 470 606 l 1,15,-1
 470 510 l 1,16,-1
 514 510 l 1,17,-1
 514 433 l 1,18,-1
 470 433 l 1,19,-1
 470 0 l 1,0,-1
166 433 m 1,20,-1
 166 354 l 1,21,-1
 357 354 l 1,22,-1
 357 433 l 1,23,-1
 166 433 l 1,20,-1
EndSplineSet
Position2: "'cpsp' Capital Spacing lookup 0 subtable" dx=5 dy=0 dh=10 dv=0
EndChar

StartChar: Hcircumflex
Encoding: 292 292 43
Width: 523
Flags: MW
HStem: 0 21G<53 166 53 53 357 470 357 357> 260 101<166 357 166 357> 586 20G<53 166 166 166 357 470 470 470> 661 120<219 222 143 306 301 306 219 381 301 301>
VStem: 53 113<0 260 0 361 361 606> 357 113<0 260 260 260 361 606 0 606>
LayerCount: 2
Fore
SplineSet
301 661 m 1,0,-1
 262 722 l 1,1,-1
 222 661 l 1,2,-1
 143 661 l 1,3,-1
 219 781 l 1,4,-1
 306 781 l 1,5,-1
 381 661 l 1,6,-1
 301 661 l 1,0,-1
357 0 m 1,7,-1
 357 260 l 1,8,-1
 166 260 l 1,9,-1
 166 0 l 1,10,-1
 53 0 l 1,11,-1
 53 606 l 1,12,-1
 166 606 l 1,13,-1
 166 361 l 1,14,-1
 357 361 l 1,15,-1
 357 606 l 1,16,-1
 470 606 l 1,17,-1
 470 0 l 1,18,-1
 357 0 l 1,7,-1
EndSplineSet
Position2: "'cpsp' Capital Spacing lookup 0 subtable" dx=5 dy=0 dh=10 dv=0
EndChar

StartChar: I
Encoding: 73 73 44
Width: 202
Flags: MW
HStem: 0 21G<44 157 44 44> 586 20G<44 157 157 157>
VStem: 44 113<0 606 0 606>
LayerCount: 2
Fore
SplineSet
44 606 m 1,0,-1
 157 606 l 1,1,-1
 157 0 l 1,2,-1
 44 0 l 1,3,-1
 44 606 l 1,0,-1
EndSplineSet
Position2: "'cpsp' Capital Spacing lookup 0 subtable" dx=5 dy=0 dh=10 dv=0
EndChar

StartChar: IJ
Encoding: 306 306 45
Width: 605
Flags: MW
HStem: -11 98<361.5 400 361.5 436> 0 191<44 322 44 322> 586 20G<44 157 157 157 438 552 552 552>
VStem: 44 113<0 606 0 606> 210 112<144 153 153 191 131.5 191> 438 114<153 606>
LayerCount: 2
Fore
SplineSet
44 0 m 1,0,-1
 44 606 l 1,1,-1
 157 606 l 1,2,-1
 157 0 l 1,3,-1
 44 0 l 1,0,-1
552 144 m 2,4,5
 552 68 552 68 508 28.5 c 128,-1,6
 464 -11 464 -11 381 -11 c 128,-1,7
 298 -11 298 -11 254 28.5 c 128,-1,8
 210 68 210 68 210 144 c 2,9,-1
 210 191 l 1,10,-1
 322 191 l 1,11,-1
 322 153 l 2,12,13
 322 87 322 87 381 87 c 0,14,15
 438 87 438 87 438 153 c 2,16,-1
 438 606 l 1,17,-1
 552 606 l 1,18,-1
 552 144 l 2,4,5
EndSplineSet
Position2: "'cpsp' Capital Spacing lookup 0 subtable" dx=5 dy=0 dh=10 dv=0
EndChar

StartChar: Iacute
Encoding: 205 205 46
Width: 202
Flags: MW
HStem: 0 21G<44 44 44 157> 586 20G<44 157 157 157> 664 117<116 128 40 222>
VStem: 44 113<0 606 0 606>
LayerCount: 2
Fore
SplineSet
128 664 m 1,0,-1
 40 664 l 1,1,-1
 116 781 l 1,2,-1
 222 781 l 1,3,-1
 223 778 l 1,4,-1
 128 664 l 1,0,-1
44 0 m 1,5,-1
 44 606 l 1,6,-1
 157 606 l 1,7,-1
 157 0 l 1,8,-1
 44 0 l 1,5,-1
EndSplineSet
Position2: "'cpsp' Capital Spacing lookup 0 subtable" dx=5 dy=0 dh=10 dv=0
EndChar

StartChar: Ibreve
Encoding: 300 300 47
Width: 202
Flags: MW
HStem: 0 21G<44 157 44 44> 586 20G<44 157 157 157> 686 95<-18 137.5>
VStem: 44 113<0 606 0 606>
LayerCount: 2
Fore
SplineSet
219 781 m 1,0,1
 219 745 219 745 186 715.5 c 128,-1,2
 153 686 153 686 101 686 c 128,-1,3
 49 686 49 686 15.5 715.5 c 128,-1,4
 -18 745 -18 745 -18 781 c 1,5,-1
 49 781 l 1,6,7
 51 770 51 770 66 760.5 c 128,-1,8
 81 751 81 751 101.5 751 c 0,9,10
 122 751 122 751 137 760.5 c 128,-1,11
 152 770 152 770 154 781 c 1,12,-1
 219 781 l 1,0,1
44 606 m 1,13,-1
 157 606 l 1,14,-1
 157 0 l 1,15,-1
 44 0 l 1,16,-1
 44 606 l 1,13,-1
EndSplineSet
Position2: "'cpsp' Capital Spacing lookup 0 subtable" dx=5 dy=0 dh=10 dv=0
EndChar

StartChar: Icircumflex
Encoding: 206 206 48
Width: 202
Flags: MW
HStem: 0 21G<44 157 44 44> 586 20G<44 157 157 157> 661 120<58 62 -19 145 141 141 141 145 58 220>
VStem: 44 113<0 606 0 606>
LayerCount: 2
Fore
SplineSet
102 722 m 1,0,-1
 62 661 l 1,1,-1
 -19 661 l 1,2,-1
 58 781 l 1,3,-1
 145 781 l 1,4,-1
 220 661 l 1,5,-1
 141 661 l 1,6,-1
 102 722 l 1,0,-1
44 606 m 1,7,-1
 157 606 l 1,8,-1
 157 0 l 1,9,-1
 44 0 l 1,10,-1
 44 606 l 1,7,-1
EndSplineSet
Position2: "'cpsp' Capital Spacing lookup 0 subtable" dx=5 dy=0 dh=10 dv=0
EndChar

StartChar: Idieresis
Encoding: 207 207 49
Width: 202
Flags: MW
HStem: 0 21G<44 44 44 157> 586 20G<44 157 157 157> 684 97<-20 68 -20 68 134 223 -20 134>
VStem: -20 88<684 781 684 781> 44 113<0 606 0 606> 134 89<684 781 684 781>
LayerCount: 2
Fore
SplineSet
-20 684 m 1,0,-1
 -20 781 l 1,1,-1
 68 781 l 1,2,-1
 68 684 l 1,3,-1
 -20 684 l 1,0,-1
134 684 m 1,4,-1
 134 781 l 1,5,-1
 223 781 l 1,6,-1
 223 684 l 1,7,-1
 134 684 l 1,4,-1
44 0 m 1,8,-1
 44 606 l 1,9,-1
 157 606 l 1,10,-1
 157 0 l 1,11,-1
 44 0 l 1,8,-1
EndSplineSet
Position2: "'cpsp' Capital Spacing lookup 0 subtable" dx=5 dy=0 dh=10 dv=0
EndChar

StartChar: Idotaccent
Encoding: 304 304 50
Width: 202
Flags: MW
HStem: 0 21G<44 157 44 44> 586 20G<44 157 157 157> 679 102<54 149 54 149>
VStem: 44 113<0 606 0 606> 54 95<679 781 679 781>
LayerCount: 2
Fore
SplineSet
54 781 m 1,0,-1
 149 781 l 1,1,-1
 149 679 l 1,2,-1
 54 679 l 1,3,-1
 54 781 l 1,0,-1
44 606 m 1,4,-1
 157 606 l 1,5,-1
 157 0 l 1,6,-1
 44 0 l 1,7,-1
 44 606 l 1,4,-1
EndSplineSet
Position2: "'cpsp' Capital Spacing lookup 0 subtable" dx=5 dy=0 dh=10 dv=0
EndChar

StartChar: Igrave
Encoding: 204 204 51
Width: 202
Flags: MW
HStem: 0 21G<44 44 44 157> 586 20G<44 157 157 157> 664 117<74 74 74 86 -20 162>
VStem: 44 113<0 606 0 606>
LayerCount: 2
Fore
SplineSet
74 664 m 1,0,-1
 -21 778 l 1,1,-1
 -20 781 l 1,2,-1
 86 781 l 1,3,-1
 162 664 l 1,4,-1
 74 664 l 1,0,-1
44 0 m 1,5,-1
 44 606 l 1,6,-1
 157 606 l 1,7,-1
 157 0 l 1,8,-1
 44 0 l 1,5,-1
EndSplineSet
Position2: "'cpsp' Capital Spacing lookup 0 subtable" dx=5 dy=0 dh=10 dv=0
EndChar

StartChar: Imacron
Encoding: 298 298 52
Width: 202
Flags: MW
HStem: 0 21G<44 157 44 44> 586 20G<44 157 157 157> 671 77<-12 214 -12 214>
VStem: 44 113<0 606 0 606>
LayerCount: 2
Fore
SplineSet
-12 748 m 1,0,-1
 214 748 l 1,1,-1
 214 671 l 1,2,-1
 -12 671 l 1,3,-1
 -12 748 l 1,0,-1
44 606 m 1,4,-1
 157 606 l 1,5,-1
 157 0 l 1,6,-1
 44 0 l 1,7,-1
 44 606 l 1,4,-1
EndSplineSet
Position2: "'cpsp' Capital Spacing lookup 0 subtable" dx=5 dy=0 dh=10 dv=0
EndChar

StartChar: Iogonek
Encoding: 302 302 53
Width: 202
Flags: MW
HStem: -168 61<112 190> -156 21G<190 190> -156 49<171 190> 0 21G<44 83 44 44 157 157> 586 20G<44 157 157 157>
VStem: 44 113<-118.5 0 0 606>
LayerCount: 2
Fore
SplineSet
157 0 m 1,0,1
 131 -35 131 -35 131 -62 c 0,2,3
 131 -107 131 -107 171 -107 c 2,4,-1
 190 -107 l 1,5,-1
 190 -156 l 1,6,7
 160 -168 160 -168 128.5 -168 c 0,8,9
 97 -168 97 -168 70.5 -149 c 128,-1,10
 44 -130 44 -130 44 -85.5 c 0,11,12
 44 -41 44 -41 83 0 c 1,13,-1
 44 0 l 1,14,-1
 44 606 l 1,15,-1
 157 606 l 1,16,-1
 157 0 l 1,0,1
EndSplineSet
Position2: "'cpsp' Capital Spacing lookup 0 subtable" dx=5 dy=0 dh=10 dv=0
EndChar

StartChar: Itilde
Encoding: 296 296 54
Width: 202
Flags: MW
HStem: 0 21G<44 157 44 44> 586 20G<44 157 157 157> 673 75<141.5 166.5 137 194> 705 76<36.5 61 8 66>
VStem: 44 113<0 606 0 606>
LayerCount: 2
Fore
SplineSet
250 781 m 1,0,1
 250 739 250 739 228 706 c 128,-1,2
 206 673 206 673 163 673 c 0,3,4
 141 673 141 673 103.5 689 c 128,-1,5
 66 705 66 705 46 705 c 0,6,7
 16 705 16 705 11 673 c 1,8,-1
 -48 673 l 1,9,10
 -48 715 -48 715 -26 748 c 128,-1,11
 -4 781 -4 781 39 781 c 0,12,13
 62 781 62 781 100 764.5 c 128,-1,14
 138 748 138 748 157 748 c 0,15,16
 186 748 186 748 191 781 c 1,17,-1
 250 781 l 1,0,1
44 606 m 1,18,-1
 157 606 l 1,19,-1
 157 0 l 1,20,-1
 44 0 l 1,21,-1
 44 606 l 1,18,-1
EndSplineSet
Position2: "'cpsp' Capital Spacing lookup 0 subtable" dx=5 dy=0 dh=10 dv=0
EndChar

StartChar: J
Encoding: 74 74 55
Width: 403
Flags: MW
HStem: -11 98<160 198 160 234> -11 202<8 234> 586 20G<237 350 350 350>
VStem: 8 112<144 153 153 191 131.5 191> 237 113<153 606>
LayerCount: 2
Fore
SplineSet
350 144 m 2,0,1
 350 68 350 68 306 28.5 c 128,-1,2
 262 -11 262 -11 179.5 -11 c 0,3,4
 97 -11 97 -11 52.5 29 c 128,-1,5
 8 69 8 69 8 144 c 2,6,-1
 8 191 l 1,7,-1
 120 191 l 1,8,-1
 120 153 l 2,9,10
 120 87 120 87 178.5 87 c 0,11,12
 237 87 237 87 237 153 c 2,13,-1
 237 606 l 1,14,-1
 350 606 l 1,15,-1
 350 144 l 2,0,1
EndSplineSet
Position2: "'cpsp' Capital Spacing lookup 0 subtable" dx=5 dy=0 dh=10 dv=0
EndChar

StartChar: Jcircumflex
Encoding: 308 308 56
Width: 403
Flags: MW
HStem: -11 98<160 198 160 234> -11 202<8 234> 586 20G<237 350 350 350> 661 120<262 265 186 349 345 349 262 423 345 345>
VStem: 8 112<144 153 153 191 131.5 191> 237 113<153 606>
LayerCount: 2
Fore
SplineSet
345 661 m 1,0,-1
 305 722 l 1,1,-1
 265 661 l 1,2,-1
 186 661 l 1,3,-1
 262 781 l 1,4,-1
 349 781 l 1,5,-1
 423 661 l 1,6,-1
 345 661 l 1,0,-1
350 144 m 2,7,8
 350 68 350 68 306 28.5 c 128,-1,9
 262 -11 262 -11 179.5 -11 c 0,10,11
 97 -11 97 -11 52.5 29 c 128,-1,12
 8 69 8 69 8 144 c 2,13,-1
 8 191 l 1,14,-1
 120 191 l 1,15,-1
 120 153 l 2,16,17
 120 87 120 87 178.5 87 c 0,18,19
 237 87 237 87 237 153 c 2,20,-1
 237 606 l 1,21,-1
 350 606 l 1,22,-1
 350 144 l 2,7,8
EndSplineSet
Position2: "'cpsp' Capital Spacing lookup 0 subtable" dx=5 dy=0 dh=10 dv=0
EndChar

StartChar: K
Encoding: 75 75 57
Width: 523
Flags: MW
HStem: 0 21G<53 167 53 53 393 521 393 393> 586 20G<53 167 167 167 389 515 515 515>
VStem: 53 114<0 155 296 606>
LayerCount: 2
Fore
SplineSet
515 606 m 1,0,-1
 336 360 l 1,1,-1
 521 0 l 1,2,-1
 393 0 l 1,3,-1
 262 271 l 1,4,-1
 167 155 l 1,5,-1
 167 0 l 1,6,-1
 53 0 l 1,7,-1
 53 606 l 1,8,-1
 167 606 l 1,9,-1
 167 296 l 1,10,-1
 389 606 l 1,11,-1
 515 606 l 1,0,-1
EndSplineSet
Position2: "'cpsp' Capital Spacing lookup 0 subtable" dx=5 dy=0 dh=10 dv=0
EndChar

StartChar: Kcommaaccent
Encoding: 310 310 58
Width: 523
Flags: MW
HStem: -157 108<207 250 207 316> 0 21G<53 167 53 53 393 521 393 393> 586 20G<53 167 167 167 389 515 515 515>
VStem: 53 114<0 155 296 606> 207 109<-148 -49 -148 -49 -148 -49>
LayerCount: 2
Fore
SplineSet
515 606 m 1,0,-1
 336 360 l 1,1,-1
 521 0 l 1,2,-1
 393 0 l 1,3,-1
 262 271 l 1,4,-1
 167 155 l 1,5,-1
 167 0 l 1,6,-1
 53 0 l 1,7,-1
 53 606 l 1,8,-1
 167 606 l 1,9,-1
 167 296 l 1,10,-1
 389 606 l 1,11,-1
 515 606 l 1,0,-1
219 -232 m 1,12,-1
 250 -157 l 1,13,-1
 207 -157 l 1,14,-1
 207 -49 l 1,15,-1
 316 -49 l 1,16,-1
 316 -148 l 1,17,-1
 276 -232 l 1,18,-1
 219 -232 l 1,12,-1
EndSplineSet
Position2: "'cpsp' Capital Spacing lookup 0 subtable" dx=5 dy=0 dh=10 dv=0
EndChar

StartChar: L
Encoding: 76 76 59
Width: 443
Flags: MW
HStem: 0 106<166 423 166 423> 586 20G<53 166 166 166>
VStem: 53 113<106 606 106 606 106 606>
LayerCount: 2
Fore
SplineSet
423 106 m 1,0,-1
 423 0 l 1,1,-1
 53 0 l 1,2,-1
 53 606 l 1,3,-1
 166 606 l 1,4,-1
 166 106 l 1,5,-1
 423 106 l 1,0,-1
EndSplineSet
Position2: "'cpsp' Capital Spacing lookup 0 subtable" dx=5 dy=0 dh=10 dv=0
EndChar

StartChar: Lacute
Encoding: 313 313 60
Width: 443
Flags: MW
HStem: 0 106<166 423 166 423> 586 20G<53 166 166 166> 664 117<127 139 51 233>
VStem: 53 113<106 606 106 606 106 606>
LayerCount: 2
Fore
SplineSet
139 664 m 1,0,-1
 51 664 l 1,1,-1
 127 781 l 1,2,-1
 233 781 l 1,3,-1
 234 778 l 1,4,-1
 139 664 l 1,0,-1
423 106 m 1,5,-1
 423 0 l 1,6,-1
 53 0 l 1,7,-1
 53 606 l 1,8,-1
 166 606 l 1,9,-1
 166 106 l 1,10,-1
 423 106 l 1,5,-1
EndSplineSet
Position2: "'cpsp' Capital Spacing lookup 0 subtable" dx=5 dy=0 dh=10 dv=0
EndChar

StartChar: Lcaron
Encoding: 317 317 61
Width: 443
Flags: MW
HStem: 0 106<166 423 166 423> 485 121<301 349>
VStem: 53 113<106 606 106 606 106 606> 301 122<496 606>
LayerCount: 2
Fore
SplineSet
423 106 m 1,0,-1
 423 0 l 1,1,-1
 53 0 l 1,2,-1
 53 606 l 1,3,-1
 166 606 l 1,4,-1
 166 106 l 1,5,-1
 423 106 l 1,0,-1
364 347 m 1,6,-1
 301 347 l 1,7,-1
 349 485 l 1,8,-1
 301 485 l 1,9,-1
 301 606 l 1,10,-1
 423 606 l 1,11,-1
 423 496 l 1,12,-1
 364 347 l 1,6,-1
EndSplineSet
Position2: "'cpsp' Capital Spacing lookup 0 subtable" dx=5 dy=0 dh=10 dv=0
EndChar

StartChar: Lcommaaccent
Encoding: 315 315 62
Width: 443
Flags: MW
HStem: -157 108<167 210 167 276> 0 106<166 423 166 423> 586 20G<53 166 166 166>
VStem: 53 113<106 606 106 606 106 606> 167 109<-148 -49 -148 -49 -148 -49>
LayerCount: 2
Fore
SplineSet
423 106 m 1,0,-1
 423 0 l 1,1,-1
 53 0 l 1,2,-1
 53 606 l 1,3,-1
 166 606 l 1,4,-1
 166 106 l 1,5,-1
 423 106 l 1,0,-1
236 -232 m 1,6,-1
 179 -232 l 1,7,-1
 210 -157 l 1,8,-1
 167 -157 l 1,9,-1
 167 -49 l 1,10,-1
 276 -49 l 1,11,-1
 276 -148 l 1,12,-1
 236 -232 l 1,6,-1
EndSplineSet
Position2: "'cpsp' Capital Spacing lookup 0 subtable" dx=5 dy=0 dh=10 dv=0
EndChar

StartChar: Ldot
Encoding: 319 319 63
Width: 443
Flags: MW
HStem: 0 106<166 423 166 423> 362 101<277 371 277 371> 586 20G<53 166 166 166>
VStem: 53 113<106 606 106 606 106 606> 277 94<362 463 362 463>
LayerCount: 2
Fore
SplineSet
423 106 m 1,0,-1
 423 0 l 1,1,-1
 53 0 l 1,2,-1
 53 606 l 1,3,-1
 166 606 l 1,4,-1
 166 106 l 1,5,-1
 423 106 l 1,0,-1
277 362 m 1,6,-1
 277 463 l 1,7,-1
 371 463 l 1,8,-1
 371 362 l 1,9,-1
 277 362 l 1,6,-1
EndSplineSet
Ligature2: "Ligature Substitution lookup 19 subtable" L periodcentered
Position2: "'cpsp' Capital Spacing lookup 0 subtable" dx=5 dy=0 dh=10 dv=0
EndChar

StartChar: Lslash
Encoding: 321 321 64
Width: 443
Flags: MW
HStem: 0 106<166 423 166 423> 586 20G<53 166 166 166>
VStem: 53 113<106 210 210 210 293 309 106 394 394 606>
LayerCount: 2
Fore
SplineSet
269 486 m 1,0,-1
 269 400 l 1,1,-1
 166 309 l 1,2,-1
 166 106 l 1,3,-1
 423 106 l 1,4,-1
 423 0 l 1,5,-1
 53 0 l 1,6,-1
 53 210 l 1,7,-1
 0 163 l 1,8,-1
 0 247 l 1,9,-1
 53 293 l 1,10,-1
 53 606 l 1,11,-1
 166 606 l 1,12,-1
 166 394 l 1,13,-1
 269 486 l 1,0,-1
EndSplineSet
Position2: "'cpsp' Capital Spacing lookup 0 subtable" dx=5 dy=0 dh=10 dv=0
EndChar

StartChar: M
Encoding: 77 77 65
Width: 604
Flags: MW
HStem: 0 21G<47 143 47 47 249 347 249 249 453 557 453 453> 0 135<305 309 305 347 249 309> 484 122<139 142 139 139 453 457 453 453>
VStem: 47 96<0 386 0 606> 453 104<0 386 386 400 484 484>
LayerCount: 2
Fore
SplineSet
453 0 m 1,0,-1
 453 386 l 1,1,-1
 457 484 l 1,2,-1
 453 484 l 1,3,4
 451 476 451 476 448.5 462 c 0,5,6
 443.205882353 432.352941176 443.205882353 432.352941176 438 415 c 1,7,-1
 347 0 l 1,8,-1
 249 0 l 1,9,-1
 164 389 l 1,10,11
 154 428 154 428 142 484 c 1,12,-1
 139 484 l 1,13,14
 143 410 143 410 143 386 c 2,15,-1
 143 0 l 1,16,-1
 47 0 l 1,17,-1
 47 606 l 1,18,-1
 206 606 l 1,19,-1
 281 272 l 1,20,-1
 305 135 l 1,21,-1
 309 135 l 1,22,23
 321 237 321 237 329 272 c 2,24,-1
 403 606 l 1,25,-1
 557 606 l 1,26,-1
 557 0 l 1,27,-1
 453 0 l 1,0,-1
EndSplineSet
Position2: "'cpsp' Capital Spacing lookup 0 subtable" dx=5 dy=0 dh=10 dv=0
EndChar

StartChar: N
Encoding: 78 78 66
Width: 523
Flags: MW
HStem: 0 21G<53 153 53 53 370 470 370 370> 586 20G<53 153 153 153 370 470 470 470>
VStem: 53 100<0 338 0 606> 370 100<0 606 218 269 269 606 0 606>
LayerCount: 2
Fore
SplineSet
370 0 m 1,0,-1
 182 334 l 1,1,-1
 155 391 l 1,2,-1
 151 388 l 1,3,4
 153 354 153 354 153 338 c 2,5,-1
 153 0 l 1,6,-1
 53 0 l 1,7,-1
 53 606 l 1,8,-1
 153 606 l 1,9,-1
 340 272 l 1,10,-1
 368 216 l 1,11,-1
 370 218 l 1,12,-1
 370 606 l 1,13,-1
 470 606 l 1,14,-1
 470 0 l 1,15,-1
 370 0 l 1,0,-1
EndSplineSet
Position2: "'cpsp' Capital Spacing lookup 0 subtable" dx=5 dy=0 dh=10 dv=0
EndChar

StartChar: Nacute
Encoding: 323 323 67
Width: 523
Flags: MW
HStem: 0 21G<53 153 53 53 370 470 370 370> 586 20G<53 153 153 153 370 470 470 470> 664 117<277 288 201 383>
VStem: 53 100<0 338 0 606> 370 100<0 606 218 269 269 606 0 606>
LayerCount: 2
Fore
SplineSet
288 664 m 1,0,-1
 201 664 l 1,1,-1
 277 781 l 1,2,-1
 383 781 l 1,3,-1
 384 778 l 1,4,-1
 288 664 l 1,0,-1
370 0 m 1,5,-1
 182 334 l 1,6,-1
 155 391 l 1,7,-1
 151 388 l 1,8,9
 153 354 153 354 153 338 c 2,10,-1
 153 0 l 1,11,-1
 53 0 l 1,12,-1
 53 606 l 1,13,-1
 153 606 l 1,14,-1
 340 272 l 1,15,-1
 368 216 l 1,16,-1
 370 218 l 1,17,-1
 370 606 l 1,18,-1
 470 606 l 1,19,-1
 470 0 l 1,20,-1
 370 0 l 1,5,-1
EndSplineSet
Position2: "'cpsp' Capital Spacing lookup 0 subtable" dx=5 dy=0 dh=10 dv=0
EndChar

StartChar: Ncaron
Encoding: 327 327 68
Width: 523
Flags: MW
HStem: 0 21G<53 153 53 53 370 470 370 370> 586 20G<53 153 153 153 370 470 470 470> 661 120<219 219 219 222 301 306>
VStem: 53 100<0 338 0 606> 370 100<0 606 218 269 269 606 0 606>
LayerCount: 2
Fore
SplineSet
219 661 m 1,0,-1
 143 781 l 1,1,-1
 222 781 l 1,2,-1
 262 720 l 1,3,-1
 301 781 l 1,4,-1
 381 781 l 1,5,-1
 306 661 l 1,6,-1
 219 661 l 1,0,-1
370 0 m 1,7,-1
 182 334 l 1,8,-1
 155 391 l 1,9,-1
 151 388 l 1,10,11
 153 354 153 354 153 338 c 2,12,-1
 153 0 l 1,13,-1
 53 0 l 1,14,-1
 53 606 l 1,15,-1
 153 606 l 1,16,-1
 340 272 l 1,17,-1
 368 216 l 1,18,-1
 370 218 l 1,19,-1
 370 606 l 1,20,-1
 470 606 l 1,21,-1
 470 0 l 1,22,-1
 370 0 l 1,7,-1
EndSplineSet
Position2: "'cpsp' Capital Spacing lookup 0 subtable" dx=5 dy=0 dh=10 dv=0
EndChar

StartChar: Ncommaaccent
Encoding: 325 325 69
Width: 523
Flags: MW
HStem: -157 108<207 250 207 316> 0 21G<53 153 53 53 370 470 370 370> 586 20G<53 153 153 153 370 470 470 470>
VStem: 53 100<0 338 0 606> 207 109<-148 -49 -148 -49 -148 -49> 370 100<0 606 218 269 269 606 0 606>
LayerCount: 2
Fore
SplineSet
370 0 m 1,0,-1
 182 334 l 1,1,-1
 155 391 l 1,2,-1
 151 388 l 1,3,4
 153 354 153 354 153 338 c 2,5,-1
 153 0 l 1,6,-1
 53 0 l 1,7,-1
 53 606 l 1,8,-1
 153 606 l 1,9,-1
 340 272 l 1,10,-1
 368 216 l 1,11,-1
 370 218 l 1,12,-1
 370 606 l 1,13,-1
 470 606 l 1,14,-1
 470 0 l 1,15,-1
 370 0 l 1,0,-1
276 -232 m 1,16,-1
 219 -232 l 1,17,-1
 250 -157 l 1,18,-1
 207 -157 l 1,19,-1
 207 -49 l 1,20,-1
 316 -49 l 1,21,-1
 316 -148 l 1,22,-1
 276 -232 l 1,16,-1
EndSplineSet
Position2: "'cpsp' Capital Spacing lookup 0 subtable" dx=5 dy=0 dh=10 dv=0
EndChar

StartChar: Eng
Encoding: 330 330 70
Width: 524
Flags: MW
HStem: -161 89<286 404.5> 0 21G<53 153 53 53 367 367> 586 20G<53 153 153 153 370 470 470 470>
VStem: 53 100<0 338 0 606> 370 100<218 269 269 606>
LayerCount: 2
Fore
SplineSet
470 -36 m 2,0,1
 470 -90 470 -90 445.5 -125.5 c 128,-1,2
 421 -161 421 -161 370 -161 c 128,-1,3
 319 -161 319 -161 286 -150 c 1,4,-1
 286 -72 l 1,5,-1
 325 -72 l 2,6,7
 367 -72 367 -72 367 -29 c 2,8,-1
 367 0 l 1,9,-1
 182 334 l 1,10,-1
 155 391 l 1,11,-1
 151 388 l 1,12,13
 153 354 153 354 153 338 c 2,14,-1
 153 0 l 1,15,-1
 53 0 l 1,16,-1
 53 606 l 1,17,-1
 153 606 l 1,18,-1
 340 272 l 1,19,-1
 368 216 l 1,20,-1
 370 218 l 1,21,-1
 370 606 l 1,22,-1
 470 606 l 1,23,-1
 470 -36 l 2,0,1
EndSplineSet
Position2: "'cpsp' Capital Spacing lookup 0 subtable" dx=5 dy=0 dh=10 dv=0
EndChar

StartChar: Ntilde
Encoding: 209 209 71
Width: 523
Flags: MW
HStem: 0 21G<53 153 53 53 370 470 370 370> 586 20G<53 153 153 153 370 470 470 470> 673 75<301.5 326.5 297.5 354> 705 76<196.5 221.5 169 226>
VStem: 53 100<0 338 0 606> 370 100<0 606 218 269 269 606 0 606>
LayerCount: 2
Fore
SplineSet
410 781 m 1,0,1
 410 739 410 739 388 706 c 128,-1,2
 366 673 366 673 323 673 c 0,3,4
 301 673 301 673 263.5 689 c 128,-1,5
 226 705 226 705 206 705 c 0,6,7
 176 705 176 705 171 673 c 1,8,-1
 113 673 l 1,9,10
 113 715 113 715 135 748 c 128,-1,11
 157 781 157 781 200 781 c 0,12,13
 222 781 222 781 260 764.5 c 128,-1,14
 298 748 298 748 317 748 c 0,15,16
 347 748 347 748 352 781 c 1,17,-1
 410 781 l 1,0,1
370 0 m 1,18,-1
 182 334 l 1,19,-1
 155 391 l 1,20,-1
 151 388 l 1,21,22
 153 354 153 354 153 338 c 2,23,-1
 153 0 l 1,24,-1
 53 0 l 1,25,-1
 53 606 l 1,26,-1
 153 606 l 1,27,-1
 340 272 l 1,28,-1
 368 216 l 1,29,-1
 370 218 l 1,30,-1
 370 606 l 1,31,-1
 470 606 l 1,32,-1
 470 0 l 1,33,-1
 370 0 l 1,18,-1
EndSplineSet
Position2: "'cpsp' Capital Spacing lookup 0 subtable" dx=5 dy=0 dh=10 dv=0
EndChar

StartChar: O
Encoding: 79 79 72
Width: 564
Flags: MW
HStem: -11 98<237 327 237 360> 520 97<237 327>
VStem: 30 117<220.5 281 281 325 220.5 410> 417 117<281 325 325 385.5>
LayerCount: 2
Fore
SplineSet
282 617 m 128,-1,1
 402 617 402 617 468 538.5 c 128,-1,2
 534 460 534 460 534 303 c 128,-1,3
 534 146 534 146 468 67.5 c 128,-1,4
 402 -11 402 -11 282 -11 c 128,-1,5
 162 -11 162 -11 96 67.5 c 128,-1,6
 30 146 30 146 30 303 c 128,-1,7
 30 460 30 460 96 538.5 c 128,-1,0
 162 617 162 617 282 617 c 128,-1,1
417 325 m 2,8,9
 417 417 417 417 382.5 468.5 c 128,-1,10
 348 520 348 520 282 520 c 128,-1,11
 216 520 216 520 181.5 468.5 c 128,-1,12
 147 417 147 417 147 325 c 2,13,-1
 147 281 l 2,14,15
 147 189 147 189 181.5 138 c 128,-1,16
 216 87 216 87 282 87 c 128,-1,17
 348 87 348 87 382.5 138 c 128,-1,18
 417 189 417 189 417 281 c 2,19,-1
 417 325 l 2,8,9
EndSplineSet
Substitution2: "Single Substitution lookup 20 subtable" ordmasculine
Substitution2: "'aalt' Access All Alternates lookup 0 subtable" ordmasculine
Position2: "'cpsp' Capital Spacing lookup 0 subtable" dx=5 dy=0 dh=10 dv=0
EndChar

StartChar: Oacute
Encoding: 211 211 73
Width: 564
Flags: MW
HStem: -11 98<237 327 237 360> 520 97<237 327> 664 117<297 309 221 404>
VStem: 30 117<220.5 281 281 325 220.5 410> 417 117<281 325 325 385.5>
LayerCount: 2
Fore
SplineSet
309 664 m 1,0,-1
 221 664 l 1,1,-1
 297 781 l 1,2,-1
 404 781 l 1,3,-1
 405 778 l 1,4,-1
 309 664 l 1,0,-1
282 617 m 128,-1,6
 402 617 402 617 468 538.5 c 128,-1,7
 534 460 534 460 534 303 c 128,-1,8
 534 146 534 146 468 67.5 c 128,-1,9
 402 -11 402 -11 282 -11 c 128,-1,10
 162 -11 162 -11 96 67.5 c 128,-1,11
 30 146 30 146 30 303 c 128,-1,12
 30 460 30 460 96 538.5 c 128,-1,5
 162 617 162 617 282 617 c 128,-1,6
417 325 m 2,13,14
 417 417 417 417 382.5 468.5 c 128,-1,15
 348 520 348 520 282 520 c 128,-1,16
 216 520 216 520 181.5 468.5 c 128,-1,17
 147 417 147 417 147 325 c 2,18,-1
 147 281 l 2,19,20
 147 189 147 189 181.5 138 c 128,-1,21
 216 87 216 87 282 87 c 128,-1,22
 348 87 348 87 382.5 138 c 128,-1,23
 417 189 417 189 417 281 c 2,24,-1
 417 325 l 2,13,14
EndSplineSet
Position2: "'cpsp' Capital Spacing lookup 0 subtable" dx=5 dy=0 dh=10 dv=0
EndChar

StartChar: Obreve
Encoding: 334 334 74
Width: 564
Flags: MW
HStem: -11 98<237 327 237 360> 520 97<237 327> 686 95<164 318.5>
VStem: 30 117<220.5 281 281 325 220.5 410> 417 117<281 325 325 385.5>
LayerCount: 2
Fore
SplineSet
400 781 m 1,0,1
 400 745 400 745 367 715.5 c 128,-1,2
 334 686 334 686 282.5 686 c 0,3,4
 231 686 231 686 197.5 715.5 c 128,-1,5
 164 745 164 745 164 781 c 1,6,-1
 230 781 l 1,7,8
 232 770 232 770 247 760.5 c 128,-1,9
 262 751 262 751 282.5 751 c 0,10,11
 303 751 303 751 318 760.5 c 128,-1,12
 333 770 333 770 335 781 c 1,13,-1
 400 781 l 1,0,1
282 617 m 128,-1,15
 402 617 402 617 468 538.5 c 128,-1,16
 534 460 534 460 534 303 c 128,-1,17
 534 146 534 146 468 67.5 c 128,-1,18
 402 -11 402 -11 282 -11 c 128,-1,19
 162 -11 162 -11 96 67.5 c 128,-1,20
 30 146 30 146 30 303 c 128,-1,21
 30 460 30 460 96 538.5 c 128,-1,14
 162 617 162 617 282 617 c 128,-1,15
417 325 m 2,22,23
 417 417 417 417 382.5 468.5 c 128,-1,24
 348 520 348 520 282 520 c 128,-1,25
 216 520 216 520 181.5 468.5 c 128,-1,26
 147 417 147 417 147 325 c 2,27,-1
 147 281 l 2,28,29
 147 189 147 189 181.5 138 c 128,-1,30
 216 87 216 87 282 87 c 128,-1,31
 348 87 348 87 382.5 138 c 128,-1,32
 417 189 417 189 417 281 c 2,33,-1
 417 325 l 2,22,23
EndSplineSet
Position2: "'cpsp' Capital Spacing lookup 0 subtable" dx=5 dy=0 dh=10 dv=0
EndChar

StartChar: Ocircumflex
Encoding: 212 212 75
Width: 564
Flags: MW
HStem: -11 98<237 327 237 360> 520 97<237 327> 661 120<240 243 164 326 322 322 322 326 240 401>
VStem: 30 117<220.5 281 281 325 220.5 410> 417 117<281 325 325 385.5>
LayerCount: 2
Fore
SplineSet
283 722 m 1,0,-1
 243 661 l 1,1,-1
 164 661 l 1,2,-1
 240 781 l 1,3,-1
 326 781 l 1,4,-1
 401 661 l 1,5,-1
 322 661 l 1,6,-1
 283 722 l 1,0,-1
282 617 m 128,-1,8
 402 617 402 617 468 538.5 c 128,-1,9
 534 460 534 460 534 303 c 128,-1,10
 534 146 534 146 468 67.5 c 128,-1,11
 402 -11 402 -11 282 -11 c 128,-1,12
 162 -11 162 -11 96 67.5 c 128,-1,13
 30 146 30 146 30 303 c 128,-1,14
 30 460 30 460 96 538.5 c 128,-1,7
 162 617 162 617 282 617 c 128,-1,8
417 325 m 2,15,16
 417 417 417 417 382.5 468.5 c 128,-1,17
 348 520 348 520 282 520 c 128,-1,18
 216 520 216 520 181.5 468.5 c 128,-1,19
 147 417 147 417 147 325 c 2,20,-1
 147 281 l 2,21,22
 147 189 147 189 181.5 138 c 128,-1,23
 216 87 216 87 282 87 c 128,-1,24
 348 87 348 87 382.5 138 c 128,-1,25
 417 189 417 189 417 281 c 2,26,-1
 417 325 l 2,15,16
EndSplineSet
Position2: "'cpsp' Capital Spacing lookup 0 subtable" dx=5 dy=0 dh=10 dv=0
EndChar

StartChar: Odieresis
Encoding: 214 214 76
Width: 564
Flags: MW
HStem: -11 98<237 327 237 360> 520 97<237 327> 684 97<161 249 161 249 316 404 161 316>
VStem: 30 117<220.5 281 281 325 220.5 410> 161 88<684 781 684 781> 316 88<684 781 684 781> 417 117<281 325 325 385.5>
LayerCount: 2
Fore
SplineSet
161 684 m 1,0,-1
 161 781 l 1,1,-1
 249 781 l 1,2,-1
 249 684 l 1,3,-1
 161 684 l 1,0,-1
316 684 m 1,4,-1
 316 781 l 1,5,-1
 404 781 l 1,6,-1
 404 684 l 1,7,-1
 316 684 l 1,4,-1
282 617 m 128,-1,9
 402 617 402 617 468 538.5 c 128,-1,10
 534 460 534 460 534 303 c 128,-1,11
 534 146 534 146 468 67.5 c 128,-1,12
 402 -11 402 -11 282 -11 c 128,-1,13
 162 -11 162 -11 96 67.5 c 128,-1,14
 30 146 30 146 30 303 c 128,-1,15
 30 460 30 460 96 538.5 c 128,-1,8
 162 617 162 617 282 617 c 128,-1,9
417 325 m 2,16,17
 417 417 417 417 382.5 468.5 c 128,-1,18
 348 520 348 520 282 520 c 128,-1,19
 216 520 216 520 181.5 468.5 c 128,-1,20
 147 417 147 417 147 325 c 2,21,-1
 147 281 l 2,22,23
 147 189 147 189 181.5 138 c 128,-1,24
 216 87 216 87 282 87 c 128,-1,25
 348 87 348 87 382.5 138 c 128,-1,26
 417 189 417 189 417 281 c 2,27,-1
 417 325 l 2,16,17
EndSplineSet
Position2: "'cpsp' Capital Spacing lookup 0 subtable" dx=5 dy=0 dh=10 dv=0
EndChar

StartChar: Ograve
Encoding: 210 210 77
Width: 564
Flags: MW
HStem: -11 98<237 327 237 360> 520 97<237 327> 664 117<255 255 255 267 161 343>
VStem: 30 117<220.5 281 281 325 220.5 410> 417 117<281 325 325 385.5>
LayerCount: 2
Fore
SplineSet
255 664 m 1,0,-1
 160 778 l 1,1,-1
 161 781 l 1,2,-1
 267 781 l 1,3,-1
 343 664 l 1,4,-1
 255 664 l 1,0,-1
282 617 m 128,-1,6
 402 617 402 617 468 538.5 c 128,-1,7
 534 460 534 460 534 303 c 128,-1,8
 534 146 534 146 468 67.5 c 128,-1,9
 402 -11 402 -11 282 -11 c 128,-1,10
 162 -11 162 -11 96 67.5 c 128,-1,11
 30 146 30 146 30 303 c 128,-1,12
 30 460 30 460 96 538.5 c 128,-1,5
 162 617 162 617 282 617 c 128,-1,6
417 325 m 2,13,14
 417 417 417 417 382.5 468.5 c 128,-1,15
 348 520 348 520 282 520 c 128,-1,16
 216 520 216 520 181.5 468.5 c 128,-1,17
 147 417 147 417 147 325 c 2,18,-1
 147 281 l 2,19,20
 147 189 147 189 181.5 138 c 128,-1,21
 216 87 216 87 282 87 c 128,-1,22
 348 87 348 87 382.5 138 c 128,-1,23
 417 189 417 189 417 281 c 2,24,-1
 417 325 l 2,13,14
EndSplineSet
Position2: "'cpsp' Capital Spacing lookup 0 subtable" dx=5 dy=0 dh=10 dv=0
EndChar

StartChar: Ohungarumlaut
Encoding: 336 336 78
Width: 564
Flags: MW
HStem: -11 98<237 327 237 360> 520 97<237 327> 664 117<238 253 183 326 307 307 307 326 362 377>
VStem: 30 117<220.5 281 281 325 220.5 410> 417 117<281 325 325 385.5>
LayerCount: 2
Fore
SplineSet
253 664 m 1,0,-1
 183 664 l 1,1,-1
 238 781 l 1,2,-1
 326 781 l 1,3,-1
 327 778 l 1,4,-1
 253 664 l 1,0,-1
377 664 m 1,5,-1
 307 664 l 1,6,-1
 362 781 l 1,7,-1
 450 781 l 1,8,-1
 451 778 l 1,9,-1
 377 664 l 1,5,-1
282 617 m 128,-1,11
 402 617 402 617 468 538.5 c 128,-1,12
 534 460 534 460 534 303 c 128,-1,13
 534 146 534 146 468 67.5 c 128,-1,14
 402 -11 402 -11 282 -11 c 128,-1,15
 162 -11 162 -11 96 67.5 c 128,-1,16
 30 146 30 146 30 303 c 128,-1,17
 30 460 30 460 96 538.5 c 128,-1,10
 162 617 162 617 282 617 c 128,-1,11
417 325 m 2,18,19
 417 417 417 417 382.5 468.5 c 128,-1,20
 348 520 348 520 282 520 c 128,-1,21
 216 520 216 520 181.5 468.5 c 128,-1,22
 147 417 147 417 147 325 c 2,23,-1
 147 281 l 2,24,25
 147 189 147 189 181.5 138 c 128,-1,26
 216 87 216 87 282 87 c 128,-1,27
 348 87 348 87 382.5 138 c 128,-1,28
 417 189 417 189 417 281 c 2,29,-1
 417 325 l 2,18,19
EndSplineSet
Position2: "'cpsp' Capital Spacing lookup 0 subtable" dx=5 dy=0 dh=10 dv=0
EndChar

StartChar: Omacron
Encoding: 332 332 79
Width: 564
Flags: MW
HStem: -11 98<237 327 237 360> 520 97<237 327> 671 77<170 395 170 395>
VStem: 30 117<220.5 281 281 325 220.5 410> 170 225<671 748 671 748> 417 117<281 325 325 385.5>
LayerCount: 2
Fore
SplineSet
170 748 m 1,0,-1
 395 748 l 1,1,-1
 395 671 l 1,2,-1
 170 671 l 1,3,-1
 170 748 l 1,0,-1
282 617 m 128,-1,5
 402 617 402 617 468 538.5 c 128,-1,6
 534 460 534 460 534 303 c 128,-1,7
 534 146 534 146 468 67.5 c 128,-1,8
 402 -11 402 -11 282 -11 c 128,-1,9
 162 -11 162 -11 96 67.5 c 128,-1,10
 30 146 30 146 30 303 c 128,-1,11
 30 460 30 460 96 538.5 c 128,-1,4
 162 617 162 617 282 617 c 128,-1,5
417 325 m 2,12,13
 417 417 417 417 382.5 468.5 c 128,-1,14
 348 520 348 520 282 520 c 128,-1,15
 216 520 216 520 181.5 468.5 c 128,-1,16
 147 417 147 417 147 325 c 2,17,-1
 147 281 l 2,18,19
 147 189 147 189 181.5 138 c 128,-1,20
 216 87 216 87 282 87 c 128,-1,21
 348 87 348 87 382.5 138 c 128,-1,22
 417 189 417 189 417 281 c 2,23,-1
 417 325 l 2,12,13
EndSplineSet
Position2: "'cpsp' Capital Spacing lookup 0 subtable" dx=5 dy=0 dh=10 dv=0
EndChar

StartChar: Oslash
Encoding: 216 216 80
Width: 564
Flags: MW
HStem: -11 98<265.5 327 265.5 360> 520 97<237 298.5> 539 100<467 467>
VStem: 30 117<260 281 281 325 260 410> 417 117<281 325 325 346>
LayerCount: 2
Fore
SplineSet
467 539 m 1,0,1
 534 460 534 460 534 303 c 128,-1,2
 534 146 534 146 468 67.5 c 128,-1,3
 402 -11 402 -11 282 -11 c 0,4,5
 203 -11 203 -11 145 24 c 1,6,-1
 110 -33 l 1,7,-1
 35 -33 l 1,8,-1
 97 66 l 1,9,10
 30 147 30 147 30 303.5 c 0,11,12
 30 460 30 460 96 538.5 c 128,-1,13
 162 617 162 617 282 617 c 0,14,15
 364 617 364 617 419 582 c 1,16,-1
 455 639 l 1,17,-1
 530 639 l 1,18,-1
 467 539 l 1,0,1
362 492 m 1,19,20
 331 520 331 520 282 520 c 0,21,22
 216 520 216 520 181.5 468.5 c 128,-1,23
 147 417 147 417 147 325 c 2,24,-1
 147 281 l 2,25,26
 147 216 147 216 163 171 c 1,27,-1
 362 492 l 1,19,20
202 114 m 1,28,29
 232 87 232 87 282 87 c 0,30,31
 348 87 348 87 382.5 138 c 128,-1,32
 417 189 417 189 417 281 c 2,33,-1
 417 325 l 2,34,35
 417 392 417 392 400 433 c 1,36,-1
 202 114 l 1,28,29
EndSplineSet
Position2: "'cpsp' Capital Spacing lookup 0 subtable" dx=5 dy=0 dh=10 dv=0
EndChar

StartChar: Oslashacute
Encoding: 510 510 81
Width: 564
Flags: MW
HStem: -11 98<265.5 327 265.5 360> 520 97<237 298.5> 539 100<467 467> 664 117<297 309 221 404>
VStem: 30 117<260 281 281 325 260 410> 417 117<281 325 325 346>
LayerCount: 2
Fore
SplineSet
309 664 m 1,0,-1
 221 664 l 1,1,-1
 297 781 l 1,2,-1
 404 781 l 1,3,-1
 405 778 l 1,4,-1
 309 664 l 1,0,-1
467 539 m 1,5,6
 534 460 534 460 534 303 c 128,-1,7
 534 146 534 146 468 67.5 c 128,-1,8
 402 -11 402 -11 282 -11 c 0,9,10
 203 -11 203 -11 145 24 c 1,11,-1
 110 -33 l 1,12,-1
 35 -33 l 1,13,-1
 97 66 l 1,14,15
 30 147 30 147 30 303.5 c 0,16,17
 30 460 30 460 96 538.5 c 128,-1,18
 162 617 162 617 282 617 c 0,19,20
 364 617 364 617 419 582 c 1,21,-1
 455 639 l 1,22,-1
 530 639 l 1,23,-1
 467 539 l 1,5,6
362 492 m 1,24,25
 331 520 331 520 282 520 c 0,26,27
 216 520 216 520 181.5 468.5 c 128,-1,28
 147 417 147 417 147 325 c 2,29,-1
 147 281 l 2,30,31
 147 216 147 216 163 171 c 1,32,-1
 362 492 l 1,24,25
202 114 m 1,33,34
 232 87 232 87 282 87 c 0,35,36
 348 87 348 87 382.5 138 c 128,-1,37
 417 189 417 189 417 281 c 2,38,-1
 417 325 l 2,39,40
 417 392 417 392 400 433 c 1,41,-1
 202 114 l 1,33,34
EndSplineSet
Position2: "'cpsp' Capital Spacing lookup 0 subtable" dx=5 dy=0 dh=10 dv=0
EndChar

StartChar: Otilde
Encoding: 213 213 82
Width: 564
Flags: MW
HStem: -11 98<237 327 237 360> 520 97<237 327> 673 75<322.5 348 318.5 375> 705 76<217.5 242.5 190 247>
VStem: 30 117<220.5 281 281 325 220.5 410> 372 59<756.5 781> 417 117<281 325 325 385.5>
LayerCount: 2
Fore
SplineSet
431 781 m 1,0,1
 431 739 431 739 409 706 c 128,-1,2
 387 673 387 673 344 673 c 0,3,4
 322 673 322 673 284.5 689 c 128,-1,5
 247 705 247 705 227 705 c 0,6,7
 197 705 197 705 193 673 c 1,8,-1
 133 673 l 1,9,10
 133 714 133 714 155.5 747.5 c 128,-1,11
 178 781 178 781 221 781 c 0,12,13
 243 781 243 781 281 764.5 c 128,-1,14
 319 748 319 748 339 748 c 0,15,16
 368 748 368 748 372 781 c 1,17,-1
 431 781 l 1,0,1
282 617 m 128,-1,19
 402 617 402 617 468 538.5 c 128,-1,20
 534 460 534 460 534 303 c 128,-1,21
 534 146 534 146 468 67.5 c 128,-1,22
 402 -11 402 -11 282 -11 c 128,-1,23
 162 -11 162 -11 96 67.5 c 128,-1,24
 30 146 30 146 30 303 c 128,-1,25
 30 460 30 460 96 538.5 c 128,-1,18
 162 617 162 617 282 617 c 128,-1,19
417 325 m 2,26,27
 417 417 417 417 382.5 468.5 c 128,-1,28
 348 520 348 520 282 520 c 128,-1,29
 216 520 216 520 181.5 468.5 c 128,-1,30
 147 417 147 417 147 325 c 2,31,-1
 147 281 l 2,32,33
 147 189 147 189 181.5 138 c 128,-1,34
 216 87 216 87 282 87 c 128,-1,35
 348 87 348 87 382.5 138 c 128,-1,36
 417 189 417 189 417 281 c 2,37,-1
 417 325 l 2,26,27
EndSplineSet
Position2: "'cpsp' Capital Spacing lookup 0 subtable" dx=5 dy=0 dh=10 dv=0
EndChar

StartChar: OE
Encoding: 338 338 83
Width: 725
Flags: MW
HStem: -11 98<215 255> 0 101<474 700 474 700> 260 101<474 656 474 656> 506 100<474 694 474 474> 520 97<215 255 165.5 287.5>
VStem: 27 116<211.5 281 281 325 211.5 410> 360 114<101 325 361 394.5>
LayerCount: 2
Fore
SplineSet
361 54 m 1,0,1
 311 -11 311 -11 221.5 -11 c 0,2,3
 132 -11 132 -11 79.5 67.5 c 128,-1,4
 27 146 27 146 27 303 c 128,-1,5
 27 460 27 460 79.5 538.5 c 128,-1,6
 132 617 132 617 221.5 617 c 0,7,8
 311 617 311 617 361 552 c 1,9,-1
 361 606 l 1,10,-1
 694 606 l 1,11,-1
 694 506 l 1,12,-1
 474 506 l 1,13,-1
 474 361 l 1,14,-1
 656 361 l 1,15,-1
 656 260 l 1,16,-1
 474 260 l 1,17,-1
 474 101 l 1,18,-1
 700 101 l 1,19,-1
 700 0 l 1,20,-1
 361 0 l 1,21,-1
 361 54 l 1,0,1
360 325 m 2,22,23
 360 428 360 428 333.5 474 c 128,-1,24
 307 520 307 520 251.5 520 c 0,25,26
 196 520 196 520 169.5 474 c 128,-1,27
 143 428 143 428 143 325 c 2,28,-1
 143 281 l 2,29,30
 143 179 143 179 169.5 133 c 128,-1,31
 196 87 196 87 251.5 87 c 0,32,33
 307 87 307 87 333.5 132.5 c 128,-1,34
 360 178 360 178 360 281 c 2,35,-1
 360 325 l 2,22,23
EndSplineSet
Position2: "'cpsp' Capital Spacing lookup 0 subtable" dx=5 dy=0 dh=10 dv=0
EndChar

StartChar: P
Encoding: 80 80 84
Width: 484
Flags: MW
HStem: 0 21G<53 53 53 166> 235 100<166 258 258 270 166 258> 506 100<166 258 166 166>
VStem: 53 113<0 235 0 335 335 506> 343 117<396.5 449>
LayerCount: 2
Fore
SplineSet
53 0 m 1,0,-1
 53 606 l 1,1,-1
 270 606 l 2,2,3
 361 606 361 606 410.5 556 c 128,-1,4
 460 506 460 506 460 422.5 c 0,5,6
 460 339 460 339 408 287 c 128,-1,7
 356 235 356 235 270 235 c 2,8,-1
 166 235 l 1,9,-1
 166 0 l 1,10,-1
 53 0 l 1,0,-1
258 335 m 2,11,12
 299 335 299 335 321 358.5 c 128,-1,13
 343 382 343 382 343 422 c 0,14,15
 343 462 343 462 320.5 484 c 128,-1,16
 298 506 298 506 258 506 c 2,17,-1
 166 506 l 1,18,-1
 166 335 l 1,19,-1
 258 335 l 2,11,12
EndSplineSet
Position2: "'cpsp' Capital Spacing lookup 0 subtable" dx=5 dy=0 dh=10 dv=0
EndChar

StartChar: Thorn
Encoding: 222 222 85
Width: 484
Flags: MW
HStem: 0 21G<53 166 53 53> 127 100<166 258 258 270 166 258> 398 101<166 258 166 270> 586 20G<53 166 166 166>
VStem: 53 113<0 127 227 398 499 606> 343 117<288.5 341>
LayerCount: 2
Fore
SplineSet
270 499 m 2,0,1
 361 499 361 499 410.5 448.5 c 128,-1,2
 460 398 460 398 460 314.5 c 0,3,4
 460 231 460 231 408 179 c 128,-1,5
 356 127 356 127 270 127 c 2,6,-1
 166 127 l 1,7,-1
 166 0 l 1,8,-1
 53 0 l 1,9,-1
 53 606 l 1,10,-1
 166 606 l 1,11,-1
 166 499 l 1,12,-1
 270 499 l 2,0,1
166 227 m 1,13,-1
 258 227 l 2,14,15
 299 227 299 227 321 250.5 c 128,-1,16
 343 274 343 274 343 314 c 0,17,18
 343 354 343 354 320.5 376 c 128,-1,19
 298 398 298 398 258 398 c 2,20,-1
 166 398 l 1,21,-1
 166 227 l 1,13,-1
EndSplineSet
Position2: "'cpsp' Capital Spacing lookup 0 subtable" dx=5 dy=0 dh=10 dv=0
EndChar

StartChar: Q
Encoding: 81 81 86
Width: 564
Flags: MW
HStem: -11 98<237 282 282 293> 520 97<237 327>
VStem: 30 117<220.5 281 281 325 220.5 410> 417 117<281 325 325 385.5>
LayerCount: 2
Fore
SplineSet
282 -11 m 2,0,1
 162 -11 162 -11 96 67.5 c 128,-1,2
 30 146 30 146 30 303 c 128,-1,3
 30 460 30 460 96 538.5 c 128,-1,4
 162 617 162 617 282 617 c 128,-1,5
 402 617 402 617 468 538.5 c 128,-1,6
 534 460 534 460 534 303 c 0,7,8
 534 82 534 82 402 15 c 1,9,-1
 519 -110 l 1,10,-1
 380 -110 l 1,11,-1
 293 -11 l 1,12,-1
 282 -11 l 2,0,1
147 281 m 2,13,14
 147 189 147 189 181.5 138 c 128,-1,15
 216 87 216 87 282 87 c 128,-1,16
 348 87 348 87 382.5 138 c 128,-1,17
 417 189 417 189 417 281 c 2,18,-1
 417 325 l 2,19,20
 417 417 417 417 382.5 468.5 c 128,-1,21
 348 520 348 520 282 520 c 128,-1,22
 216 520 216 520 181.5 468.5 c 128,-1,23
 147 417 147 417 147 325 c 2,24,-1
 147 281 l 2,13,14
EndSplineSet
Position2: "'cpsp' Capital Spacing lookup 0 subtable" dx=5 dy=0 dh=10 dv=0
EndChar

StartChar: R
Encoding: 82 82 87
Width: 523
Flags: MW
HStem: 0 21G<53 166 53 53 385 507 385 385> 253 100<166 284 166 291> 506 100<166 295 166 166>
VStem: 53 113<0 253 353 506> 370 122<408 455>
LayerCount: 2
Fore
SplineSet
307 606 m 2,0,1
 396 606 396 606 444 558.5 c 128,-1,2
 492 511 492 511 492 433 c 0,3,4
 492 379 492 379 465 338 c 128,-1,5
 438 297 438 297 391 278 c 1,6,-1
 507 0 l 1,7,-1
 385 0 l 1,8,-1
 284 253 l 1,9,-1
 166 253 l 1,10,-1
 166 0 l 1,11,-1
 53 0 l 1,12,-1
 53 606 l 1,13,-1
 307 606 l 2,0,1
166 353 m 1,14,-1
 291 353 l 2,15,16
 370 353 370 353 370 433 c 0,17,18
 370 506 370 506 295 506 c 2,19,-1
 166 506 l 1,20,-1
 166 353 l 1,14,-1
EndSplineSet
Position2: "'cpsp' Capital Spacing lookup 0 subtable" dx=5 dy=0 dh=10 dv=0
EndChar

StartChar: Racute
Encoding: 340 340 88
Width: 523
Flags: MW
HStem: 0 21G<53 166 53 53 385 507 385 385> 253 100<166 284 166 291> 506 100<166 295 166 166> 664 117<277 288 201 383>
VStem: 53 113<0 253 353 506> 370 122<408 455>
LayerCount: 2
Fore
SplineSet
288 664 m 1,0,-1
 201 664 l 1,1,-1
 277 781 l 1,2,-1
 383 781 l 1,3,-1
 384 778 l 1,4,-1
 288 664 l 1,0,-1
307 606 m 2,5,6
 396 606 396 606 444 558.5 c 128,-1,7
 492 511 492 511 492 433 c 0,8,9
 492 379 492 379 465 338 c 128,-1,10
 438 297 438 297 391 278 c 1,11,-1
 507 0 l 1,12,-1
 385 0 l 1,13,-1
 284 253 l 1,14,-1
 166 253 l 1,15,-1
 166 0 l 1,16,-1
 53 0 l 1,17,-1
 53 606 l 1,18,-1
 307 606 l 2,5,6
166 353 m 1,19,-1
 291 353 l 2,20,21
 370 353 370 353 370 433 c 0,22,23
 370 506 370 506 295 506 c 2,24,-1
 166 506 l 1,25,-1
 166 353 l 1,19,-1
EndSplineSet
Position2: "'cpsp' Capital Spacing lookup 0 subtable" dx=5 dy=0 dh=10 dv=0
EndChar

StartChar: Rcaron
Encoding: 344 344 89
Width: 523
Flags: MW
HStem: 0 21G<53 166 53 53 385 507 385 385> 253 100<166 284 166 291> 506 100<166 295 166 166> 661 120<219 219 219 222 301 306>
VStem: 53 113<0 253 353 506> 370 122<408 455>
LayerCount: 2
Fore
SplineSet
219 661 m 1,0,-1
 143 781 l 1,1,-1
 222 781 l 1,2,-1
 262 720 l 1,3,-1
 301 781 l 1,4,-1
 381 781 l 1,5,-1
 306 661 l 1,6,-1
 219 661 l 1,0,-1
307 606 m 2,7,8
 396 606 396 606 444 558.5 c 128,-1,9
 492 511 492 511 492 433 c 0,10,11
 492 379 492 379 465 338 c 128,-1,12
 438 297 438 297 391 278 c 1,13,-1
 507 0 l 1,14,-1
 385 0 l 1,15,-1
 284 253 l 1,16,-1
 166 253 l 1,17,-1
 166 0 l 1,18,-1
 53 0 l 1,19,-1
 53 606 l 1,20,-1
 307 606 l 2,7,8
166 353 m 1,21,-1
 291 353 l 2,22,23
 370 353 370 353 370 433 c 0,24,25
 370 506 370 506 295 506 c 2,26,-1
 166 506 l 1,27,-1
 166 353 l 1,21,-1
EndSplineSet
Position2: "'cpsp' Capital Spacing lookup 0 subtable" dx=5 dy=0 dh=10 dv=0
EndChar

StartChar: Rcommaaccent
Encoding: 342 342 90
Width: 523
Flags: MW
HStem: -157 108<207 250 207 316> 0 21G<53 166 53 53 385 507 385 385> 253 100<166 284 166 291> 506 100<166 295 166 166>
VStem: 53 113<0 253 353 506> 207 109<-148 -49 -148 -49 -148 -49> 370 122<408 455>
LayerCount: 2
Fore
SplineSet
307 606 m 2,0,1
 396 606 396 606 444 558.5 c 128,-1,2
 492 511 492 511 492 433 c 0,3,4
 492 379 492 379 465 338 c 128,-1,5
 438 297 438 297 391 278 c 1,6,-1
 507 0 l 1,7,-1
 385 0 l 1,8,-1
 284 253 l 1,9,-1
 166 253 l 1,10,-1
 166 0 l 1,11,-1
 53 0 l 1,12,-1
 53 606 l 1,13,-1
 307 606 l 2,0,1
166 353 m 1,14,-1
 291 353 l 2,15,16
 370 353 370 353 370 433 c 0,17,18
 370 506 370 506 295 506 c 2,19,-1
 166 506 l 1,20,-1
 166 353 l 1,14,-1
276 -232 m 1,21,-1
 219 -232 l 1,22,-1
 250 -157 l 1,23,-1
 207 -157 l 1,24,-1
 207 -49 l 1,25,-1
 316 -49 l 1,26,-1
 316 -148 l 1,27,-1
 276 -232 l 1,21,-1
EndSplineSet
Position2: "'cpsp' Capital Spacing lookup 0 subtable" dx=5 dy=0 dh=10 dv=0
EndChar

StartChar: S
Encoding: 83 83 91
Width: 484
Flags: MW
HStem: -11 98<210 275 210 299> 520 97<213 266>
VStem: 27 117<178 183 154.5 197 154.5 197> 39 117<393.5 473.5 393.5 504.5> 323 115<428 436 436 438 428 461.5> 333 117<140.5 230>
LayerCount: 2
Fore
SplineSet
145 197 m 1,0,-1
 144 183 l 1,1,2
 144 139 144 139 169.5 113 c 128,-1,3
 195 87 195 87 241.5 87 c 0,4,5
 288 87 288 87 310.5 107.5 c 128,-1,6
 333 128 333 128 333 162.5 c 0,7,8
 333 197 333 197 302.5 220.5 c 128,-1,9
 272 244 272 244 229 257 c 128,-1,10
 186 270 186 270 143 286.5 c 128,-1,11
 100 303 100 303 69.5 343 c 128,-1,12
 39 383 39 383 39 447 c 0,13,14
 39 529 39 529 97 573 c 128,-1,15
 155 617 155 617 241.5 617 c 0,16,17
 328 617 328 617 383 572 c 128,-1,18
 438 527 438 527 438 438 c 2,19,-1
 438 428 l 1,20,-1
 323 428 l 1,21,-1
 323 436 l 2,22,23
 323 475 323 475 301 497.5 c 128,-1,24
 279 520 279 520 240 520 c 128,-1,25
 201 520 201 520 178.5 502 c 128,-1,26
 156 484 156 484 156 455.5 c 0,27,28
 156 427 156 427 178 407.5 c 128,-1,29
 200 388 200 388 232.5 379 c 128,-1,30
 265 370 265 370 303 356 c 128,-1,31
 341 342 341 342 373.5 325 c 128,-1,32
 406 308 406 308 428 271 c 128,-1,33
 450 234 450 234 450 182 c 0,34,35
 450 82 450 82 393 35.5 c 128,-1,36
 336 -11 336 -11 242 -11 c 0,37,38
 148 -11 148 -11 87.5 38.5 c 128,-1,39
 27 88 27 88 27 178 c 2,40,-1
 27 197 l 1,41,-1
 145 197 l 1,0,-1
EndSplineSet
Position2: "'cpsp' Capital Spacing lookup 0 subtable" dx=5 dy=0 dh=10 dv=0
EndChar

StartChar: Sacute
Encoding: 346 346 92
Width: 484
Flags: MW
HStem: -11 98<210 275 210 299> 520 97<213 266> 664 117<257 269 181 363>
VStem: 27 117<178 183 154.5 197 154.5 197> 39 117<393.5 473.5 393.5 504.5> 323 115<428 436 436 438 428 461.5> 333 117<140.5 230>
LayerCount: 2
Fore
SplineSet
269 664 m 1,0,-1
 181 664 l 1,1,-1
 257 781 l 1,2,-1
 363 781 l 1,3,-1
 364 778 l 1,4,-1
 269 664 l 1,0,-1
145 197 m 1,5,-1
 144 183 l 1,6,7
 144 139 144 139 169.5 113 c 128,-1,8
 195 87 195 87 241.5 87 c 0,9,10
 288 87 288 87 310.5 107.5 c 128,-1,11
 333 128 333 128 333 162.5 c 0,12,13
 333 197 333 197 302.5 220.5 c 128,-1,14
 272 244 272 244 229 257 c 128,-1,15
 186 270 186 270 143 286.5 c 128,-1,16
 100 303 100 303 69.5 343 c 128,-1,17
 39 383 39 383 39 447 c 0,18,19
 39 529 39 529 97 573 c 128,-1,20
 155 617 155 617 241.5 617 c 0,21,22
 328 617 328 617 383 572 c 128,-1,23
 438 527 438 527 438 438 c 2,24,-1
 438 428 l 1,25,-1
 323 428 l 1,26,-1
 323 436 l 2,27,28
 323 475 323 475 301 497.5 c 128,-1,29
 279 520 279 520 240 520 c 128,-1,30
 201 520 201 520 178.5 502 c 128,-1,31
 156 484 156 484 156 455.5 c 0,32,33
 156 427 156 427 178 407.5 c 128,-1,34
 200 388 200 388 232.5 379 c 128,-1,35
 265 370 265 370 303 356 c 128,-1,36
 341 342 341 342 373.5 325 c 128,-1,37
 406 308 406 308 428 271 c 128,-1,38
 450 234 450 234 450 182 c 0,39,40
 450 82 450 82 393 35.5 c 128,-1,41
 336 -11 336 -11 242 -11 c 0,42,43
 148 -11 148 -11 87.5 38.5 c 128,-1,44
 27 88 27 88 27 178 c 2,45,-1
 27 197 l 1,46,-1
 145 197 l 1,5,-1
EndSplineSet
Position2: "'cpsp' Capital Spacing lookup 0 subtable" dx=5 dy=0 dh=10 dv=0
EndChar

StartChar: Scaron
Encoding: 352 352 93
Width: 484
Flags: MW
HStem: -11 98<210 275 210 299> 520 97<213 266> 661 120<199 202 281 286 199 199>
VStem: 27 117<178 183 154.5 197 154.5 197> 39 117<393.5 473.5 393.5 504.5> 323 115<428 436 436 438 428 461.5> 333 117<140.5 230>
LayerCount: 2
Fore
SplineSet
123 781 m 1,0,-1
 202 781 l 1,1,-1
 242 720 l 1,2,-1
 281 781 l 1,3,-1
 361 781 l 1,4,-1
 286 661 l 1,5,-1
 199 661 l 1,6,-1
 123 781 l 1,0,-1
145 197 m 1,7,-1
 144 183 l 1,8,9
 144 139 144 139 169.5 113 c 128,-1,10
 195 87 195 87 241.5 87 c 0,11,12
 288 87 288 87 310.5 107.5 c 128,-1,13
 333 128 333 128 333 162.5 c 0,14,15
 333 197 333 197 302.5 220.5 c 128,-1,16
 272 244 272 244 229 257 c 128,-1,17
 186 270 186 270 143 286.5 c 128,-1,18
 100 303 100 303 69.5 343 c 128,-1,19
 39 383 39 383 39 447 c 0,20,21
 39 529 39 529 97 573 c 128,-1,22
 155 617 155 617 241.5 617 c 0,23,24
 328 617 328 617 383 572 c 128,-1,25
 438 527 438 527 438 438 c 2,26,-1
 438 428 l 1,27,-1
 323 428 l 1,28,-1
 323 436 l 2,29,30
 323 475 323 475 301 497.5 c 128,-1,31
 279 520 279 520 240 520 c 128,-1,32
 201 520 201 520 178.5 502 c 128,-1,33
 156 484 156 484 156 455.5 c 0,34,35
 156 427 156 427 178 407.5 c 128,-1,36
 200 388 200 388 232.5 379 c 128,-1,37
 265 370 265 370 303 356 c 128,-1,38
 341 342 341 342 373.5 325 c 128,-1,39
 406 308 406 308 428 271 c 128,-1,40
 450 234 450 234 450 182 c 0,41,42
 450 82 450 82 393 35.5 c 128,-1,43
 336 -11 336 -11 242 -11 c 0,44,45
 148 -11 148 -11 87.5 38.5 c 128,-1,46
 27 88 27 88 27 178 c 2,47,-1
 27 197 l 1,48,-1
 145 197 l 1,7,-1
EndSplineSet
Position2: "'cpsp' Capital Spacing lookup 0 subtable" dx=5 dy=0 dh=10 dv=0
EndChar

StartChar: Scedilla
Encoding: 350 350 94
Width: 484
Flags: MW
HStem: -161 50<218.5 219 219 229 156 250> -154 21G<156 156> -68 39<192 257> -10 21G<259 259> -8 21G<199 199> 520 97<213 266>
VStem: 27 117<178 183 154.5 197 154.5 197> 39 117<393.5 473.5> 195.5 62.5 251 76<-97.5 -82> 323 115<428 436 436 438 428 461.5> 333 117<140.5 230>
LayerCount: 2
Fore
SplineSet
145 197 m 1,0,-1
 144 183 l 1,1,2
 144 139 144 139 169.5 113 c 128,-1,3
 195 87 195 87 241.5 87 c 0,4,5
 288 87 288 87 310.5 107.5 c 128,-1,6
 333 128 333 128 333 162.5 c 0,7,8
 333 197 333 197 302.5 220.5 c 128,-1,9
 272 244 272 244 229 257 c 128,-1,10
 186 270 186 270 143 286.5 c 128,-1,11
 100 303 100 303 69.5 343 c 128,-1,12
 39 383 39 383 39 447 c 0,13,14
 39 529 39 529 97 573 c 128,-1,15
 155 617 155 617 241.5 617 c 0,16,17
 328 617 328 617 383 572 c 128,-1,18
 438 527 438 527 438 438 c 2,19,-1
 438 428 l 1,20,-1
 323 428 l 1,21,-1
 323 436 l 2,22,23
 323 475 323 475 301 497.5 c 128,-1,24
 279 520 279 520 240 520 c 128,-1,25
 201 520 201 520 178.5 502 c 128,-1,26
 156 484 156 484 156 455.5 c 0,27,28
 156 427 156 427 178 407.5 c 128,-1,29
 200 388 200 388 232.5 379 c 128,-1,30
 265 370 265 370 303 356 c 128,-1,31
 341 342 341 342 373.5 325 c 128,-1,32
 406 308 406 308 428 271 c 128,-1,33
 450 234 450 234 450 182 c 0,34,35
 450 2 450 2 259 -10 c 1,36,-1
 257 -29 l 1,37,38
 327 -35 327 -35 327 -89 c 0,39,40
 327 -129 327 -129 297.5 -145 c 128,-1,41
 268 -161 268 -161 231 -161 c 128,-1,42
 194 -161 194 -161 156 -154 c 1,43,-1
 156 -111 l 1,44,-1
 219 -111 l 2,45,46
 251 -111 251 -111 251 -89.5 c 0,47,48
 251 -68 251 -68 221 -68 c 2,49,-1
 192 -68 l 1,50,-1
 199 -8 l 1,51,52
 123 2 123 2 75 50 c 128,-1,53
 27 98 27 98 27 178 c 2,54,-1
 27 197 l 1,55,-1
 145 197 l 1,0,-1
EndSplineSet
Substitution2: "'locl' Localized Forms in Latin lookup 4 subtable" Scommaaccent
Substitution2: "'locl' Localized Forms in Latin lookup 3 subtable" Scommaaccent
Substitution2: "'aalt' Access All Alternates lookup 0 subtable" Scommaaccent
Position2: "'cpsp' Capital Spacing lookup 0 subtable" dx=5 dy=0 dh=10 dv=0
EndChar

StartChar: Scircumflex
Encoding: 348 348 95
Width: 484
Flags: MW
HStem: -11 98<210 275 210 299> 520 97<213 266> 661 120<199 202 123 286 281 281 281 286 199 361>
VStem: 27 117<178 183 154.5 197 154.5 197> 39 117<393.5 473.5 393.5 504.5> 323 115<428 436 436 438 428 461.5> 333 117<140.5 230>
LayerCount: 2
Fore
SplineSet
242 722 m 1,0,-1
 202 661 l 1,1,-1
 123 661 l 1,2,-1
 199 781 l 1,3,-1
 286 781 l 1,4,-1
 361 661 l 1,5,-1
 281 661 l 1,6,-1
 242 722 l 1,0,-1
145 197 m 1,7,-1
 144 183 l 1,8,9
 144 139 144 139 169.5 113 c 128,-1,10
 195 87 195 87 241.5 87 c 0,11,12
 288 87 288 87 310.5 107.5 c 128,-1,13
 333 128 333 128 333 162.5 c 0,14,15
 333 197 333 197 302.5 220.5 c 128,-1,16
 272 244 272 244 229 257 c 128,-1,17
 186 270 186 270 143 286.5 c 128,-1,18
 100 303 100 303 69.5 343 c 128,-1,19
 39 383 39 383 39 447 c 0,20,21
 39 529 39 529 97 573 c 128,-1,22
 155 617 155 617 241.5 617 c 0,23,24
 328 617 328 617 383 572 c 128,-1,25
 438 527 438 527 438 438 c 2,26,-1
 438 428 l 1,27,-1
 323 428 l 1,28,-1
 323 436 l 2,29,30
 323 475 323 475 301 497.5 c 128,-1,31
 279 520 279 520 240 520 c 128,-1,32
 201 520 201 520 178.5 502 c 128,-1,33
 156 484 156 484 156 455.5 c 0,34,35
 156 427 156 427 178 407.5 c 128,-1,36
 200 388 200 388 232.5 379 c 128,-1,37
 265 370 265 370 303 356 c 128,-1,38
 341 342 341 342 373.5 325 c 128,-1,39
 406 308 406 308 428 271 c 128,-1,40
 450 234 450 234 450 182 c 0,41,42
 450 82 450 82 393 35.5 c 128,-1,43
 336 -11 336 -11 242 -11 c 0,44,45
 148 -11 148 -11 87.5 38.5 c 128,-1,46
 27 88 27 88 27 178 c 2,47,-1
 27 197 l 1,48,-1
 145 197 l 1,7,-1
EndSplineSet
Position2: "'cpsp' Capital Spacing lookup 0 subtable" dx=5 dy=0 dh=10 dv=0
EndChar

StartChar: Scommaaccent
Encoding: 536 536 96
Width: 484
Flags: MW
HStem: -157 108<187 231 187 297> -11 98<210 275 210 299> 520 97<213 266>
VStem: 27 117<178 183 154.5 197 154.5 197> 39 117<393.5 473.5 393.5 504.5> 187 110<-148 -49 -148 -49 -148 -49> 323 115<428 436 436 438 428 461.5> 333 117<140.5 230>
LayerCount: 2
Fore
SplineSet
144 183 m 1,0,1
 144 139 144 139 169.5 113 c 128,-1,2
 195 87 195 87 241.5 87 c 0,3,4
 288 87 288 87 310.5 107.5 c 128,-1,5
 333 128 333 128 333 162.5 c 0,6,7
 333 197 333 197 302.5 220.5 c 128,-1,8
 272 244 272 244 229 257 c 128,-1,9
 186 270 186 270 143 286.5 c 128,-1,10
 100 303 100 303 69.5 343 c 128,-1,11
 39 383 39 383 39 447 c 0,12,13
 39 529 39 529 97 573 c 128,-1,14
 155 617 155 617 241.5 617 c 0,15,16
 328 617 328 617 383 572 c 128,-1,17
 438 527 438 527 438 438 c 2,18,-1
 438 428 l 1,19,-1
 323 428 l 1,20,-1
 323 436 l 2,21,22
 323 475 323 475 301 497.5 c 128,-1,23
 279 520 279 520 240 520 c 128,-1,24
 201 520 201 520 178.5 502 c 128,-1,25
 156 484 156 484 156 455.5 c 0,26,27
 156 427 156 427 178 407.5 c 128,-1,28
 200 388 200 388 232.5 379 c 128,-1,29
 265 370 265 370 303 356 c 128,-1,30
 341 342 341 342 373.5 325 c 128,-1,31
 406 308 406 308 428 271 c 128,-1,32
 450 234 450 234 450 182 c 0,33,34
 450 82 450 82 393 35.5 c 128,-1,35
 336 -11 336 -11 242 -11 c 0,36,37
 148 -11 148 -11 87.5 38.5 c 128,-1,38
 27 88 27 88 27 178 c 2,39,-1
 27 197 l 1,40,-1
 145 197 l 1,41,-1
 144 183 l 1,0,1
199 -232 m 1,42,-1
 231 -157 l 1,43,-1
 187 -157 l 1,44,-1
 187 -49 l 1,45,-1
 297 -49 l 1,46,-1
 297 -148 l 1,47,-1
 256 -232 l 1,48,-1
 199 -232 l 1,42,-1
EndSplineSet
Position2: "'cpsp' Capital Spacing lookup 0 subtable" dx=5 dy=0 dh=10 dv=0
EndChar

StartChar: T
Encoding: 84 84 97
Width: 443
Flags: MW
HStem: 0 21G<165 278 165 165> 506 100<15 165 15 429 278 429 278 278>
VStem: 165 113<0 506 0 506>
LayerCount: 2
Fore
SplineSet
278 506 m 1,0,-1
 278 0 l 1,1,-1
 165 0 l 1,2,-1
 165 506 l 1,3,-1
 15 506 l 1,4,-1
 15 606 l 1,5,-1
 429 606 l 1,6,-1
 429 506 l 1,7,-1
 278 506 l 1,0,-1
EndSplineSet
Position2: "'cpsp' Capital Spacing lookup 0 subtable" dx=5 dy=0 dh=10 dv=0
EndChar

StartChar: Tbar
Encoding: 358 358 98
Width: 443
Flags: MW
HStem: 0 21G<165 278 165 165> 271 76<65 165 65 165 278 377> 506 100<15 165 15 429 278 429 278 278>
VStem: 165 113<0 271 0 271 347 506>
LayerCount: 2
Fore
SplineSet
278 506 m 1,0,-1
 278 347 l 1,1,-1
 377 347 l 1,2,-1
 377 271 l 1,3,-1
 278 271 l 1,4,-1
 278 0 l 1,5,-1
 165 0 l 1,6,-1
 165 271 l 1,7,-1
 65 271 l 1,8,-1
 65 347 l 1,9,-1
 165 347 l 1,10,-1
 165 506 l 1,11,-1
 15 506 l 1,12,-1
 15 606 l 1,13,-1
 429 606 l 1,14,-1
 429 506 l 1,15,-1
 278 506 l 1,0,-1
EndSplineSet
Position2: "'cpsp' Capital Spacing lookup 0 subtable" dx=5 dy=0 dh=10 dv=0
EndChar

StartChar: Tcaron
Encoding: 356 356 99
Width: 443
Flags: MW
HStem: 0 21G<165 278 165 165> 506 100<15 165 15 429 278 429 278 278> 661 120<179 179 179 182 261 265>
VStem: 165 113<0 506 0 506>
LayerCount: 2
Fore
SplineSet
179 661 m 1,0,-1
 103 781 l 1,1,-1
 182 781 l 1,2,-1
 222 720 l 1,3,-1
 261 781 l 1,4,-1
 340 781 l 1,5,-1
 265 661 l 1,6,-1
 179 661 l 1,0,-1
278 506 m 1,7,-1
 278 0 l 1,8,-1
 165 0 l 1,9,-1
 165 506 l 1,10,-1
 15 506 l 1,11,-1
 15 606 l 1,12,-1
 429 606 l 1,13,-1
 429 506 l 1,14,-1
 278 506 l 1,7,-1
EndSplineSet
Position2: "'cpsp' Capital Spacing lookup 0 subtable" dx=5 dy=0 dh=10 dv=0
EndChar

StartChar: Tcedilla
Encoding: 354 354 100
Width: 443
Flags: MW
HStem: -161 50<197.5 199 199 208.5 136 229> -154 21G<136 136> -68 39<171 237> 0 21G<165 180 165 165 240 278 240 240> 506 100<15 165 15 429 278 278 278 429>
VStem: 165 113<0 506 0 506> 230 76<-97.5 -82>
LayerCount: 2
Fore
SplineSet
240 0 m 1,0,-1
 237 -29 l 1,1,2
 306 -34 306 -34 306 -89 c 0,3,4
 306 -129 306 -129 277 -145 c 128,-1,5
 248 -161 248 -161 210.5 -161 c 0,6,7
 173 -161 173 -161 136 -154 c 1,8,-1
 136 -111 l 1,9,-1
 199 -111 l 2,10,11
 230 -111 230 -111 230 -89.5 c 0,12,13
 230 -68 230 -68 200 -68 c 2,14,-1
 171 -68 l 1,15,-1
 180 0 l 1,16,-1
 165 0 l 1,17,-1
 165 506 l 1,18,-1
 15 506 l 1,19,-1
 15 606 l 1,20,-1
 429 606 l 1,21,-1
 429 506 l 1,22,-1
 278 506 l 1,23,-1
 278 0 l 1,24,-1
 240 0 l 1,0,-1
EndSplineSet
Substitution2: "'locl' Localized Forms in Latin lookup 4 subtable" uni021A
Substitution2: "'locl' Localized Forms in Latin lookup 3 subtable" uni021A
Substitution2: "'aalt' Access All Alternates lookup 0 subtable" uni021A
Position2: "'cpsp' Capital Spacing lookup 0 subtable" dx=5 dy=0 dh=10 dv=0
EndChar

StartChar: uni021A
Encoding: 538 538 101
Width: 443
Flags: MW
HStem: -157 108<167 210 167 276> 0 21G<165 278 165 165> 506 100<15 165 15 429 278 429 278 278>
VStem: 165 113<0 506 0 506>
LayerCount: 2
Fore
SplineSet
278 506 m 1,0,-1
 278 0 l 1,1,-1
 165 0 l 1,2,-1
 165 506 l 1,3,-1
 15 506 l 1,4,-1
 15 606 l 1,5,-1
 429 606 l 1,6,-1
 429 506 l 1,7,-1
 278 506 l 1,0,-1
236 -232 m 1,8,-1
 179 -232 l 1,9,-1
 210 -157 l 1,10,-1
 167 -157 l 1,11,-1
 167 -49 l 1,12,-1
 276 -49 l 1,13,-1
 276 -148 l 1,14,-1
 236 -232 l 1,8,-1
EndSplineSet
Position2: "'cpsp' Capital Spacing lookup 0 subtable" dx=5 dy=0 dh=10 dv=0
EndChar

StartChar: U
Encoding: 85 85 102
Width: 523
Flags: MW
HStem: -11 98<232 292 232 327> 586 20G<54 167 167 167 357 470 470 470>
VStem: 54 113<190 194 194 606> 357 113<194 606>
LayerCount: 2
Fore
SplineSet
470 190 m 2,0,1
 470 92 470 92 415.5 40.5 c 128,-1,2
 361 -11 361 -11 262 -11 c 128,-1,3
 163 -11 163 -11 108.5 40.5 c 128,-1,4
 54 92 54 92 54 190 c 2,5,-1
 54 606 l 1,6,-1
 167 606 l 1,7,-1
 167 194 l 2,8,9
 167 142 167 142 192 114.5 c 128,-1,10
 217 87 217 87 262 87 c 128,-1,11
 307 87 307 87 332 114.5 c 128,-1,12
 357 142 357 142 357 194 c 2,13,-1
 357 606 l 1,14,-1
 470 606 l 1,15,-1
 470 190 l 2,0,1
EndSplineSet
Position2: "'cpsp' Capital Spacing lookup 0 subtable" dx=5 dy=0 dh=10 dv=0
EndChar

StartChar: Uacute
Encoding: 218 218 103
Width: 523
Flags: MW
HStem: -11 98<232 292 232 327> 586 20G<54 167 167 167 357 470 470 470> 664 117<277 288 201 383>
VStem: 54 113<190 194 194 606> 357 113<194 606>
LayerCount: 2
Fore
SplineSet
288 664 m 1,0,-1
 201 664 l 1,1,-1
 277 781 l 1,2,-1
 383 781 l 1,3,-1
 384 778 l 1,4,-1
 288 664 l 1,0,-1
470 190 m 2,5,6
 470 92 470 92 415.5 40.5 c 128,-1,7
 361 -11 361 -11 262 -11 c 128,-1,8
 163 -11 163 -11 108.5 40.5 c 128,-1,9
 54 92 54 92 54 190 c 2,10,-1
 54 606 l 1,11,-1
 167 606 l 1,12,-1
 167 194 l 2,13,14
 167 142 167 142 192 114.5 c 128,-1,15
 217 87 217 87 262 87 c 128,-1,16
 307 87 307 87 332 114.5 c 128,-1,17
 357 142 357 142 357 194 c 2,18,-1
 357 606 l 1,19,-1
 470 606 l 1,20,-1
 470 190 l 2,5,6
EndSplineSet
Position2: "'cpsp' Capital Spacing lookup 0 subtable" dx=5 dy=0 dh=10 dv=0
EndChar

StartChar: Ubreve
Encoding: 364 364 104
Width: 523
Flags: MW
HStem: -11 98<232 292 232 327> 586 20G<54 167 167 167 357 470 470 470> 686 95<144 297.5>
VStem: 54 113<190 194 194 606> 357 113<194 606>
LayerCount: 2
Fore
SplineSet
380 781 m 1,0,1
 380 745 380 745 346.5 715.5 c 128,-1,2
 313 686 313 686 261 686 c 128,-1,3
 209 686 209 686 176.5 715.5 c 128,-1,4
 144 745 144 745 144 781 c 1,5,-1
 210 781 l 1,6,7
 212 770 212 770 226.5 760.5 c 128,-1,8
 241 751 241 751 262 751 c 0,9,10
 283 751 283 751 298 760.5 c 128,-1,11
 313 770 313 770 314 781 c 1,12,-1
 380 781 l 1,0,1
470 190 m 2,13,14
 470 92 470 92 415.5 40.5 c 128,-1,15
 361 -11 361 -11 262 -11 c 128,-1,16
 163 -11 163 -11 108.5 40.5 c 128,-1,17
 54 92 54 92 54 190 c 2,18,-1
 54 606 l 1,19,-1
 167 606 l 1,20,-1
 167 194 l 2,21,22
 167 142 167 142 192 114.5 c 128,-1,23
 217 87 217 87 262 87 c 128,-1,24
 307 87 307 87 332 114.5 c 128,-1,25
 357 142 357 142 357 194 c 2,26,-1
 357 606 l 1,27,-1
 470 606 l 1,28,-1
 470 190 l 2,13,14
EndSplineSet
Position2: "'cpsp' Capital Spacing lookup 0 subtable" dx=5 dy=0 dh=10 dv=0
EndChar

StartChar: Ucircumflex
Encoding: 219 219 105
Width: 523
Flags: MW
HStem: -11 98<232 292 232 327> 586 20G<54 167 167 167 357 470 470 470> 661 120<219 222 143 306 301 306 219 381 301 301>
VStem: 54 113<190 194 194 606> 357 113<194 606>
LayerCount: 2
Fore
SplineSet
301 661 m 1,0,-1
 262 722 l 1,1,-1
 222 661 l 1,2,-1
 143 661 l 1,3,-1
 219 781 l 1,4,-1
 306 781 l 1,5,-1
 381 661 l 1,6,-1
 301 661 l 1,0,-1
470 190 m 2,7,8
 470 92 470 92 415.5 40.5 c 128,-1,9
 361 -11 361 -11 262 -11 c 128,-1,10
 163 -11 163 -11 108.5 40.5 c 128,-1,11
 54 92 54 92 54 190 c 2,12,-1
 54 606 l 1,13,-1
 167 606 l 1,14,-1
 167 194 l 2,15,16
 167 142 167 142 192 114.5 c 128,-1,17
 217 87 217 87 262 87 c 128,-1,18
 307 87 307 87 332 114.5 c 128,-1,19
 357 142 357 142 357 194 c 2,20,-1
 357 606 l 1,21,-1
 470 606 l 1,22,-1
 470 190 l 2,7,8
EndSplineSet
Position2: "'cpsp' Capital Spacing lookup 0 subtable" dx=5 dy=0 dh=10 dv=0
EndChar

StartChar: Udieresis
Encoding: 220 220 106
Width: 523
Flags: MW
HStem: -11 98<232 292 232 327> 586 20G<54 167 167 167 357 470 470 470> 684 97<141 229 141 229 294 384 141 294>
VStem: 54 113<190 194 194 606> 141 88<684 781 684 781> 294 90<684 781 684 781> 357 113<194 606>
LayerCount: 2
Fore
SplineSet
141 684 m 1,0,-1
 141 781 l 1,1,-1
 229 781 l 1,2,-1
 229 684 l 1,3,-1
 141 684 l 1,0,-1
294 684 m 1,4,-1
 294 781 l 1,5,-1
 384 781 l 1,6,-1
 384 684 l 1,7,-1
 294 684 l 1,4,-1
470 190 m 2,8,9
 470 92 470 92 415.5 40.5 c 128,-1,10
 361 -11 361 -11 262 -11 c 128,-1,11
 163 -11 163 -11 108.5 40.5 c 128,-1,12
 54 92 54 92 54 190 c 2,13,-1
 54 606 l 1,14,-1
 167 606 l 1,15,-1
 167 194 l 2,16,17
 167 142 167 142 192 114.5 c 128,-1,18
 217 87 217 87 262 87 c 128,-1,19
 307 87 307 87 332 114.5 c 128,-1,20
 357 142 357 142 357 194 c 2,21,-1
 357 606 l 1,22,-1
 470 606 l 1,23,-1
 470 190 l 2,8,9
EndSplineSet
Position2: "'cpsp' Capital Spacing lookup 0 subtable" dx=5 dy=0 dh=10 dv=0
EndChar

StartChar: Ugrave
Encoding: 217 217 107
Width: 523
Flags: MW
HStem: -11 98<232 292 232 327> 586 20G<54 167 167 167 357 470 470 470> 664 117<235 235 235 247 141 323>
VStem: 54 113<190 194 194 606> 357 113<194 606>
LayerCount: 2
Fore
SplineSet
235 664 m 1,0,-1
 140 778 l 1,1,-1
 141 781 l 1,2,-1
 247 781 l 1,3,-1
 323 664 l 1,4,-1
 235 664 l 1,0,-1
470 190 m 2,5,6
 470 92 470 92 415.5 40.5 c 128,-1,7
 361 -11 361 -11 262 -11 c 128,-1,8
 163 -11 163 -11 108.5 40.5 c 128,-1,9
 54 92 54 92 54 190 c 2,10,-1
 54 606 l 1,11,-1
 167 606 l 1,12,-1
 167 194 l 2,13,14
 167 142 167 142 192 114.5 c 128,-1,15
 217 87 217 87 262 87 c 128,-1,16
 307 87 307 87 332 114.5 c 128,-1,17
 357 142 357 142 357 194 c 2,18,-1
 357 606 l 1,19,-1
 470 606 l 1,20,-1
 470 190 l 2,5,6
EndSplineSet
Position2: "'cpsp' Capital Spacing lookup 0 subtable" dx=5 dy=0 dh=10 dv=0
EndChar

StartChar: Uhungarumlaut
Encoding: 368 368 108
Width: 523
Flags: MW
HStem: -11 98<232 292 232 327> 586 20G<54 167 167 167 357 470 470 470> 664 117<217 232 162 305 286 286 286 305 340 355>
VStem: 54 113<190 194 194 606> 357 113<194 606>
LayerCount: 2
Fore
SplineSet
232 664 m 1,0,-1
 162 664 l 1,1,-1
 217 781 l 1,2,-1
 305 781 l 1,3,-1
 306 778 l 1,4,-1
 232 664 l 1,0,-1
355 664 m 1,5,-1
 286 664 l 1,6,-1
 340 781 l 1,7,-1
 429 781 l 1,8,-1
 430 778 l 1,9,-1
 355 664 l 1,5,-1
470 190 m 2,10,11
 470 92 470 92 415.5 40.5 c 128,-1,12
 361 -11 361 -11 262 -11 c 128,-1,13
 163 -11 163 -11 108.5 40.5 c 128,-1,14
 54 92 54 92 54 190 c 2,15,-1
 54 606 l 1,16,-1
 167 606 l 1,17,-1
 167 194 l 2,18,19
 167 142 167 142 192 114.5 c 128,-1,20
 217 87 217 87 262 87 c 128,-1,21
 307 87 307 87 332 114.5 c 128,-1,22
 357 142 357 142 357 194 c 2,23,-1
 357 606 l 1,24,-1
 470 606 l 1,25,-1
 470 190 l 2,10,11
EndSplineSet
Position2: "'cpsp' Capital Spacing lookup 0 subtable" dx=5 dy=0 dh=10 dv=0
EndChar

StartChar: Umacron
Encoding: 362 362 109
Width: 523
Flags: MW
HStem: -11 98<232 292 232 327> 586 20G<54 167 167 167 357 470 470 470> 671 77<149 375 149 375>
VStem: 54 113<190 194 194 606> 357 113<194 606>
LayerCount: 2
Fore
SplineSet
149 671 m 1,0,-1
 149 748 l 1,1,-1
 375 748 l 1,2,-1
 375 671 l 1,3,-1
 149 671 l 1,0,-1
470 190 m 2,4,5
 470 92 470 92 415.5 40.5 c 128,-1,6
 361 -11 361 -11 262 -11 c 128,-1,7
 163 -11 163 -11 108.5 40.5 c 128,-1,8
 54 92 54 92 54 190 c 2,9,-1
 54 606 l 1,10,-1
 167 606 l 1,11,-1
 167 194 l 2,12,13
 167 142 167 142 192 114.5 c 128,-1,14
 217 87 217 87 262 87 c 128,-1,15
 307 87 307 87 332 114.5 c 128,-1,16
 357 142 357 142 357 194 c 2,17,-1
 357 606 l 1,18,-1
 470 606 l 1,19,-1
 470 190 l 2,4,5
EndSplineSet
Position2: "'cpsp' Capital Spacing lookup 0 subtable" dx=5 dy=0 dh=10 dv=0
EndChar

StartChar: Uogonek
Encoding: 370 370 110
Width: 523
Flags: MW
HStem: -164 61<312 391> -11 98<232 262 262 270> 586 20G<54 167 167 167 357 470 470 470>
VStem: 54 113<197 201 201 606> 245 146<-114.5 -103 -151 -68.5> 357 113<201 606>
LayerCount: 2
Fore
SplineSet
470 606 m 1,0,-1
 470 197 l 2,1,2
 470 48 470 48 358 4 c 1,3,4
 331 -25 331 -25 331 -50.5 c 0,5,6
 331 -103 331 -103 371 -103 c 2,7,-1
 391 -103 l 1,8,-1
 391 -151 l 1,9,10
 357 -164 357 -164 327 -164 c 128,-1,11
 297 -164 297 -164 271 -145 c 128,-1,12
 245 -126 245 -126 245 -85.5 c 128,-1,13
 245 -45 245 -45 270 -11 c 1,14,-1
 262 -11 l 2,15,16
 163 -11 163 -11 108.5 42.5 c 128,-1,17
 54 96 54 96 54 197 c 2,18,-1
 54 606 l 1,19,-1
 167 606 l 1,20,-1
 167 201 l 2,21,22
 167 145 167 145 192 116 c 128,-1,23
 217 87 217 87 262 87 c 128,-1,24
 307 87 307 87 332 116 c 128,-1,25
 357 145 357 145 357 201 c 2,26,-1
 357 606 l 1,27,-1
 470 606 l 1,0,-1
EndSplineSet
Position2: "'cpsp' Capital Spacing lookup 0 subtable" dx=5 dy=0 dh=10 dv=0
EndChar

StartChar: Uring
Encoding: 366 366 111
Width: 523
Flags: MW
HStem: -11 98<232 292 232 327> 586 20G<54 167 167 167 357 470 470 470> 637 45<250.5 273 250.5 285.5> 763 44<250.5 273>
VStem: 54 113<190 194 194 606> 177 44<710.5 733.5 710.5 745.5> 302 45<710.5 733.5> 357 113<194 606>
LayerCount: 2
Fore
SplineSet
262 807 m 128,-1,1
 297 807 297 807 322 782 c 128,-1,2
 347 757 347 757 347 722 c 128,-1,3
 347 687 347 687 322 662 c 128,-1,4
 297 637 297 637 262 637 c 128,-1,5
 227 637 227 637 202 661.5 c 128,-1,6
 177 686 177 686 177 721.5 c 0,7,8
 177 757 177 757 202 782 c 128,-1,0
 227 807 227 807 262 807 c 128,-1,1
262 763 m 128,-1,10
 245 763 245 763 233 751 c 128,-1,11
 221 739 221 739 221 722 c 128,-1,12
 221 705 221 705 233 693.5 c 128,-1,13
 245 682 245 682 262 682 c 128,-1,14
 279 682 279 682 290.5 693.5 c 128,-1,15
 302 705 302 705 302 722 c 128,-1,16
 302 739 302 739 290.5 751 c 128,-1,9
 279 763 279 763 262 763 c 128,-1,10
470 190 m 2,17,18
 470 92 470 92 415.5 40.5 c 128,-1,19
 361 -11 361 -11 262 -11 c 128,-1,20
 163 -11 163 -11 108.5 40.5 c 128,-1,21
 54 92 54 92 54 190 c 2,22,-1
 54 606 l 1,23,-1
 167 606 l 1,24,-1
 167 194 l 2,25,26
 167 142 167 142 192 114.5 c 128,-1,27
 217 87 217 87 262 87 c 128,-1,28
 307 87 307 87 332 114.5 c 128,-1,29
 357 142 357 142 357 194 c 2,30,-1
 357 606 l 1,31,-1
 470 606 l 1,32,-1
 470 190 l 2,17,18
EndSplineSet
Position2: "'cpsp' Capital Spacing lookup 0 subtable" dx=5 dy=0 dh=10 dv=0
EndChar

StartChar: Utilde
Encoding: 360 360 112
Width: 523
Flags: MW
HStem: -11 98<232 292 232 327> 586 20G<54 167 167 167 357 470 470 470> 673 75<301.5 326.5 297.5 354> 705 76<196.5 221.5 169 226>
VStem: 54 113<190 194 194 606> 357 113<194 606>
LayerCount: 2
Fore
SplineSet
410 781 m 1,0,1
 410 739 410 739 388 706 c 128,-1,2
 366 673 366 673 323 673 c 0,3,4
 301 673 301 673 263.5 689 c 128,-1,5
 226 705 226 705 206 705 c 0,6,7
 176 705 176 705 171 673 c 1,8,-1
 113 673 l 1,9,10
 113 715 113 715 135 748 c 128,-1,11
 157 781 157 781 200 781 c 0,12,13
 222 781 222 781 260 764.5 c 128,-1,14
 298 748 298 748 317 748 c 0,15,16
 347 748 347 748 352 781 c 1,17,-1
 410 781 l 1,0,1
470 190 m 2,18,19
 470 92 470 92 415.5 40.5 c 128,-1,20
 361 -11 361 -11 262 -11 c 128,-1,21
 163 -11 163 -11 108.5 40.5 c 128,-1,22
 54 92 54 92 54 190 c 2,23,-1
 54 606 l 1,24,-1
 167 606 l 1,25,-1
 167 194 l 2,26,27
 167 142 167 142 192 114.5 c 128,-1,28
 217 87 217 87 262 87 c 128,-1,29
 307 87 307 87 332 114.5 c 128,-1,30
 357 142 357 142 357 194 c 2,31,-1
 357 606 l 1,32,-1
 470 606 l 1,33,-1
 470 190 l 2,18,19
EndSplineSet
Position2: "'cpsp' Capital Spacing lookup 0 subtable" dx=5 dy=0 dh=10 dv=0
EndChar

StartChar: V
Encoding: 86 86 113
Width: 484
Flags: MW
HStem: 0 21G<185 299 185 185> 0 172<244 248 244 299 185 248> 586 20G<0 117 117 117 373 484 484 484>
VStem: 0 484<606 606>
LayerCount: 2
Fore
SplineSet
0 606 m 1,0,-1
 117 606 l 1,1,-1
 244 172 l 1,2,-1
 248 172 l 1,3,-1
 373 606 l 1,4,-1
 484 606 l 1,5,-1
 299 0 l 1,6,-1
 185 0 l 1,7,-1
 0 606 l 1,0,-1
EndSplineSet
Position2: "'cpsp' Capital Spacing lookup 0 subtable" dx=5 dy=0 dh=10 dv=0
EndChar

StartChar: W
Encoding: 87 87 114
Width: 684
Flags: MW
HStem: 0 21G<132 246 132 132 438 438 438 552> 0 149<196 200 196 246 132 200 497 500> 472 134<339 343 339 339> 586 20G<0 112 112 112 285 413 413 413 586 683 683 683>
VStem: 0 683<606 606>
LayerCount: 2
Fore
SplineSet
355 386 m 1,0,-1
 343 472 l 1,1,-1
 339 472 l 1,2,3
 332 412 332 412 327 386 c 2,4,-1
 246 0 l 1,5,-1
 132 0 l 1,6,-1
 0 606 l 1,7,-1
 112 606 l 1,8,-1
 185 233 l 1,9,-1
 196 149 l 1,10,-1
 200 149 l 1,11,12
 206 208 206 208 211 233 c 2,13,-1
 285 606 l 1,14,-1
 413 606 l 1,15,-1
 485 233 l 1,16,-1
 497 149 l 1,17,-1
 500 149 l 1,18,19
 506 203 506 203 512 233 c 2,20,-1
 586 606 l 1,21,-1
 683 606 l 1,22,-1
 552 0 l 1,23,-1
 438 0 l 1,24,-1
 355 386 l 1,0,-1
EndSplineSet
Position2: "'cpsp' Capital Spacing lookup 0 subtable" dx=5 dy=0 dh=10 dv=0
EndChar

StartChar: Wacute
Encoding: 7810 7810 115
Width: 684
Flags: MW
HStem: 0 21G<132 246 132 132 438 552 438 438> 0 149<196 200 196 246 132 200 497 500> 472 134<339 343 339 339> 586 20G<0 112 112 112 285 413 413 413 586 683 683 683> 664 117<357 369 281 463>
VStem: 0 683<606 606>
LayerCount: 2
Fore
SplineSet
369 664 m 1,0,-1
 281 664 l 1,1,-1
 357 781 l 1,2,-1
 463 781 l 1,3,-1
 464 778 l 1,4,-1
 369 664 l 1,0,-1
438 0 m 1,5,-1
 355 386 l 1,6,-1
 343 472 l 1,7,-1
 339 472 l 1,8,9
 332 412 332 412 327 386 c 2,10,-1
 246 0 l 1,11,-1
 132 0 l 1,12,-1
 0 606 l 1,13,-1
 112 606 l 1,14,-1
 185 233 l 1,15,-1
 196 149 l 1,16,-1
 200 149 l 1,17,18
 206 208 206 208 211 233 c 2,19,-1
 285 606 l 1,20,-1
 413 606 l 1,21,-1
 485 233 l 1,22,-1
 497 149 l 1,23,-1
 500 149 l 1,24,25
 506 203 506 203 512 233 c 2,26,-1
 586 606 l 1,27,-1
 683 606 l 1,28,-1
 552 0 l 1,29,-1
 438 0 l 1,5,-1
EndSplineSet
Position2: "'cpsp' Capital Spacing lookup 0 subtable" dx=5 dy=0 dh=10 dv=0
EndChar

StartChar: Wcircumflex
Encoding: 372 372 116
Width: 684
Flags: MW
HStem: 0 21G<132 246 132 132 438 438 438 552> 0 149<196 200 196 246 132 200 497 500> 472 134<339 343 339 339> 586 20G<0 112 112 112 285 413 413 413 586 683 683 683> 661 120<300 303 224 386 382 382 382 386 300 461>
VStem: 0 683<606 606>
LayerCount: 2
Fore
SplineSet
343 722 m 1,0,-1
 303 661 l 1,1,-1
 224 661 l 1,2,-1
 300 781 l 1,3,-1
 386 781 l 1,4,-1
 461 661 l 1,5,-1
 382 661 l 1,6,-1
 343 722 l 1,0,-1
355 386 m 1,7,-1
 343 472 l 1,8,-1
 339 472 l 1,9,10
 332 412 332 412 327 386 c 2,11,-1
 246 0 l 1,12,-1
 132 0 l 1,13,-1
 0 606 l 1,14,-1
 112 606 l 1,15,-1
 185 233 l 1,16,-1
 196 149 l 1,17,-1
 200 149 l 1,18,19
 206 208 206 208 211 233 c 2,20,-1
 285 606 l 1,21,-1
 413 606 l 1,22,-1
 485 233 l 1,23,-1
 497 149 l 1,24,-1
 500 149 l 1,25,26
 506 203 506 203 512 233 c 2,27,-1
 586 606 l 1,28,-1
 683 606 l 1,29,-1
 552 0 l 1,30,-1
 438 0 l 1,31,-1
 355 386 l 1,7,-1
EndSplineSet
Position2: "'cpsp' Capital Spacing lookup 0 subtable" dx=5 dy=0 dh=10 dv=0
EndChar

StartChar: Wdieresis
Encoding: 7812 7812 117
Width: 684
Flags: MW
HStem: 0 21G<132 246 132 132 438 552 438 438> 0 149<196 200 196 246 132 200 497 500> 472 134<339 343 339 339> 586 20G<0 112 112 112 285 413 413 413 586 683 683 683> 684 97<221 309 221 309 376 464 221 376>
VStem: 221 88<684 781 684 781> 376 88<684 781 684 781>
LayerCount: 2
Fore
SplineSet
221 684 m 1,0,-1
 221 781 l 1,1,-1
 309 781 l 1,2,-1
 309 684 l 1,3,-1
 221 684 l 1,0,-1
376 684 m 1,4,-1
 376 781 l 1,5,-1
 464 781 l 1,6,-1
 464 684 l 1,7,-1
 376 684 l 1,4,-1
438 0 m 1,8,-1
 355 386 l 1,9,-1
 343 472 l 1,10,-1
 339 472 l 1,11,12
 332 412 332 412 327 386 c 2,13,-1
 246 0 l 1,14,-1
 132 0 l 1,15,-1
 0 606 l 1,16,-1
 112 606 l 1,17,-1
 185 233 l 1,18,-1
 196 149 l 1,19,-1
 200 149 l 1,20,21
 206 208 206 208 211 233 c 2,22,-1
 285 606 l 1,23,-1
 413 606 l 1,24,-1
 485 233 l 1,25,-1
 497 149 l 1,26,-1
 500 149 l 1,27,28
 506 203 506 203 512 233 c 2,29,-1
 586 606 l 1,30,-1
 683 606 l 1,31,-1
 552 0 l 1,32,-1
 438 0 l 1,8,-1
EndSplineSet
Position2: "'cpsp' Capital Spacing lookup 0 subtable" dx=5 dy=0 dh=10 dv=0
EndChar

StartChar: Wgrave
Encoding: 7808 7808 118
Width: 684
Flags: MW
HStem: 0 21G<132 246 132 132 438 552 438 438> 0 149<196 200 196 246 132 200 497 500> 472 134<339 343 339 339> 586 20G<0 112 112 112 285 413 413 413 586 683 683 683> 664 117<316 316 316 327 221 403>
VStem: 0 683<606 606>
LayerCount: 2
Fore
SplineSet
316 664 m 1,0,-1
 220 778 l 1,1,-1
 221 781 l 1,2,-1
 327 781 l 1,3,-1
 403 664 l 1,4,-1
 316 664 l 1,0,-1
438 0 m 1,5,-1
 355 386 l 1,6,-1
 343 472 l 1,7,-1
 339 472 l 1,8,9
 332 412 332 412 327 386 c 2,10,-1
 246 0 l 1,11,-1
 132 0 l 1,12,-1
 0 606 l 1,13,-1
 112 606 l 1,14,-1
 185 233 l 1,15,-1
 196 149 l 1,16,-1
 200 149 l 1,17,18
 206 208 206 208 211 233 c 2,19,-1
 285 606 l 1,20,-1
 413 606 l 1,21,-1
 485 233 l 1,22,-1
 497 149 l 1,23,-1
 500 149 l 1,24,25
 506 203 506 203 512 233 c 2,26,-1
 586 606 l 1,27,-1
 683 606 l 1,28,-1
 552 0 l 1,29,-1
 438 0 l 1,5,-1
EndSplineSet
Position2: "'cpsp' Capital Spacing lookup 0 subtable" dx=5 dy=0 dh=10 dv=0
EndChar

StartChar: X
Encoding: 88 88 119
Width: 484
Flags: MW
HStem: 0 21G<0 118 0 0 357 483 357 357> 586 20G<16 142 142 142 349 467 467 467>
VStem: 0 483<0 0>
LayerCount: 2
Fore
SplineSet
483 0 m 1,0,-1
 357 0 l 1,1,-1
 239 229 l 1,2,-1
 235 229 l 1,3,-1
 118 0 l 1,4,-1
 0 0 l 1,5,-1
 171 318 l 1,6,-1
 16 606 l 1,7,-1
 142 606 l 1,8,-1
 244 408 l 1,9,-1
 248 408 l 1,10,-1
 349 606 l 1,11,-1
 467 606 l 1,12,-1
 310 320 l 1,13,-1
 483 0 l 1,0,-1
EndSplineSet
Position2: "'cpsp' Capital Spacing lookup 0 subtable" dx=5 dy=0 dh=10 dv=0
EndChar

StartChar: Y
Encoding: 89 89 120
Width: 484
Flags: MW
HStem: 0 21G<186 186 186 299> 586 20G<0 119 119 119 370 484 484 484>
VStem: 186 113<0 229 0 229>
LayerCount: 2
Fore
SplineSet
186 0 m 1,0,-1
 186 229 l 1,1,-1
 0 606 l 1,2,-1
 119 606 l 1,3,-1
 243 340 l 1,4,-1
 247 340 l 1,5,-1
 370 606 l 1,6,-1
 484 606 l 1,7,-1
 299 229 l 1,8,-1
 299 0 l 1,9,-1
 186 0 l 1,0,-1
EndSplineSet
Position2: "'cpsp' Capital Spacing lookup 0 subtable" dx=5 dy=0 dh=10 dv=0
EndChar

StartChar: Yacute
Encoding: 221 221 121
Width: 484
Flags: MW
HStem: 0 21G<186 299 186 186> 586 20G<0 119 119 119 370 484 484 484> 664 117<257 269 181 363>
VStem: 186 113<0 229>
LayerCount: 2
Fore
SplineSet
269 664 m 1,0,-1
 181 664 l 1,1,-1
 257 781 l 1,2,-1
 363 781 l 1,3,-1
 364 778 l 1,4,-1
 269 664 l 1,0,-1
299 0 m 1,5,-1
 186 0 l 1,6,-1
 186 229 l 1,7,-1
 0 606 l 1,8,-1
 119 606 l 1,9,-1
 243 340 l 1,10,-1
 247 340 l 1,11,-1
 370 606 l 1,12,-1
 484 606 l 1,13,-1
 299 229 l 1,14,-1
 299 0 l 1,5,-1
EndSplineSet
Position2: "'cpsp' Capital Spacing lookup 0 subtable" dx=5 dy=0 dh=10 dv=0
EndChar

StartChar: Ycircumflex
Encoding: 374 374 122
Width: 484
Flags: MW
HStem: 0 21G<186 186 186 299> 586 20G<0 119 119 119 370 484 484 484> 661 120<199 202 123 286 281 281 281 286 199 361>
VStem: 186 113<0 229 0 229>
LayerCount: 2
Fore
SplineSet
242 722 m 1,0,-1
 202 661 l 1,1,-1
 123 661 l 1,2,-1
 199 781 l 1,3,-1
 286 781 l 1,4,-1
 361 661 l 1,5,-1
 281 661 l 1,6,-1
 242 722 l 1,0,-1
186 0 m 1,7,-1
 186 229 l 1,8,-1
 0 606 l 1,9,-1
 119 606 l 1,10,-1
 243 340 l 1,11,-1
 247 340 l 1,12,-1
 370 606 l 1,13,-1
 484 606 l 1,14,-1
 299 229 l 1,15,-1
 299 0 l 1,16,-1
 186 0 l 1,7,-1
EndSplineSet
Position2: "'cpsp' Capital Spacing lookup 0 subtable" dx=5 dy=0 dh=10 dv=0
EndChar

StartChar: Ydieresis
Encoding: 376 376 123
Width: 484
Flags: MW
HStem: 0 21G<186 299 186 186> 586 20G<0 119 119 119 370 484 484 484> 684 97<120 209 120 209 275 363 120 275>
VStem: 120 89<684 781 684 781> 186 113<0 229> 275 88<684 781 684 781>
LayerCount: 2
Fore
SplineSet
120 684 m 1,0,-1
 120 781 l 1,1,-1
 209 781 l 1,2,-1
 209 684 l 1,3,-1
 120 684 l 1,0,-1
275 684 m 1,4,-1
 275 781 l 1,5,-1
 363 781 l 1,6,-1
 363 684 l 1,7,-1
 275 684 l 1,4,-1
299 0 m 1,8,-1
 186 0 l 1,9,-1
 186 229 l 1,10,-1
 0 606 l 1,11,-1
 119 606 l 1,12,-1
 243 340 l 1,13,-1
 247 340 l 1,14,-1
 370 606 l 1,15,-1
 484 606 l 1,16,-1
 299 229 l 1,17,-1
 299 0 l 1,8,-1
EndSplineSet
Position2: "'cpsp' Capital Spacing lookup 0 subtable" dx=5 dy=0 dh=10 dv=0
EndChar

StartChar: Ygrave
Encoding: 7922 7922 124
Width: 484
Flags: MW
HStem: 0 21G<186 299 186 186> 586 20G<0 119 119 119 370 484 484 484> 664 117<215 215 215 226 120 302>
VStem: 186 113<0 229>
LayerCount: 2
Fore
SplineSet
215 664 m 1,0,-1
 119 778 l 1,1,-1
 120 781 l 1,2,-1
 226 781 l 1,3,-1
 302 664 l 1,4,-1
 215 664 l 1,0,-1
299 0 m 1,5,-1
 186 0 l 1,6,-1
 186 229 l 1,7,-1
 0 606 l 1,8,-1
 119 606 l 1,9,-1
 243 340 l 1,10,-1
 247 340 l 1,11,-1
 370 606 l 1,12,-1
 484 606 l 1,13,-1
 299 229 l 1,14,-1
 299 0 l 1,5,-1
EndSplineSet
Position2: "'cpsp' Capital Spacing lookup 0 subtable" dx=5 dy=0 dh=10 dv=0
EndChar

StartChar: Z
Encoding: 90 90 125
Width: 443
Flags: MW
HStem: 0 101<169 424 169 424> 506 100<33 263 33 418>
VStem: 14 410<0 43 43 43>
LayerCount: 2
Fore
SplineSet
169 101 m 1,0,-1
 424 101 l 1,1,-1
 424 0 l 1,2,-1
 14 0 l 1,3,-1
 14 43 l 1,4,-1
 263 506 l 1,5,-1
 33 506 l 1,6,-1
 33 606 l 1,7,-1
 418 606 l 1,8,-1
 418 562 l 1,9,-1
 169 101 l 1,0,-1
EndSplineSet
Position2: "'cpsp' Capital Spacing lookup 0 subtable" dx=5 dy=0 dh=10 dv=0
EndChar

StartChar: Zacute
Encoding: 377 377 126
Width: 443
Flags: MW
HStem: 0 101<169 424 169 424> 506 100<33 263 33 418> 664 117<237 248 161 343>
VStem: 14 410<0 43 43 43>
LayerCount: 2
Fore
SplineSet
248 664 m 1,0,-1
 161 664 l 1,1,-1
 237 781 l 1,2,-1
 343 781 l 1,3,-1
 344 778 l 1,4,-1
 248 664 l 1,0,-1
169 101 m 1,5,-1
 424 101 l 1,6,-1
 424 0 l 1,7,-1
 14 0 l 1,8,-1
 14 43 l 1,9,-1
 263 506 l 1,10,-1
 33 506 l 1,11,-1
 33 606 l 1,12,-1
 418 606 l 1,13,-1
 418 562 l 1,14,-1
 169 101 l 1,5,-1
EndSplineSet
Position2: "'cpsp' Capital Spacing lookup 0 subtable" dx=5 dy=0 dh=10 dv=0
EndChar

StartChar: Zcaron
Encoding: 381 381 127
Width: 443
Flags: MW
HStem: 0 101<169 424 169 424> 506 100<33 263 33 418> 661 120<179 179 179 182 261 265>
VStem: 14 410<0 43 43 43>
LayerCount: 2
Fore
SplineSet
179 661 m 1,0,-1
 103 781 l 1,1,-1
 182 781 l 1,2,-1
 222 720 l 1,3,-1
 261 781 l 1,4,-1
 340 781 l 1,5,-1
 265 661 l 1,6,-1
 179 661 l 1,0,-1
169 101 m 1,7,-1
 424 101 l 1,8,-1
 424 0 l 1,9,-1
 14 0 l 1,10,-1
 14 43 l 1,11,-1
 263 506 l 1,12,-1
 33 506 l 1,13,-1
 33 606 l 1,14,-1
 418 606 l 1,15,-1
 418 562 l 1,16,-1
 169 101 l 1,7,-1
EndSplineSet
Position2: "'cpsp' Capital Spacing lookup 0 subtable" dx=5 dy=0 dh=10 dv=0
EndChar

StartChar: Zdotaccent
Encoding: 379 379 128
Width: 443
Flags: MW
HStem: 0 101<169 424 169 424> 506 100<33 263 33 418> 679 102<174 269 174 269>
VStem: 174 95<679 781 679 781>
LayerCount: 2
Fore
SplineSet
174 679 m 1,0,-1
 174 781 l 1,1,-1
 269 781 l 1,2,-1
 269 679 l 1,3,-1
 174 679 l 1,0,-1
169 101 m 1,4,-1
 424 101 l 1,5,-1
 424 0 l 1,6,-1
 14 0 l 1,7,-1
 14 43 l 1,8,-1
 263 506 l 1,9,-1
 33 506 l 1,10,-1
 33 606 l 1,11,-1
 418 606 l 1,12,-1
 418 562 l 1,13,-1
 169 101 l 1,4,-1
EndSplineSet
Position2: "'cpsp' Capital Spacing lookup 0 subtable" dx=5 dy=0 dh=10 dv=0
EndChar

StartChar: a
Encoding: 97 97 129
Width: 403
Flags: MW
HStem: -11 89<155 160> 206 77<212 243> 389 87<172.5 214.5>
VStem: 12 109<114 160 114 183> 34 105<327 385.5> 243 107<179 206 206 206 283 331 331 339>
LayerCount: 2
Fore
SplineSet
35 327 m 1,0,1
 34 332 34 332 34 347 c 0,2,3
 34 405 34 405 77 440.5 c 128,-1,4
 120 476 120 476 192 476 c 0,5,6
 350 476 350 476 350 339 c 2,7,-1
 350 110 l 2,8,9
 350 79 350 79 375 79 c 2,10,-1
 396 79 l 1,11,-1
 396 4 l 1,12,13
 372 -11 372 -11 333 -11 c 0,14,15
 270 -11 270 -11 251 50 c 1,16,-1
 247 50 l 1,17,18
 224 19 224 19 198 4 c 128,-1,19
 172 -11 172 -11 141 -11 c 128,-1,20
 110 -11 110 -11 92 -5.5 c 128,-1,21
 74 0 74 0 55 13.5 c 0,22,23
 12 44.0526315789 12 44.0526315789 12 126.526315789 c 128,-1,24
 12 209 12 209 72.5 246 c 128,-1,25
 133 283 133 283 243 283 c 1,26,-1
 243 331 l 2,27,28
 243 389 243 389 194 389 c 0,29,30
 165 389 165 389 152 374.5 c 128,-1,31
 139 360 139 360 139 340 c 2,32,-1
 139 327 l 1,33,-1
 35 327 l 1,0,1
243 206 m 1,34,35
 121 206 121 206 121 130 c 0,36,37
 121 78 121 78 173 78 c 0,38,39
 209 78 209 78 226 106.5 c 128,-1,40
 243 135 243 135 243 179 c 2,41,-1
 243 206 l 1,34,35
EndSplineSet
Substitution2: "Single Substitution lookup 20 subtable" ordfeminine
Substitution2: "'aalt' Access All Alternates lookup 0 subtable" ordfeminine
EndChar

StartChar: aacute
Encoding: 225 225 130
Width: 403
Flags: MW
HStem: -11 89<155 160> 206 77<212 243> 389 87<172.5 214.5> 522 117<207 218 131 313>
VStem: 12 109<114 160 114 183> 34 105<327 385.5> 243 107<179 206 206 206 283 331 331 339>
LayerCount: 2
Fore
SplineSet
218 522 m 1,0,-1
 131 522 l 1,1,-1
 207 639 l 1,2,-1
 313 639 l 1,3,-1
 314 636 l 1,4,-1
 218 522 l 1,0,-1
35 327 m 1,5,6
 34 332 34 332 34 347 c 0,7,8
 34 405 34 405 77 440.5 c 128,-1,9
 120 476 120 476 192 476 c 0,10,11
 350 476 350 476 350 339 c 2,12,-1
 350 110 l 2,13,14
 350 79 350 79 375 79 c 2,15,-1
 396 79 l 1,16,-1
 396 4 l 1,17,18
 372 -11 372 -11 333 -11 c 0,19,20
 270 -11 270 -11 251 50 c 1,21,-1
 247 50 l 1,22,23
 224 19 224 19 198 4 c 128,-1,24
 172 -11 172 -11 141 -11 c 128,-1,25
 110 -11 110 -11 92 -5.5 c 128,-1,26
 74 0 74 0 55 13.5 c 0,27,28
 12 44.0526315789 12 44.0526315789 12 126.526315789 c 128,-1,29
 12 209 12 209 72.5 246 c 128,-1,30
 133 283 133 283 243 283 c 1,31,-1
 243 331 l 2,32,33
 243 389 243 389 194 389 c 0,34,35
 165 389 165 389 152 374.5 c 128,-1,36
 139 360 139 360 139 340 c 2,37,-1
 139 327 l 1,38,-1
 35 327 l 1,5,6
243 206 m 1,39,40
 121 206 121 206 121 130 c 0,41,42
 121 78 121 78 173 78 c 0,43,44
 209 78 209 78 226 106.5 c 128,-1,45
 243 135 243 135 243 179 c 2,46,-1
 243 206 l 1,39,40
EndSplineSet
EndChar

StartChar: abreve
Encoding: 259 259 131
Width: 403
Flags: MW
HStem: -11 89<155 160> 206 77<212 243> 389 87<172.5 214.5> 545 65<177 206 177 227.5> 545 94<73 227.5>
VStem: 12 109<114 160 114 183> 34 105<327 385.5> 243 107<179 206 206 206 283 331 331 339>
LayerCount: 2
Fore
SplineSet
310 639 m 1,0,1
 310 604 310 604 276.5 574.5 c 128,-1,2
 243 545 243 545 191 545 c 128,-1,3
 139 545 139 545 106 574 c 128,-1,4
 73 603 73 603 73 639 c 1,5,-1
 140 639 l 1,6,7
 142 629 142 629 156.5 619.5 c 128,-1,8
 171 610 171 610 191.5 610 c 128,-1,9
 212 610 212 610 227 619.5 c 128,-1,10
 242 629 242 629 244 639 c 1,11,-1
 310 639 l 1,0,1
35 327 m 1,12,13
 34 332 34 332 34 347 c 0,14,15
 34 405 34 405 77 440.5 c 128,-1,16
 120 476 120 476 192 476 c 0,17,18
 350 476 350 476 350 339 c 2,19,-1
 350 110 l 2,20,21
 350 79 350 79 375 79 c 2,22,-1
 396 79 l 1,23,-1
 396 4 l 1,24,25
 372 -11 372 -11 333 -11 c 0,26,27
 270 -11 270 -11 251 50 c 1,28,-1
 247 50 l 1,29,30
 224 19 224 19 198 4 c 128,-1,31
 172 -11 172 -11 141 -11 c 128,-1,32
 110 -11 110 -11 92 -5.5 c 128,-1,33
 74 0 74 0 55 13.5 c 0,34,35
 12 44.0526315789 12 44.0526315789 12 126.526315789 c 128,-1,36
 12 209 12 209 72.5 246 c 128,-1,37
 133 283 133 283 243 283 c 1,38,-1
 243 331 l 2,39,40
 243 389 243 389 194 389 c 0,41,42
 165 389 165 389 152 374.5 c 128,-1,43
 139 360 139 360 139 340 c 2,44,-1
 139 327 l 1,45,-1
 35 327 l 1,12,13
243 206 m 1,46,47
 121 206 121 206 121 130 c 0,48,49
 121 78 121 78 173 78 c 0,50,51
 209 78 209 78 226 106.5 c 128,-1,52
 243 135 243 135 243 179 c 2,53,-1
 243 206 l 1,46,47
EndSplineSet
EndChar

StartChar: acircumflex
Encoding: 226 226 132
Width: 403
Flags: MW
HStem: -11 89<155 160> 206 77<212 243> 389 87<172.5 214.5> 520 119<149 152 73 236 232 232 232 236 149 311> 581 58<192 192>
VStem: 12 109<114 160 114 183> 34 105<327 385.5> 243 107<179 206 206 206 283 331 331 339>
LayerCount: 2
Fore
SplineSet
192 581 m 1,0,-1
 152 520 l 1,1,-1
 73 520 l 1,2,-1
 149 639 l 1,3,-1
 236 639 l 1,4,-1
 311 520 l 1,5,-1
 232 520 l 1,6,-1
 192 581 l 1,0,-1
35 327 m 1,7,8
 34 332 34 332 34 347 c 0,9,10
 34 405 34 405 77 440.5 c 128,-1,11
 120 476 120 476 192 476 c 0,12,13
 350 476 350 476 350 339 c 2,14,-1
 350 110 l 2,15,16
 350 79 350 79 375 79 c 2,17,-1
 396 79 l 1,18,-1
 396 4 l 1,19,20
 372 -11 372 -11 333 -11 c 0,21,22
 270 -11 270 -11 251 50 c 1,23,-1
 247 50 l 1,24,25
 224 19 224 19 198 4 c 128,-1,26
 172 -11 172 -11 141 -11 c 128,-1,27
 110 -11 110 -11 92 -5.5 c 128,-1,28
 74 0 74 0 55 13.5 c 0,29,30
 12 44.0526315789 12 44.0526315789 12 126.526315789 c 128,-1,31
 12 209 12 209 72.5 246 c 128,-1,32
 133 283 133 283 243 283 c 1,33,-1
 243 331 l 2,34,35
 243 389 243 389 194 389 c 0,36,37
 165 389 165 389 152 374.5 c 128,-1,38
 139 360 139 360 139 340 c 2,39,-1
 139 327 l 1,40,-1
 35 327 l 1,7,8
243 206 m 1,41,42
 121 206 121 206 121 130 c 0,43,44
 121 78 121 78 173 78 c 0,45,46
 209 78 209 78 226 106.5 c 128,-1,47
 243 135 243 135 243 179 c 2,48,-1
 243 206 l 1,41,42
EndSplineSet
EndChar

StartChar: adieresis
Encoding: 228 228 133
Width: 403
Flags: MW
HStem: -11 89<155 160> 206 77<212 243> 389 87<172.5 214.5> 543 96<71 159 71 159 225 313 71 225>
VStem: 12 109<114 160 114 183> 34 105<327 385.5> 71 88<543 639 543 639> 225 88<543 639 543 639> 243 107<179 206 206 206 283 331 331 339>
LayerCount: 2
Fore
SplineSet
71 543 m 1,0,-1
 71 639 l 1,1,-1
 159 639 l 1,2,-1
 159 543 l 1,3,-1
 71 543 l 1,0,-1
225 543 m 1,4,-1
 225 639 l 1,5,-1
 313 639 l 1,6,-1
 313 543 l 1,7,-1
 225 543 l 1,4,-1
35 327 m 1,8,9
 34 332 34 332 34 347 c 0,10,11
 34 405 34 405 77 440.5 c 128,-1,12
 120 476 120 476 192 476 c 0,13,14
 350 476 350 476 350 339 c 2,15,-1
 350 110 l 2,16,17
 350 79 350 79 375 79 c 2,18,-1
 396 79 l 1,19,-1
 396 4 l 1,20,21
 372 -11 372 -11 333 -11 c 0,22,23
 270 -11 270 -11 251 50 c 1,24,-1
 247 50 l 1,25,26
 224 19 224 19 198 4 c 128,-1,27
 172 -11 172 -11 141 -11 c 128,-1,28
 110 -11 110 -11 92 -5.5 c 128,-1,29
 74 0 74 0 55 13.5 c 0,30,31
 12 44.0526315789 12 44.0526315789 12 126.526315789 c 128,-1,32
 12 209 12 209 72.5 246 c 128,-1,33
 133 283 133 283 243 283 c 1,34,-1
 243 331 l 2,35,36
 243 389 243 389 194 389 c 0,37,38
 165 389 165 389 152 374.5 c 128,-1,39
 139 360 139 360 139 340 c 2,40,-1
 139 327 l 1,41,-1
 35 327 l 1,8,9
243 206 m 1,42,43
 121 206 121 206 121 130 c 0,44,45
 121 78 121 78 173 78 c 0,46,47
 209 78 209 78 226 106.5 c 128,-1,48
 243 135 243 135 243 179 c 2,49,-1
 243 206 l 1,42,43
EndSplineSet
EndChar

StartChar: agrave
Encoding: 224 224 134
Width: 403
Flags: MW
HStem: -11 89<155 160> 206 77<212 243> 389 87<172.5 214.5> 522 117<165 165 165 177 71 253>
VStem: 12 109<114 160 114 183> 34 105<327 385.5> 243 107<179 206 206 206 283 331 331 339>
LayerCount: 2
Fore
SplineSet
165 522 m 1,0,-1
 70 636 l 1,1,-1
 71 639 l 1,2,-1
 177 639 l 1,3,-1
 253 522 l 1,4,-1
 165 522 l 1,0,-1
35 327 m 1,5,6
 34 332 34 332 34 347 c 0,7,8
 34 405 34 405 77 440.5 c 128,-1,9
 120 476 120 476 192 476 c 0,10,11
 350 476 350 476 350 339 c 2,12,-1
 350 110 l 2,13,14
 350 79 350 79 375 79 c 2,15,-1
 396 79 l 1,16,-1
 396 4 l 1,17,18
 372 -11 372 -11 333 -11 c 0,19,20
 270 -11 270 -11 251 50 c 1,21,-1
 247 50 l 1,22,23
 224 19 224 19 198 4 c 128,-1,24
 172 -11 172 -11 141 -11 c 128,-1,25
 110 -11 110 -11 92 -5.5 c 128,-1,26
 74 0 74 0 55 13.5 c 0,27,28
 12 44.0526315789 12 44.0526315789 12 126.526315789 c 128,-1,29
 12 209 12 209 72.5 246 c 128,-1,30
 133 283 133 283 243 283 c 1,31,-1
 243 331 l 2,32,33
 243 389 243 389 194 389 c 0,34,35
 165 389 165 389 152 374.5 c 128,-1,36
 139 360 139 360 139 340 c 2,37,-1
 139 327 l 1,38,-1
 35 327 l 1,5,6
243 206 m 1,39,40
 121 206 121 206 121 130 c 0,41,42
 121 78 121 78 173 78 c 0,43,44
 209 78 209 78 226 106.5 c 128,-1,45
 243 135 243 135 243 179 c 2,46,-1
 243 206 l 1,39,40
EndSplineSet
EndChar

StartChar: amacron
Encoding: 257 257 135
Width: 403
Flags: MW
HStem: -11 89<155 160> 206 77<212 243> 389 87<172.5 214.5> 530 76<79 305 79 305>
VStem: 12 109<114 160 114 183> 34 105<327 385.5> 79 226<530 606 530 606> 243 107<179 206 206 206 283 331 331 339>
LayerCount: 2
Fore
SplineSet
79 606 m 1,0,-1
 305 606 l 1,1,-1
 305 530 l 1,2,-1
 79 530 l 1,3,-1
 79 606 l 1,0,-1
35 327 m 1,4,5
 34 332 34 332 34 347 c 0,6,7
 34 405 34 405 77 440.5 c 128,-1,8
 120 476 120 476 192 476 c 0,9,10
 350 476 350 476 350 339 c 2,11,-1
 350 110 l 2,12,13
 350 79 350 79 375 79 c 2,14,-1
 396 79 l 1,15,-1
 396 4 l 1,16,17
 372 -11 372 -11 333 -11 c 0,18,19
 270 -11 270 -11 251 50 c 1,20,-1
 247 50 l 1,21,22
 224 19 224 19 198 4 c 128,-1,23
 172 -11 172 -11 141 -11 c 128,-1,24
 110 -11 110 -11 92 -5.5 c 128,-1,25
 74 0 74 0 55 13.5 c 0,26,27
 12 44.0526315789 12 44.0526315789 12 126.526315789 c 128,-1,28
 12 209 12 209 72.5 246 c 128,-1,29
 133 283 133 283 243 283 c 1,30,-1
 243 331 l 2,31,32
 243 389 243 389 194 389 c 0,33,34
 165 389 165 389 152 374.5 c 128,-1,35
 139 360 139 360 139 340 c 2,36,-1
 139 327 l 1,37,-1
 35 327 l 1,4,5
243 206 m 1,38,39
 121 206 121 206 121 130 c 0,40,41
 121 78 121 78 173 78 c 0,42,43
 209 78 209 78 226 106.5 c 128,-1,44
 243 135 243 135 243 179 c 2,45,-1
 243 206 l 1,38,39
EndSplineSet
EndChar

StartChar: aogonek
Encoding: 261 261 136
Width: 403
Flags: MW
HStem: -164 61<350.5 429> -11 89<155 160> -8 21G 206 77<212 243> 389 87<172.5 214.5>
VStem: 12 109<114 160 114 183> 34 105<327 385.5> 243 107<179 206 206 206 283 331 331 339> 283 146<-115.5 -103 -152 -67.5>
LayerCount: 2
Fore
SplineSet
429 -152 m 1,0,1
 398 -164 398 -164 366.5 -164 c 128,-1,2
 335 -164 335 -164 309 -145.5 c 128,-1,3
 283 -127 283 -127 283 -83.5 c 128,-1,4
 283 -40 283 -40 310 -8 c 1,5,6
 266 2 266 2 251 50 c 1,7,-1
 247 50 l 1,8,9
 224 19 224 19 198 4 c 128,-1,10
 172 -11 172 -11 141 -11 c 128,-1,11
 110 -11 110 -11 92 -5.5 c 128,-1,12
 74 0 74 0 55 13.5 c 0,13,14
 12 44.0526315789 12 44.0526315789 12 126.526315789 c 128,-1,15
 12 209 12 209 72.5 246 c 128,-1,16
 133 283 133 283 243 283 c 1,17,-1
 243 331 l 2,18,19
 243 389 243 389 194 389 c 0,20,21
 165 389 165 389 152 374.5 c 128,-1,22
 139 360 139 360 139 340 c 2,23,-1
 139 327 l 1,24,-1
 35 327 l 1,25,26
 34 332 34 332 34 347 c 0,27,28
 34 405 34 405 77 440.5 c 128,-1,29
 120 476 120 476 192 476 c 0,30,31
 350 476 350 476 350 339 c 2,32,-1
 350 110 l 2,33,34
 350 79 350 79 375 79 c 2,35,-1
 396 79 l 1,36,-1
 396 4 l 1,37,38
 370 -30 370 -30 370 -58 c 0,39,40
 370 -103 370 -103 409 -103 c 2,41,-1
 429 -103 l 1,42,-1
 429 -152 l 1,0,1
243 206 m 1,43,44
 121 206 121 206 121 130 c 0,45,46
 121 78 121 78 173 78 c 0,47,48
 209 78 209 78 226 106.5 c 128,-1,49
 243 135 243 135 243 179 c 2,50,-1
 243 206 l 1,43,44
EndSplineSet
EndChar

StartChar: aring
Encoding: 229 229 137
Width: 403
Flags: MW
HStem: -11 89<155 160> 206 77<212 243> 389 87<172.5 214.5> 496 44<180.5 203 180.5 215.5> 621 45<180.5 203>
VStem: 12 109<114 160 114 183> 34 105<327 385.5> 107 44<569.5 592.5 569.5 604.5> 232 45<569.5 592.5> 243 107<179 206 206 206 283 331 331 339>
LayerCount: 2
Fore
SplineSet
132 641 m 128,-1,1
 157 666 157 666 192.5 666 c 128,-1,2
 228 666 228 666 252.5 641 c 128,-1,3
 277 616 277 616 277 581 c 128,-1,4
 277 546 277 546 252 521 c 128,-1,5
 227 496 227 496 192 496 c 128,-1,6
 157 496 157 496 132 520.5 c 128,-1,7
 107 545 107 545 107 580.5 c 128,-1,0
 107 616 107 616 132 641 c 128,-1,1
192 621 m 128,-1,9
 175 621 175 621 163 609.5 c 128,-1,10
 151 598 151 598 151 581 c 128,-1,11
 151 564 151 564 163 552 c 128,-1,12
 175 540 175 540 192 540 c 128,-1,13
 209 540 209 540 220.5 552 c 128,-1,14
 232 564 232 564 232 581 c 128,-1,15
 232 598 232 598 220.5 609.5 c 128,-1,8
 209 621 209 621 192 621 c 128,-1,9
35 327 m 1,16,17
 34 332 34 332 34 347 c 0,18,19
 34 405 34 405 77 440.5 c 128,-1,20
 120 476 120 476 192 476 c 0,21,22
 350 476 350 476 350 339 c 2,23,-1
 350 110 l 2,24,25
 350 79 350 79 375 79 c 2,26,-1
 396 79 l 1,27,-1
 396 4 l 1,28,29
 372 -11 372 -11 333 -11 c 0,30,31
 270 -11 270 -11 251 50 c 1,32,-1
 247 50 l 1,33,34
 224 19 224 19 198 4 c 128,-1,35
 172 -11 172 -11 141 -11 c 128,-1,36
 110 -11 110 -11 92 -5.5 c 128,-1,37
 74 0 74 0 55 13.5 c 0,38,39
 12 44.0526315789 12 44.0526315789 12 126.526315789 c 128,-1,40
 12 209 12 209 72.5 246 c 128,-1,41
 133 283 133 283 243 283 c 1,42,-1
 243 331 l 2,43,44
 243 389 243 389 194 389 c 0,45,46
 165 389 165 389 152 374.5 c 128,-1,47
 139 360 139 360 139 340 c 2,48,-1
 139 327 l 1,49,-1
 35 327 l 1,16,17
243 206 m 1,50,51
 121 206 121 206 121 130 c 0,52,53
 121 78 121 78 173 78 c 0,54,55
 209 78 209 78 226 106.5 c 128,-1,56
 243 135 243 135 243 179 c 2,57,-1
 243 206 l 1,50,51
EndSplineSet
EndChar

StartChar: aringacute
Encoding: 507 507 138
Width: 442
Flags: MW
HStem: -11 89<155 160> 206 77<212 243> 389 87<172.5 214.5> 496 42<180.5 203 180.5 215.5> 617 43<180.5 203> 679 102<220 241 154 326>
VStem: 12 109<114 160 114 183> 34 105<327 385.5> 107 44<566.5 589 566.5 600.5> 232 45<566.5 589> 243 107<179 206 206 206 283 331 331 339>
LayerCount: 2
Fore
SplineSet
241 679 m 1,0,-1
 154 679 l 1,1,-1
 220 781 l 1,2,-1
 326 781 l 1,3,-1
 327 778 l 1,4,-1
 241 679 l 1,0,-1
132 636 m 128,-1,6
 157 660 157 660 192.5 660 c 128,-1,7
 228 660 228 660 252.5 635.5 c 128,-1,8
 277 611 277 611 277 577.5 c 128,-1,9
 277 544 277 544 252 520 c 128,-1,10
 227 496 227 496 192 496 c 128,-1,11
 157 496 157 496 132 520 c 128,-1,12
 107 544 107 544 107 578 c 128,-1,5
 107 612 107 612 132 636 c 128,-1,6
192 617 m 128,-1,14
 175 617 175 617 163 605.5 c 128,-1,15
 151 594 151 594 151 577.5 c 128,-1,16
 151 561 151 561 163 549.5 c 128,-1,17
 175 538 175 538 192 538 c 128,-1,18
 209 538 209 538 220.5 549.5 c 128,-1,19
 232 561 232 561 232 577.5 c 128,-1,20
 232 594 232 594 220.5 605.5 c 128,-1,13
 209 617 209 617 192 617 c 128,-1,14
35 327 m 1,21,22
 34 332 34 332 34 347 c 0,23,24
 34 405 34 405 77 440.5 c 128,-1,25
 120 476 120 476 192 476 c 0,26,27
 350 476 350 476 350 339 c 2,28,-1
 350 110 l 2,29,30
 350 79 350 79 375 79 c 2,31,-1
 396 79 l 1,32,-1
 396 4 l 1,33,34
 372 -11 372 -11 333 -11 c 0,35,36
 270 -11 270 -11 251 50 c 1,37,-1
 247 50 l 1,38,39
 224 19 224 19 198 4 c 128,-1,40
 172 -11 172 -11 141 -11 c 128,-1,41
 110 -11 110 -11 92 -5.5 c 128,-1,42
 74 0 74 0 55 13.5 c 0,43,44
 12 44.0526315789 12 44.0526315789 12 126.526315789 c 128,-1,45
 12 209 12 209 72.5 246 c 128,-1,46
 133 283 133 283 243 283 c 1,47,-1
 243 331 l 2,48,49
 243 389 243 389 194 389 c 0,50,51
 165 389 165 389 152 374.5 c 128,-1,52
 139 360 139 360 139 340 c 2,53,-1
 139 327 l 1,54,-1
 35 327 l 1,21,22
243 206 m 1,55,56
 121 206 121 206 121 130 c 0,57,58
 121 78 121 78 173 78 c 0,59,60
 209 78 209 78 226 106.5 c 128,-1,61
 243 135 243 135 243 179 c 2,62,-1
 243 206 l 1,55,56
EndSplineSet
EndChar

StartChar: atilde
Encoding: 227 227 139
Width: 403
Flags: MW
HStem: -11 89<155 160> 206 77<212 243> 389 87<172.5 214.5> 531 75<231.5 257 228 284.5> 564 75<127 151.5 99 156>
VStem: 12 109<114 160 114 183> 34 105<327 385.5> 243 107<179 206 206 206 283 331 331 339>
LayerCount: 2
Fore
SplineSet
340 639 m 1,0,1
 340 597 340 597 318 564 c 128,-1,2
 296 531 296 531 253 531 c 0,3,4
 231 531 231 531 193.5 547.5 c 128,-1,5
 156 564 156 564 136 564 c 0,6,7
 106 564 106 564 102 531 c 1,8,-1
 43 531 l 1,9,10
 43 573 43 573 65 606 c 128,-1,11
 87 639 87 639 130 639 c 0,12,13
 152 639 152 639 190 622.5 c 128,-1,14
 228 606 228 606 248 606 c 0,15,16
 277 606 277 606 282 639 c 1,17,-1
 340 639 l 1,0,1
35 327 m 1,18,19
 34 332 34 332 34 347 c 0,20,21
 34 405 34 405 77 440.5 c 128,-1,22
 120 476 120 476 192 476 c 0,23,24
 350 476 350 476 350 339 c 2,25,-1
 350 110 l 2,26,27
 350 79 350 79 375 79 c 2,28,-1
 396 79 l 1,29,-1
 396 4 l 1,30,31
 372 -11 372 -11 333 -11 c 0,32,33
 270 -11 270 -11 251 50 c 1,34,-1
 247 50 l 1,35,36
 224 19 224 19 198 4 c 128,-1,37
 172 -11 172 -11 141 -11 c 128,-1,38
 110 -11 110 -11 92 -5.5 c 128,-1,39
 74 0 74 0 55 13.5 c 0,40,41
 12 44.0526315789 12 44.0526315789 12 126.526315789 c 128,-1,42
 12 209 12 209 72.5 246 c 128,-1,43
 133 283 133 283 243 283 c 1,44,-1
 243 331 l 2,45,46
 243 389 243 389 194 389 c 0,47,48
 165 389 165 389 152 374.5 c 128,-1,49
 139 360 139 360 139 340 c 2,50,-1
 139 327 l 1,51,-1
 35 327 l 1,18,19
243 206 m 1,52,53
 121 206 121 206 121 130 c 0,54,55
 121 78 121 78 173 78 c 0,56,57
 209 78 209 78 226 106.5 c 128,-1,58
 243 135 243 135 243 179 c 2,59,-1
 243 206 l 1,52,53
EndSplineSet
EndChar

StartChar: ae
Encoding: 230 230 140
Width: 644
Flags: MW
HStem: -11 87<419.5 464 419.5 493> 206 77<232.5 263 375 499> 389 87<193 235 419.5 461.5>
VStem: 33 108<114 160 114 183> 55 104<327 385.5> 263 111<179 206 206 206 206 331> 499 111
LayerCount: 2
Fore
SplineSet
56 327 m 1,0,1
 55 332 55 332 55 347 c 0,2,3
 55 405 55 405 98 440.5 c 128,-1,4
 141 476 141 476 216 476 c 128,-1,5
 291 476 291 476 331 431 c 1,6,7
 374.5 476 374.5 476 442 476 c 0,8,9
 527 476 527 476 568.5 416.5 c 128,-1,10
 610 357 610 357 610 232 c 2,11,-1
 610 206 l 1,12,-1
 374 206 l 1,13,14
 375 141 375 141 391.5 108.5 c 128,-1,15
 408 76 408 76 440.5 76 c 0,16,17
 505 76 505 76 505 164 c 1,18,-1
 610 164 l 1,19,20
 610 78 610 78 565 33.5 c 128,-1,21
 520 -11 520 -11 446 -11 c 0,22,23
 352 -11 352 -11 307 52 c 1,24,25
 249 -11 249 -11 167 -11 c 0,26,27
 121.925925926 -11 121.925925926 -11 82 13.5 c 0,28,29
 60 27 60 27 46.5 54.5 c 128,-1,30
 33 82 33 82 33 120 c 0,31,32
 33 209 33 209 93 246 c 128,-1,33
 153 283 153 283 263 283 c 1,34,-1
 263 331 l 2,35,36
 263 389 263 389 215 389 c 0,37,38
 185 389 185 389 172 374.5 c 128,-1,39
 159 360 159 360 159 340 c 2,40,-1
 159 327 l 1,41,-1
 56 327 l 1,0,1
499 283 m 1,42,43
 499 389 499 389 442 389 c 0,44,45
 380 389 380 389 375 283 c 1,46,-1
 499 283 l 1,42,43
263 206 m 1,47,48
 141 206 141 206 141 130 c 0,49,50
 141 78 141 78 194 78 c 0,51,52
 229 78 229 78 246 106.5 c 128,-1,53
 263 135 263 135 263 179 c 2,54,-1
 263 206 l 1,47,48
EndSplineSet
EndChar

StartChar: aeacute
Encoding: 509 509 141
Width: 644
Flags: MW
HStem: -11 87<419.5 464 419.5 493> 206 77<232.5 263 375 499> 389 87<193 235 419.5 461.5> 522 117<338 349 262 444>
VStem: 33 108<114 160 114 183> 55 104<327 385.5> 263 111<179 206 206 206 206 331> 499 111
LayerCount: 2
Fore
SplineSet
349 522 m 1,0,-1
 262 522 l 1,1,-1
 338 639 l 1,2,-1
 444 639 l 1,3,-1
 445 636 l 1,4,-1
 349 522 l 1,0,-1
56 327 m 1,5,6
 55 332 55 332 55 347 c 0,7,8
 55 405 55 405 98 440.5 c 128,-1,9
 141 476 141 476 216 476 c 128,-1,10
 291 476 291 476 331 431 c 1,11,12
 374.5 476 374.5 476 442 476 c 0,13,14
 527 476 527 476 568.5 416.5 c 128,-1,15
 610 357 610 357 610 232 c 2,16,-1
 610 206 l 1,17,-1
 374 206 l 1,18,19
 375 141 375 141 391.5 108.5 c 128,-1,20
 408 76 408 76 440.5 76 c 0,21,22
 505 76 505 76 505 164 c 1,23,-1
 610 164 l 1,24,25
 610 78 610 78 565 33.5 c 128,-1,26
 520 -11 520 -11 446 -11 c 0,27,28
 352 -11 352 -11 307 52 c 1,29,30
 249 -11 249 -11 167 -11 c 0,31,32
 121.925925926 -11 121.925925926 -11 82 13.5 c 0,33,34
 60 27 60 27 46.5 54.5 c 128,-1,35
 33 82 33 82 33 120 c 0,36,37
 33 209 33 209 93 246 c 128,-1,38
 153 283 153 283 263 283 c 1,39,-1
 263 331 l 2,40,41
 263 389 263 389 215 389 c 0,42,43
 185 389 185 389 172 374.5 c 128,-1,44
 159 360 159 360 159 340 c 2,45,-1
 159 327 l 1,46,-1
 56 327 l 1,5,6
499 283 m 1,47,48
 499 389 499 389 442 389 c 0,49,50
 380 389 380 389 375 283 c 1,51,-1
 499 283 l 1,47,48
263 206 m 1,52,53
 141 206 141 206 141 130 c 0,54,55
 141 78 141 78 194 78 c 0,56,57
 229 78 229 78 246 106.5 c 128,-1,58
 263 135 263 135 263 179 c 2,59,-1
 263 206 l 1,52,53
EndSplineSet
EndChar

StartChar: b
Encoding: 98 98 142
Width: 443
Flags: MW
HStem: -11 97<235 251 199.5 303> 0 86<49 251> 57 29 379 97<239.5 251> 619 20G<49 155 155 155>
VStem: 49 106<174 216 216 248 417 639> 296 111<216 249 249 291>
LayerCount: 2
Fore
SplineSet
159 417 m 1,0,1
 172 445 172 445 200 460.5 c 128,-1,2
 228 476 228 476 263 476 c 0,3,4
 328 476 328 476 367.5 415 c 128,-1,5
 407 354 407 354 407 232 c 0,6,7
 407 110 407 110 367.5 49.5 c 128,-1,8
 328 -11 328 -11 257.5 -11 c 0,9,10
 187 -11 187 -11 152 57 c 1,11,-1
 148 57 l 1,12,-1
 137 0 l 1,13,-1
 49 0 l 1,14,-1
 49 639 l 1,15,-1
 155 639 l 1,16,-1
 155 417 l 1,17,-1
 159 417 l 1,0,1
296 249 m 2,18,19
 296 379 296 379 225.5 379 c 0,20,21
 155 379 155 379 155 248 c 2,22,-1
 155 216 l 2,23,24
 155 86 155 86 225.5 86 c 0,25,26
 296 86 296 86 296 216 c 2,27,-1
 296 249 l 2,18,19
EndSplineSet
EndChar

StartChar: c
Encoding: 99 99 143
Width: 403
Flags: MW
HStem: -11 90<188 231 188 260.5> 386 90<186.5 227>
VStem: 36 111<171 216 216 249 171 316> 266 105<143 175>
LayerCount: 2
Fore
SplineSet
371 175 m 1,0,1
 371 80 371 80 329 34.5 c 128,-1,2
 287 -11 287 -11 204 -11 c 128,-1,3
 121 -11 121 -11 78.5 48 c 128,-1,4
 36 107 36 107 36 232 c 128,-1,5
 36 357 36 357 79 416.5 c 128,-1,6
 122 476 122 476 204 476 c 0,7,8
 371 476 371 476 371 290 c 1,9,-1
 263 290 l 1,10,11
 263 386 263 386 209 386 c 0,12,13
 147 386 147 386 147 249 c 2,14,-1
 147 216 l 2,15,16
 147 146 147 146 162 112.5 c 128,-1,17
 177 79 177 79 212 79 c 0,18,19
 266 79 266 79 266 175 c 1,20,-1
 371 175 l 1,0,1
EndSplineSet
EndChar

StartChar: cacute
Encoding: 263 263 144
Width: 403
Flags: MW
HStem: -11 90<188 231 188 260.5> 386 90<186.5 227> 522 117<225 237 149 331>
VStem: 36 111<171 216 216 249 171 316> 266 105<143 175>
LayerCount: 2
Fore
SplineSet
237 522 m 1,0,-1
 149 522 l 1,1,-1
 225 639 l 1,2,-1
 331 639 l 1,3,-1
 331 636 l 1,4,-1
 237 522 l 1,0,-1
371 175 m 1,5,6
 371 80 371 80 329 34.5 c 128,-1,7
 287 -11 287 -11 204 -11 c 128,-1,8
 121 -11 121 -11 78.5 48 c 128,-1,9
 36 107 36 107 36 232 c 128,-1,10
 36 357 36 357 79 416.5 c 128,-1,11
 122 476 122 476 204 476 c 0,12,13
 371 476 371 476 371 290 c 1,14,-1
 263 290 l 1,15,16
 263 386 263 386 209 386 c 0,17,18
 147 386 147 386 147 249 c 2,19,-1
 147 216 l 2,20,21
 147 146 147 146 162 112.5 c 128,-1,22
 177 79 177 79 212 79 c 0,23,24
 266 79 266 79 266 175 c 1,25,-1
 371 175 l 1,5,6
EndSplineSet
EndChar

StartChar: ccaron
Encoding: 269 269 145
Width: 403
Flags: MW
HStem: -11 90<188 231 188 260.5> 386 90<186.5 227> 520 119<167 171 249 254 167 167>
VStem: 36 111<171 216 216 249 171 316> 266 105<143 175>
LayerCount: 2
Fore
SplineSet
91 639 m 1,0,-1
 171 639 l 1,1,-1
 210 578 l 1,2,-1
 249 639 l 1,3,-1
 329 639 l 1,4,-1
 254 520 l 1,5,-1
 167 520 l 1,6,-1
 91 639 l 1,0,-1
371 175 m 1,7,8
 371 80 371 80 329 34.5 c 128,-1,9
 287 -11 287 -11 204 -11 c 128,-1,10
 121 -11 121 -11 78.5 48 c 128,-1,11
 36 107 36 107 36 232 c 128,-1,12
 36 357 36 357 79 416.5 c 128,-1,13
 122 476 122 476 204 476 c 0,14,15
 371 476 371 476 371 290 c 1,16,-1
 263 290 l 1,17,18
 263 386 263 386 209 386 c 0,19,20
 147 386 147 386 147 249 c 2,21,-1
 147 216 l 2,22,23
 147 146 147 146 162 112.5 c 128,-1,24
 177 79 177 79 212 79 c 0,25,26
 266 79 266 79 266 175 c 1,27,-1
 371 175 l 1,7,8
EndSplineSet
EndChar

StartChar: ccedilla
Encoding: 231 231 146
Width: 403
Flags: MW
HStem: -161 50<191 192 192 201.5 129 222> -154 21G<129 129> -68 39<165 230> -10 21G<232 232> -7 21G<172 172> 386 90<186.5 227>
VStem: 36 111<171 216 216 249 171 316> 168.5 62.5 224 76<-97.5 -82> 263 108<290 322.5>
LayerCount: 2
Fore
SplineSet
172 -7 m 1,0,1
 36 15 36 15 36 232 c 0,2,3
 36 357 36 357 79 416.5 c 128,-1,4
 122 476 122 476 204 476 c 0,5,6
 371 476 371 476 371 290 c 1,7,-1
 263 290 l 1,8,9
 263 386 263 386 209 386 c 0,10,11
 147 386 147 386 147 249 c 2,12,-1
 147 216 l 2,13,14
 147 146 147 146 162 112.5 c 128,-1,15
 177 79 177 79 212 79 c 0,16,17
 266 79 266 79 266 175 c 1,18,-1
 371 175 l 1,19,20
 371 3 371 3 232 -10 c 1,21,-1
 230 -29 l 1,22,23
 300 -35 300 -35 300 -89 c 0,24,25
 300 -129 300 -129 270.5 -145 c 128,-1,26
 241 -161 241 -161 203.5 -161 c 128,-1,27
 166 -161 166 -161 129 -154 c 1,28,-1
 129 -111 l 1,29,-1
 192 -111 l 2,30,31
 224 -111 224 -111 224 -89.5 c 128,-1,32
 224 -68 224 -68 194 -68 c 2,33,-1
 165 -68 l 1,34,-1
 172 -7 l 1,0,1
EndSplineSet
EndChar

StartChar: ccircumflex
Encoding: 265 265 147
Width: 403
Flags: MW
HStem: -11 90<188 231 188 260.5> 386 90<186.5 227> 520 119<167 171 91 254 249 249 249 254 167 329> 581 58<210 210>
VStem: 36 111<171 216 216 249 171 316> 266 105<143 175>
LayerCount: 2
Fore
SplineSet
210 581 m 1,0,-1
 171 520 l 1,1,-1
 91 520 l 1,2,-1
 167 639 l 1,3,-1
 254 639 l 1,4,-1
 329 520 l 1,5,-1
 249 520 l 1,6,-1
 210 581 l 1,0,-1
371 175 m 1,7,8
 371 80 371 80 329 34.5 c 128,-1,9
 287 -11 287 -11 204 -11 c 128,-1,10
 121 -11 121 -11 78.5 48 c 128,-1,11
 36 107 36 107 36 232 c 128,-1,12
 36 357 36 357 79 416.5 c 128,-1,13
 122 476 122 476 204 476 c 0,14,15
 371 476 371 476 371 290 c 1,16,-1
 263 290 l 1,17,18
 263 386 263 386 209 386 c 0,19,20
 147 386 147 386 147 249 c 2,21,-1
 147 216 l 2,22,23
 147 146 147 146 162 112.5 c 128,-1,24
 177 79 177 79 212 79 c 0,25,26
 266 79 266 79 266 175 c 1,27,-1
 371 175 l 1,7,8
EndSplineSet
EndChar

StartChar: cdotaccent
Encoding: 267 267 148
Width: 403
Flags: MW
HStem: -11 90<188 231 188 260.5> 386 90<186.5 227> 537 102<163 257 163 257>
VStem: 36 111<171 216 216 249 171 316> 163 94<537 639 537 639> 266 105<143 175>
LayerCount: 2
Fore
SplineSet
163 639 m 1,0,-1
 257 639 l 1,1,-1
 257 537 l 1,2,-1
 163 537 l 1,3,-1
 163 639 l 1,0,-1
371 175 m 1,4,5
 371 80 371 80 329 34.5 c 128,-1,6
 287 -11 287 -11 204 -11 c 128,-1,7
 121 -11 121 -11 78.5 48 c 128,-1,8
 36 107 36 107 36 232 c 128,-1,9
 36 357 36 357 79 416.5 c 128,-1,10
 122 476 122 476 204 476 c 0,11,12
 371 476 371 476 371 290 c 1,13,-1
 263 290 l 1,14,15
 263 386 263 386 209 386 c 0,16,17
 147 386 147 386 147 249 c 2,18,-1
 147 216 l 2,19,20
 147 146 147 146 162 112.5 c 128,-1,21
 177 79 177 79 212 79 c 0,22,23
 266 79 266 79 266 175 c 1,24,-1
 371 175 l 1,4,5
EndSplineSet
EndChar

StartChar: d
Encoding: 100 100 149
Width: 443
Flags: MW
HStem: -11 97<191.5 208> 0 86<191.5 394 191.5 306> 379 38 379 97<191.5 203.5 139 243> 619 20G<288 394 394 394>
VStem: 36 111<174 216 216 249 174 317.5> 288 106<216 248 248 289.5 417 639 0 639>
LayerCount: 2
Fore
SplineSet
295 57 m 1,0,-1
 291 57 l 1,1,2
 256 -11 256 -11 185.5 -11 c 0,3,4
 115 -11 115 -11 75.5 49.5 c 128,-1,5
 36 110 36 110 36 232 c 0,6,7
 36 354 36 354 75.5 415 c 128,-1,8
 115 476 115 476 180 476 c 0,9,10
 215 476 215 476 243 460.5 c 128,-1,11
 271 445 271 445 284 417 c 1,12,-1
 288 417 l 1,13,-1
 288 639 l 1,14,-1
 394 639 l 1,15,-1
 394 0 l 1,16,-1
 306 0 l 1,17,-1
 295 57 l 1,0,-1
288 248 m 2,18,19
 288 379 288 379 217.5 379 c 0,20,21
 147 379 147 379 147 249 c 2,22,-1
 147 216 l 2,23,24
 147 86 147 86 217.5 86 c 0,25,26
 288 86 288 86 288 216 c 2,27,-1
 288 248 l 2,18,19
EndSplineSet
EndChar

StartChar: eth
Encoding: 240 240 150
Width: 443
Flags: MW
HStem: -11 90<194.5 249.5 194.5 284> 386 90<194.5 203.5 147.5 249.5> 452 20G<243 243> 521 63 521 118 540 67 587 20
VStem: 36 111<171 216 216 249 171 312> 297 111<216 249 249 294>
LayerCount: 2
Fore
SplineSet
162 587 m 1,0,1
 142 609 142 609 115 636 c 1,2,-1
 117 639 l 1,3,-1
 228 639 l 1,4,5
 240 629 240 629 272 597 c 1,6,-1
 387 607 l 1,7,-1
 387 543 l 1,8,-1
 321 537 l 1,9,10
 408 408 408 408 408 232 c 0,11,12
 408 108 408 108 362 48.5 c 128,-1,13
 316 -11 316 -11 222 -11 c 128,-1,14
 128 -11 128 -11 82 48.5 c 128,-1,15
 36 108 36 108 36 229 c 128,-1,16
 36 350 36 350 79 413 c 128,-1,17
 122 476 122 476 197 476 c 0,18,19
 217 476 217 476 240 469 c 1,20,-1
 243 472 l 1,21,22
 231 494 231 494 210 526 c 1,23,-1
 95 516 l 1,24,-1
 95 581 l 1,25,-1
 162 587 l 1,0,1
297 249 m 2,26,27
 297 319 297 319 279.5 352.5 c 128,-1,28
 262 386 262 386 222 386 c 128,-1,29
 182 386 182 386 164.5 352.5 c 128,-1,30
 147 319 147 319 147 249 c 2,31,-1
 147 216 l 2,32,33
 147 146 147 146 164.5 112.5 c 128,-1,34
 182 79 182 79 222 79 c 128,-1,35
 262 79 262 79 279.5 112.5 c 128,-1,36
 297 146 297 146 297 216 c 2,37,-1
 297 249 l 2,26,27
EndSplineSet
EndChar

StartChar: dcaron
Encoding: 271 271 151
Width: 521
Flags: MW
HStem: -11 97<191.5 208> 0 86<191.5 394 191.5 306> 379 38 379 97<191.5 203.5 139 243> 485 121<422 470 422 544> 485 154<288 470 288 422>
VStem: 36 111<174 216 216 249 174 317.5> 288 106<216 248 248 289.5 417 639 0 639> 422 122<496 606 496 606 496 606>
LayerCount: 2
Fore
SplineSet
295 57 m 1,0,-1
 291 57 l 1,1,2
 256 -11 256 -11 185.5 -11 c 0,3,4
 115 -11 115 -11 75.5 49.5 c 128,-1,5
 36 110 36 110 36 232 c 0,6,7
 36 354 36 354 75.5 415 c 128,-1,8
 115 476 115 476 180 476 c 0,9,10
 215 476 215 476 243 460.5 c 128,-1,11
 271 445 271 445 284 417 c 1,12,-1
 288 417 l 1,13,-1
 288 639 l 1,14,-1
 394 639 l 1,15,-1
 394 0 l 1,16,-1
 306 0 l 1,17,-1
 295 57 l 1,0,-1
422 347 m 1,18,-1
 470 485 l 1,19,-1
 422 485 l 1,20,-1
 422 606 l 1,21,-1
 544 606 l 1,22,-1
 544 496 l 1,23,-1
 485 347 l 1,24,-1
 422 347 l 1,18,-1
288 248 m 2,25,26
 288 379 288 379 217.5 379 c 0,27,28
 147 379 147 379 147 249 c 2,29,-1
 147 216 l 2,30,31
 147 86 147 86 217.5 86 c 0,32,33
 288 86 288 86 288 216 c 2,34,-1
 288 248 l 2,25,26
EndSplineSet
EndChar

StartChar: dcroat
Encoding: 273 273 152
Width: 446
Flags: MW
HStem: -11 97<191.5 208> 0 86<191.5 394 191.5 306> 379 38 379 97<191.5 203.5 139 243> 515 77<171 288 171 288 394 442> 515 124<171 394 171 394 288 442 288 394>
VStem: 36 111<174 216 216 249 174 317.5> 288 106<216 248 248 289.5 417 515 0 515 592 639>
LayerCount: 2
Fore
SplineSet
442 592 m 1,0,-1
 442 515 l 1,1,-1
 394 515 l 1,2,-1
 394 0 l 1,3,-1
 306 0 l 1,4,-1
 295 57 l 1,5,-1
 291 57 l 1,6,7
 256 -11 256 -11 185.5 -11 c 0,8,9
 115 -11 115 -11 75.5 49.5 c 128,-1,10
 36 110 36 110 36 232 c 0,11,12
 36 354 36 354 75.5 415 c 128,-1,13
 115 476 115 476 180 476 c 0,14,15
 215 476 215 476 243 460.5 c 128,-1,16
 271 445 271 445 284 417 c 1,17,-1
 288 417 l 1,18,-1
 288 515 l 1,19,-1
 171 515 l 1,20,-1
 171 592 l 1,21,-1
 288 592 l 1,22,-1
 288 639 l 1,23,-1
 394 639 l 1,24,-1
 394 592 l 1,25,-1
 442 592 l 1,0,-1
288 248 m 2,26,27
 288 379 288 379 217.5 379 c 0,28,29
 147 379 147 379 147 249 c 2,30,-1
 147 216 l 2,31,32
 147 86 147 86 217.5 86 c 0,33,34
 288 86 288 86 288 216 c 2,35,-1
 288 248 l 2,26,27
EndSplineSet
EndChar

StartChar: e
Encoding: 101 101 153
Width: 403
Flags: MW
HStem: -11 87<183.5 228 183.5 257> 206 77<139 263 139 374 138 263> 389 87<183.5 225.5>
VStem: 27 111<206 206 206 316> 263 111
LayerCount: 2
Fore
SplineSet
374 164 m 1,0,1
 374 78 374 78 329 33.5 c 128,-1,2
 284 -11 284 -11 210 -11 c 0,3,4
 27 -11 27 -11 27 232.5 c 128,-1,5
 27 476 27 476 206 476 c 0,6,7
 291 476 291 476 332.5 416.5 c 128,-1,8
 374 357 374 357 374 232 c 2,9,-1
 374 206 l 1,10,-1
 138 206 l 1,11,12
 139 141 139 141 155.5 108.5 c 128,-1,13
 172 76 172 76 204.5 76 c 0,14,15
 269 76 269 76 269 164 c 1,16,-1
 374 164 l 1,0,1
263 283 m 1,17,18
 263 389 263 389 206 389 c 0,19,20
 144 389 144 389 139 283 c 1,21,-1
 263 283 l 1,17,18
EndSplineSet
EndChar

StartChar: eacute
Encoding: 233 233 154
Width: 403
Flags: MW
HStem: -11 87<183.5 228 183.5 257> 206 77<139 263 139 374 138 263> 389 87<183.5 225.5> 522 117<217 228 141 323>
VStem: 27 111<206 206 206 316> 263 111
LayerCount: 2
Fore
SplineSet
228 522 m 1,0,-1
 141 522 l 1,1,-1
 217 639 l 1,2,-1
 323 639 l 1,3,-1
 324 636 l 1,4,-1
 228 522 l 1,0,-1
374 164 m 1,5,6
 374 78 374 78 329 33.5 c 128,-1,7
 284 -11 284 -11 210 -11 c 0,8,9
 27 -11 27 -11 27 232.5 c 128,-1,10
 27 476 27 476 206 476 c 0,11,12
 291 476 291 476 332.5 416.5 c 128,-1,13
 374 357 374 357 374 232 c 2,14,-1
 374 206 l 1,15,-1
 138 206 l 1,16,17
 139 141 139 141 155.5 108.5 c 128,-1,18
 172 76 172 76 204.5 76 c 0,19,20
 269 76 269 76 269 164 c 1,21,-1
 374 164 l 1,5,6
263 283 m 1,22,23
 263 389 263 389 206 389 c 0,24,25
 144 389 144 389 139 283 c 1,26,-1
 263 283 l 1,22,23
EndSplineSet
EndChar

StartChar: ebreve
Encoding: 277 277 155
Width: 403
Flags: MW
HStem: -11 87<183.5 228 183.5 257> 206 77<139 263 139 374 138 263> 389 87<183.5 225.5> 545 65<187 217 187 238.5> 545 94<84 238.5>
VStem: 27 111<206 206 206 316> 263 111
LayerCount: 2
Fore
SplineSet
320 639 m 1,0,1
 320 603 320 603 287 574 c 128,-1,2
 254 545 254 545 202 545 c 128,-1,3
 150 545 150 545 117 574 c 128,-1,4
 84 603 84 603 84 639 c 1,5,-1
 149 639 l 1,6,7
 152 629 152 629 166.5 619.5 c 128,-1,8
 181 610 181 610 202 610 c 128,-1,9
 223 610 223 610 238 619.5 c 128,-1,10
 253 629 253 629 255 639 c 1,11,-1
 320 639 l 1,0,1
374 164 m 1,12,13
 374 78 374 78 329 33.5 c 128,-1,14
 284 -11 284 -11 210 -11 c 0,15,16
 27 -11 27 -11 27 232.5 c 128,-1,17
 27 476 27 476 206 476 c 0,18,19
 291 476 291 476 332.5 416.5 c 128,-1,20
 374 357 374 357 374 232 c 2,21,-1
 374 206 l 1,22,-1
 138 206 l 1,23,24
 139 141 139 141 155.5 108.5 c 128,-1,25
 172 76 172 76 204.5 76 c 0,26,27
 269 76 269 76 269 164 c 1,28,-1
 374 164 l 1,12,13
263 283 m 1,29,30
 263 389 263 389 206 389 c 0,31,32
 144 389 144 389 139 283 c 1,33,-1
 263 283 l 1,29,30
EndSplineSet
EndChar

StartChar: ecaron
Encoding: 283 283 156
Width: 403
Flags: MW
HStem: -11 87<183.5 228 183.5 257> 206 77<139 263 139 374 138 263> 389 87<183.5 225.5> 520 119<159 163 241 246 159 159>
VStem: 27 111<206 206 206 316> 263 111
LayerCount: 2
Fore
SplineSet
83 639 m 1,0,-1
 163 639 l 1,1,-1
 202 578 l 1,2,-1
 241 639 l 1,3,-1
 321 639 l 1,4,-1
 246 520 l 1,5,-1
 159 520 l 1,6,-1
 83 639 l 1,0,-1
374 164 m 1,7,8
 374 78 374 78 329 33.5 c 128,-1,9
 284 -11 284 -11 210 -11 c 0,10,11
 27 -11 27 -11 27 232.5 c 128,-1,12
 27 476 27 476 206 476 c 0,13,14
 291 476 291 476 332.5 416.5 c 128,-1,15
 374 357 374 357 374 232 c 2,16,-1
 374 206 l 1,17,-1
 138 206 l 1,18,19
 139 141 139 141 155.5 108.5 c 128,-1,20
 172 76 172 76 204.5 76 c 0,21,22
 269 76 269 76 269 164 c 1,23,-1
 374 164 l 1,7,8
263 283 m 1,24,25
 263 389 263 389 206 389 c 0,26,27
 144 389 144 389 139 283 c 1,28,-1
 263 283 l 1,24,25
EndSplineSet
EndChar

StartChar: ecircumflex
Encoding: 234 234 157
Width: 403
Flags: MW
HStem: -11 87<183.5 228 183.5 257> 206 77<139 263 139 374 138 263> 389 87<183.5 225.5> 520 119<159 163 83 246 241 241 241 246 159 321> 581 58<202 202>
VStem: 27 111<206 206 206 316> 263 111
LayerCount: 2
Fore
SplineSet
202 581 m 1,0,-1
 163 520 l 1,1,-1
 83 520 l 1,2,-1
 159 639 l 1,3,-1
 246 639 l 1,4,-1
 321 520 l 1,5,-1
 241 520 l 1,6,-1
 202 581 l 1,0,-1
374 164 m 1,7,8
 374 78 374 78 329 33.5 c 128,-1,9
 284 -11 284 -11 210 -11 c 0,10,11
 27 -11 27 -11 27 232.5 c 128,-1,12
 27 476 27 476 206 476 c 0,13,14
 291 476 291 476 332.5 416.5 c 128,-1,15
 374 357 374 357 374 232 c 2,16,-1
 374 206 l 1,17,-1
 138 206 l 1,18,19
 139 141 139 141 155.5 108.5 c 128,-1,20
 172 76 172 76 204.5 76 c 0,21,22
 269 76 269 76 269 164 c 1,23,-1
 374 164 l 1,7,8
263 283 m 1,24,25
 263 389 263 389 206 389 c 0,26,27
 144 389 144 389 139 283 c 1,28,-1
 263 283 l 1,24,25
EndSplineSet
EndChar

StartChar: edieresis
Encoding: 235 235 158
Width: 403
Flags: MW
HStem: -11 87<183.5 228 183.5 257> 206 77<139 263 139 374 138 263> 389 87<183.5 225.5> 543 96<80 169 80 169 235 324 80 235>
VStem: 27 111<206 206 206 316> 80 89<543 639 543 639> 235 89<543 639 543 639> 263 111
LayerCount: 2
Fore
SplineSet
80 543 m 1,0,-1
 80 639 l 1,1,-1
 169 639 l 1,2,-1
 169 543 l 1,3,-1
 80 543 l 1,0,-1
235 543 m 1,4,-1
 235 639 l 1,5,-1
 324 639 l 1,6,-1
 324 543 l 1,7,-1
 235 543 l 1,4,-1
374 164 m 1,8,9
 374 78 374 78 329 33.5 c 128,-1,10
 284 -11 284 -11 210 -11 c 0,11,12
 27 -11 27 -11 27 232.5 c 128,-1,13
 27 476 27 476 206 476 c 0,14,15
 291 476 291 476 332.5 416.5 c 128,-1,16
 374 357 374 357 374 232 c 2,17,-1
 374 206 l 1,18,-1
 138 206 l 1,19,20
 139 141 139 141 155.5 108.5 c 128,-1,21
 172 76 172 76 204.5 76 c 0,22,23
 269 76 269 76 269 164 c 1,24,-1
 374 164 l 1,8,9
263 283 m 1,25,26
 263 389 263 389 206 389 c 0,27,28
 144 389 144 389 139 283 c 1,29,-1
 263 283 l 1,25,26
EndSplineSet
EndChar

StartChar: edotaccent
Encoding: 279 279 159
Width: 403
Flags: MW
HStem: -11 87<183.5 228 183.5 257> 206 77<139 263 139 374 138 263> 389 87<183.5 225.5> 537 102<155 249 155 249>
VStem: 27 111<206 206 206 316> 155 94<537 639 537 639> 263 111
LayerCount: 2
Fore
SplineSet
155 639 m 1,0,-1
 249 639 l 1,1,-1
 249 537 l 1,2,-1
 155 537 l 1,3,-1
 155 639 l 1,0,-1
374 164 m 1,4,5
 374 78 374 78 329 33.5 c 128,-1,6
 284 -11 284 -11 210 -11 c 0,7,8
 27 -11 27 -11 27 232.5 c 128,-1,9
 27 476 27 476 206 476 c 0,10,11
 291 476 291 476 332.5 416.5 c 128,-1,12
 374 357 374 357 374 232 c 2,13,-1
 374 206 l 1,14,-1
 138 206 l 1,15,16
 139 141 139 141 155.5 108.5 c 128,-1,17
 172 76 172 76 204.5 76 c 0,18,19
 269 76 269 76 269 164 c 1,20,-1
 374 164 l 1,4,5
263 283 m 1,21,22
 263 389 263 389 206 389 c 0,23,24
 144 389 144 389 139 283 c 1,25,-1
 263 283 l 1,21,22
EndSplineSet
EndChar

StartChar: egrave
Encoding: 232 232 160
Width: 403
Flags: MW
HStem: -11 87<183.5 228 183.5 257> 206 77<139 263 139 374 138 263> 389 87<183.5 225.5> 522 117<175 175 175 187 80 263>
VStem: 27 111<206 206 206 316> 263 111
LayerCount: 2
Fore
SplineSet
175 522 m 1,0,-1
 80 636 l 1,1,-1
 80 639 l 1,2,-1
 187 639 l 1,3,-1
 263 522 l 1,4,-1
 175 522 l 1,0,-1
374 164 m 1,5,6
 374 78 374 78 329 33.5 c 128,-1,7
 284 -11 284 -11 210 -11 c 0,8,9
 27 -11 27 -11 27 232.5 c 128,-1,10
 27 476 27 476 206 476 c 0,11,12
 291 476 291 476 332.5 416.5 c 128,-1,13
 374 357 374 357 374 232 c 2,14,-1
 374 206 l 1,15,-1
 138 206 l 1,16,17
 139 141 139 141 155.5 108.5 c 128,-1,18
 172 76 172 76 204.5 76 c 0,19,20
 269 76 269 76 269 164 c 1,21,-1
 374 164 l 1,5,6
263 283 m 1,22,23
 263 389 263 389 206 389 c 0,24,25
 144 389 144 389 139 283 c 1,26,-1
 263 283 l 1,22,23
EndSplineSet
EndChar

StartChar: emacron
Encoding: 275 275 161
Width: 403
Flags: MW
HStem: -11 87<183.5 228 183.5 257> 206 77<139 263 139 374 138 263> 389 87<183.5 225.5> 530 76<89 315 89 315>
VStem: 27 111<206 206 206 316> 89 226<530 606 530 606> 263 111
LayerCount: 2
Fore
SplineSet
89 606 m 1,0,-1
 315 606 l 1,1,-1
 315 530 l 1,2,-1
 89 530 l 1,3,-1
 89 606 l 1,0,-1
374 164 m 1,4,5
 374 78 374 78 329 33.5 c 128,-1,6
 284 -11 284 -11 210 -11 c 0,7,8
 27 -11 27 -11 27 232.5 c 128,-1,9
 27 476 27 476 206 476 c 0,10,11
 291 476 291 476 332.5 416.5 c 128,-1,12
 374 357 374 357 374 232 c 2,13,-1
 374 206 l 1,14,-1
 138 206 l 1,15,16
 139 141 139 141 155.5 108.5 c 128,-1,17
 172 76 172 76 204.5 76 c 0,18,19
 269 76 269 76 269 164 c 1,20,-1
 374 164 l 1,4,5
263 283 m 1,21,22
 263 389 263 389 206 389 c 0,23,24
 144 389 144 389 139 283 c 1,25,-1
 263 283 l 1,21,22
EndSplineSet
EndChar

StartChar: eogonek
Encoding: 281 281 162
Width: 403
Flags: MW
HStem: -164 61<241 319> -11 87 206 77<139 263 139 374 138 263> 389 87<183.5 225.5>
VStem: 27 111<206 206 206 316> 173 146<-114.5 -103 -151 -67.5> 263 111
LayerCount: 2
Fore
SplineSet
374 206 m 1,0,-1
 138 206 l 1,1,2
 139 141 139 141 155.5 108.5 c 128,-1,3
 172 76 172 76 204.5 76 c 0,4,5
 269 76 269 76 269 164 c 1,6,-1
 374 164 l 1,7,8
 374 44 374 44 286 4 c 1,9,10
 260 -27 260 -27 260 -51.5 c 0,11,12
 260 -103 260 -103 300 -103 c 2,13,-1
 319 -103 l 1,14,-1
 319 -151 l 1,15,16
 287 -164 287 -164 256.5 -164 c 128,-1,17
 226 -164 226 -164 199.5 -145 c 128,-1,18
 173 -126 173 -126 173 -84.5 c 128,-1,19
 173 -43 173 -43 198 -11 c 1,20,21
 27 -3 27 -3 27 236.5 c 128,-1,22
 27 476 27 476 206 476 c 0,23,24
 291 476 291 476 332.5 416.5 c 128,-1,25
 374 357 374 357 374 232 c 2,26,-1
 374 206 l 1,0,-1
263 283 m 1,27,28
 263 389 263 389 206 389 c 0,29,30
 144 389 144 389 139 283 c 1,31,-1
 263 283 l 1,27,28
EndSplineSet
EndChar

StartChar: f
Encoding: 102 102 163
Width: 241
Flags: MW
HStem: 0 21G<55 161 55 55> 376 89<8 55 8 55 161 241> 557 89<122 198 122 241>
VStem: 55 106<0 376 0 376 465 519>
LayerCount: 2
Fore
SplineSet
55 522 m 2,0,1
 55 575 55 575 80.5 610.5 c 128,-1,2
 106 646 106 646 156.5 646 c 0,3,4
 207 646 207 646 241 636 c 1,5,-1
 241 557 l 1,6,-1
 198 557 l 2,7,8
 161 557 161 557 161 519 c 2,9,-1
 161 465 l 1,10,-1
 241 465 l 1,11,-1
 241 376 l 1,12,-1
 161 376 l 1,13,-1
 161 0 l 1,14,-1
 55 0 l 1,15,-1
 55 376 l 1,16,-1
 8 376 l 1,17,-1
 8 465 l 1,18,-1
 55 465 l 1,19,-1
 55 522 l 2,0,1
EndSplineSet
EndChar

StartChar: g
Encoding: 103 103 164
Width: 443
Flags: MW
HStem: -161 81<88.5 283 164 283 283 287> 5 98<152 331 171 287> 159 79<165.5 241 197.5 219> 397 79<197.5 233.5 163.5 241>
VStem: 14 107<-50.5 -31> 36 107<123 130.5> 48 106<292.5 342 292.5 365> 286 106<292.5 339 269.5 342> 331 107<-50.5 -24 -61 103> 342 88<534.5 543>
LayerCount: 2
Fore
SplineSet
430 543 m 1,0,1
 430 447 430 447 354 424 c 1,2,3
 392 383 392 383 392 313.5 c 0,4,5
 392 244 392 244 347 201.5 c 128,-1,6
 302 159 302 159 219 159 c 2,7,-1
 175 159 l 2,8,9
 161 159 161 159 152 151 c 128,-1,10
 143 143 143 143 143 131 c 128,-1,11
 143 119 143 119 151 111 c 128,-1,12
 159 103 159 103 171 103 c 2,13,-1
 331 103 l 2,14,15
 377 103 377 103 407.5 70 c 128,-1,16
 438 37 438 37 438 -22 c 0,17,18
 438 -81 438 -81 394.5 -121 c 128,-1,19
 351 -161 351 -161 287 -161 c 2,20,-1
 117 -161 l 2,21,22
 73 -161 73 -161 43.5 -131 c 128,-1,23
 14 -101 14 -101 14 -54 c 0,24,25
 14 7 14 7 73 41 c 1,26,27
 36 64 36 64 36 110 c 0,28,29
 36 168 36 168 104 192 c 1,30,31
 48 233 48 233 48 311.5 c 0,32,33
 48 390 48 390 92.5 433 c 128,-1,34
 137 476 137 476 219 476 c 0,35,36
 263 476 263 476 297 462 c 1,37,38
 320 479 320 479 331 502.5 c 128,-1,39
 342 526 342 526 342 543 c 1,40,-1
 430 543 l 1,0,1
219 397 m 0,41,42
 154 397 154 397 154 317.5 c 0,43,44
 154 238 154 238 219 238 c 0,45,46
 252 238 252 238 269 259 c 128,-1,47
 286 280 286 280 286 317 c 0,48,49
 286 397 286 397 219 397 c 0,41,42
164 5 m 2,50,51
 146 5 146 5 133.5 -7.5 c 128,-1,52
 121 -20 121 -20 121 -38.5 c 0,53,54
 121 -57 121 -57 133 -68.5 c 128,-1,55
 145 -80 145 -80 164 -80 c 2,56,-1
 283 -80 l 2,57,58
 303 -80 303 -80 317 -68.5 c 128,-1,59
 331 -57 331 -57 331 -37.5 c 0,60,61
 331 -18 331 -18 318.5 -6.5 c 128,-1,62
 306 5 306 5 287 5 c 2,63,-1
 164 5 l 2,50,51
EndSplineSet
EndChar

StartChar: gbreve
Encoding: 287 287 165
Width: 443
Flags: MW
HStem: -161 81<88.5 283 164 283 283 287> 5 98<152 331 171 287> 159 79<165.5 241 197.5 219> 397 79<197.5 233.5 163.5 241> 545 65<206.5 236 206.5 257.5> 545 94<103 257.5>
VStem: 14 107<-50.5 -31> 36 107<123 130.5> 48 106<292.5 342 292.5 365> 286 106<292.5 339 269.5 342> 331 107<-50.5 -24 -61 103> 342 88<534.5 543>
LayerCount: 2
Fore
SplineSet
339 639 m 1,0,1
 339 603 339 603 306 574 c 128,-1,2
 273 545 273 545 221.5 545 c 0,3,4
 170 545 170 545 136.5 574.5 c 128,-1,5
 103 604 103 604 103 639 c 1,6,-1
 169 639 l 1,7,8
 171 629 171 629 186 619.5 c 128,-1,9
 201 610 201 610 221.5 610 c 0,10,11
 242 610 242 610 257 619.5 c 128,-1,12
 272 629 272 629 274 639 c 1,13,-1
 339 639 l 1,0,1
430 543 m 1,14,15
 430 447 430 447 354 424 c 1,16,17
 392 383 392 383 392 313.5 c 0,18,19
 392 244 392 244 347 201.5 c 128,-1,20
 302 159 302 159 219 159 c 2,21,-1
 175 159 l 2,22,23
 161 159 161 159 152 151 c 128,-1,24
 143 143 143 143 143 131 c 128,-1,25
 143 119 143 119 151 111 c 128,-1,26
 159 103 159 103 171 103 c 2,27,-1
 331 103 l 2,28,29
 377 103 377 103 407.5 70 c 128,-1,30
 438 37 438 37 438 -22 c 0,31,32
 438 -81 438 -81 394.5 -121 c 128,-1,33
 351 -161 351 -161 287 -161 c 2,34,-1
 117 -161 l 2,35,36
 73 -161 73 -161 43.5 -131 c 128,-1,37
 14 -101 14 -101 14 -54 c 0,38,39
 14 7 14 7 73 41 c 1,40,41
 36 64 36 64 36 110 c 0,42,43
 36 168 36 168 104 192 c 1,44,45
 48 233 48 233 48 311.5 c 0,46,47
 48 390 48 390 92.5 433 c 128,-1,48
 137 476 137 476 219 476 c 0,49,50
 263 476 263 476 297 462 c 1,51,52
 320 479 320 479 331 502.5 c 128,-1,53
 342 526 342 526 342 543 c 1,54,-1
 430 543 l 1,14,15
219 397 m 0,55,56
 154 397 154 397 154 317.5 c 0,57,58
 154 238 154 238 219 238 c 0,59,60
 252 238 252 238 269 259 c 128,-1,61
 286 280 286 280 286 317 c 0,62,63
 286 397 286 397 219 397 c 0,55,56
164 5 m 2,64,65
 146 5 146 5 133.5 -7.5 c 128,-1,66
 121 -20 121 -20 121 -38.5 c 0,67,68
 121 -57 121 -57 133 -68.5 c 128,-1,69
 145 -80 145 -80 164 -80 c 2,70,-1
 283 -80 l 2,71,72
 303 -80 303 -80 317 -68.5 c 128,-1,73
 331 -57 331 -57 331 -37.5 c 0,74,75
 331 -18 331 -18 318.5 -6.5 c 128,-1,76
 306 5 306 5 287 5 c 2,77,-1
 164 5 l 2,64,65
EndSplineSet
EndChar

StartChar: gcircumflex
Encoding: 285 285 166
Width: 443
Flags: MW
HStem: -161 81<88.5 283 164 283 283 287> 5 98<152 331 171 287> 159 79<165.5 241 197.5 219> 397 65 397 79<197.5 233.5 163.5 241> 520 23<261 430> 520 119<179 182 103 265 261 261 261 265 179 340> 581 58<222 222>
VStem: 14 107<-50.5 -31> 36 107<123 130.5> 48 106<292.5 342 292.5 365> 286 106<292.5 339 269.5 342> 331 107<-50.5 -24 -61 103> 361 69<534.5 543>
LayerCount: 2
Fore
SplineSet
222 581 m 1,0,-1
 182 520 l 1,1,-1
 103 520 l 1,2,-1
 179 639 l 1,3,-1
 265 639 l 1,4,-1
 340 520 l 1,5,-1
 261 520 l 1,6,-1
 222 581 l 1,0,-1
430 543 m 1,7,8
 430 447 430 447 354 424 c 1,9,10
 392 383 392 383 392 313.5 c 0,11,12
 392 244 392 244 347 201.5 c 128,-1,13
 302 159 302 159 219 159 c 2,14,-1
 175 159 l 2,15,16
 161 159 161 159 152 151 c 128,-1,17
 143 143 143 143 143 131 c 128,-1,18
 143 119 143 119 151 111 c 128,-1,19
 159 103 159 103 171 103 c 2,20,-1
 331 103 l 2,21,22
 377 103 377 103 407.5 70 c 128,-1,23
 438 37 438 37 438 -22 c 0,24,25
 438 -81 438 -81 394.5 -121 c 128,-1,26
 351 -161 351 -161 287 -161 c 2,27,-1
 117 -161 l 2,28,29
 73 -161 73 -161 43.5 -131 c 128,-1,30
 14 -101 14 -101 14 -54 c 0,31,32
 14 7 14 7 73 41 c 1,33,34
 36 64 36 64 36 110 c 0,35,36
 36 168 36 168 104 192 c 1,37,38
 48 233 48 233 48 311.5 c 0,39,40
 48 390 48 390 92.5 433 c 128,-1,41
 137 476 137 476 219 476 c 0,42,43
 263 476 263 476 297 462 c 1,44,45
 361 465 361 465 361 543 c 1,46,-1
 430 543 l 1,7,8
219 397 m 0,47,48
 154 397 154 397 154 317.5 c 0,49,50
 154 238 154 238 219 238 c 0,51,52
 252 238 252 238 269 259 c 128,-1,53
 286 280 286 280 286 317 c 0,54,55
 286 397 286 397 219 397 c 0,47,48
164 5 m 2,56,57
 146 5 146 5 133.5 -7.5 c 128,-1,58
 121 -20 121 -20 121 -38.5 c 0,59,60
 121 -57 121 -57 133 -68.5 c 128,-1,61
 145 -80 145 -80 164 -80 c 2,62,-1
 283 -80 l 2,63,64
 303 -80 303 -80 317 -68.5 c 128,-1,65
 331 -57 331 -57 331 -37.5 c 0,66,67
 331 -18 331 -18 318.5 -6.5 c 128,-1,68
 306 5 306 5 287 5 c 2,69,-1
 164 5 l 2,56,57
EndSplineSet
EndChar

StartChar: gcommaaccent
Encoding: 291 291 167
Width: 443
Flags: MW
HStem: -161 81<88.5 283 164 283 283 287> 5 98<152 331 171 287> 159 79<165.5 241 197.5 219> 397 79<197.5 233.5 163.5 241> 522 108<223 266 223 266 156 266>
VStem: 14 107<-50.5 -31> 36 107<123 130.5> 48 106<292.5 342 292.5 365> 156 110<522 621 621 621> 286 106<292.5 339 269.5 342> 331 107<-50.5 -24 -61 103> 342 88<534.5 543>
LayerCount: 2
Fore
SplineSet
266 630 m 1,0,-1
 266 522 l 1,1,-1
 156 522 l 1,2,-1
 156 621 l 1,3,-1
 197 705 l 1,4,-1
 255 705 l 1,5,-1
 223 630 l 1,6,-1
 266 630 l 1,0,-1
430 543 m 1,7,8
 430 447 430 447 354 424 c 1,9,10
 392 383 392 383 392 313.5 c 0,11,12
 392 244 392 244 347 201.5 c 128,-1,13
 302 159 302 159 219 159 c 2,14,-1
 175 159 l 2,15,16
 161 159 161 159 152 151 c 128,-1,17
 143 143 143 143 143 131 c 128,-1,18
 143 119 143 119 151 111 c 128,-1,19
 159 103 159 103 171 103 c 2,20,-1
 331 103 l 2,21,22
 377 103 377 103 407.5 70 c 128,-1,23
 438 37 438 37 438 -22 c 0,24,25
 438 -81 438 -81 394.5 -121 c 128,-1,26
 351 -161 351 -161 287 -161 c 2,27,-1
 117 -161 l 2,28,29
 73 -161 73 -161 43.5 -131 c 128,-1,30
 14 -101 14 -101 14 -54 c 0,31,32
 14 7 14 7 73 41 c 1,33,34
 36 64 36 64 36 110 c 0,35,36
 36 168 36 168 104 192 c 1,37,38
 48 233 48 233 48 311.5 c 0,39,40
 48 390 48 390 92.5 433 c 128,-1,41
 137 476 137 476 219 476 c 0,42,43
 263 476 263 476 297 462 c 1,44,45
 320 479 320 479 331 502.5 c 128,-1,46
 342 526 342 526 342 543 c 1,47,-1
 430 543 l 1,7,8
219 397 m 0,48,49
 154 397 154 397 154 317.5 c 0,50,51
 154 238 154 238 219 238 c 0,52,53
 252 238 252 238 269 259 c 128,-1,54
 286 280 286 280 286 317 c 0,55,56
 286 397 286 397 219 397 c 0,48,49
164 5 m 2,57,58
 146 5 146 5 133.5 -7.5 c 128,-1,59
 121 -20 121 -20 121 -38.5 c 0,60,61
 121 -57 121 -57 133 -68.5 c 128,-1,62
 145 -80 145 -80 164 -80 c 2,63,-1
 283 -80 l 2,64,65
 303 -80 303 -80 317 -68.5 c 128,-1,66
 331 -57 331 -57 331 -37.5 c 0,67,68
 331 -18 331 -18 318.5 -6.5 c 128,-1,69
 306 5 306 5 287 5 c 2,70,-1
 164 5 l 2,57,58
EndSplineSet
EndChar

StartChar: gdotaccent
Encoding: 289 289 168
Width: 443
Flags: MW
HStem: -161 81<88.5 283 164 283 283 287> 5 98<152 331 171 287> 159 79<165.5 241 197.5 219> 397 79<197.5 233.5 163.5 241> 537 102<174 269 174 269>
VStem: 14 107<-50.5 -31> 36 107<123 130.5> 48 106<292.5 342 292.5 365> 174 95<537 639 537 639> 286 106<292.5 339 269.5 342> 331 107<-50.5 -24 -61 103> 342 88<534.5 543>
LayerCount: 2
Fore
SplineSet
174 639 m 1,0,-1
 269 639 l 1,1,-1
 269 537 l 1,2,-1
 174 537 l 1,3,-1
 174 639 l 1,0,-1
430 543 m 1,4,5
 430 447 430 447 354 424 c 1,6,7
 392 383 392 383 392 313.5 c 0,8,9
 392 244 392 244 347 201.5 c 128,-1,10
 302 159 302 159 219 159 c 2,11,-1
 175 159 l 2,12,13
 161 159 161 159 152 151 c 128,-1,14
 143 143 143 143 143 131 c 128,-1,15
 143 119 143 119 151 111 c 128,-1,16
 159 103 159 103 171 103 c 2,17,-1
 331 103 l 2,18,19
 377 103 377 103 407.5 70 c 128,-1,20
 438 37 438 37 438 -22 c 0,21,22
 438 -81 438 -81 394.5 -121 c 128,-1,23
 351 -161 351 -161 287 -161 c 2,24,-1
 117 -161 l 2,25,26
 73 -161 73 -161 43.5 -131 c 128,-1,27
 14 -101 14 -101 14 -54 c 0,28,29
 14 7 14 7 73 41 c 1,30,31
 36 64 36 64 36 110 c 0,32,33
 36 168 36 168 104 192 c 1,34,35
 48 233 48 233 48 311.5 c 0,36,37
 48 390 48 390 92.5 433 c 128,-1,38
 137 476 137 476 219 476 c 0,39,40
 263 476 263 476 297 462 c 1,41,42
 320 479 320 479 331 502.5 c 128,-1,43
 342 526 342 526 342 543 c 1,44,-1
 430 543 l 1,4,5
219 397 m 0,45,46
 154 397 154 397 154 317.5 c 0,47,48
 154 238 154 238 219 238 c 0,49,50
 252 238 252 238 269 259 c 128,-1,51
 286 280 286 280 286 317 c 0,52,53
 286 397 286 397 219 397 c 0,45,46
164 5 m 2,54,55
 146 5 146 5 133.5 -7.5 c 128,-1,56
 121 -20 121 -20 121 -38.5 c 0,57,58
 121 -57 121 -57 133 -68.5 c 128,-1,59
 145 -80 145 -80 164 -80 c 2,60,-1
 283 -80 l 2,61,62
 303 -80 303 -80 317 -68.5 c 128,-1,63
 331 -57 331 -57 331 -37.5 c 0,64,65
 331 -18 331 -18 318.5 -6.5 c 128,-1,66
 306 5 306 5 287 5 c 2,67,-1
 164 5 l 2,54,55
EndSplineSet
EndChar

StartChar: h
Encoding: 104 104 169
Width: 443
Flags: MW
HStem: 0 21G<49 155 49 49 288 394 288 288> 379 97<243.5 246> 619 20G<49 155 155 155>
VStem: 49 106<0 286 415 639> 288 106<0 297 297 326 0 327>
LayerCount: 2
Fore
SplineSet
158 415 m 1,0,1
 201 476 201 476 271 476 c 0,2,3
 394 476 394 476 394 326 c 2,4,-1
 394 0 l 1,5,-1
 288 0 l 1,6,-1
 288 297 l 2,7,8
 288 379 288 379 227 379 c 0,9,10
 196 379 196 379 175.5 352.5 c 128,-1,11
 155 326 155 326 155 286 c 2,12,-1
 155 0 l 1,13,-1
 49 0 l 1,14,-1
 49 639 l 1,15,-1
 155 639 l 1,16,-1
 155 415 l 1,17,-1
 158 415 l 1,0,1
EndSplineSet
EndChar

StartChar: hbar
Encoding: 295 295 170
Width: 443
Flags: MW
HStem: 0 21G<49 155 49 49 288 394 288 288> 379 97<243.5 246> 515 77<0 49 0 49 155 271> 515 124<0 155 0 155 49 271 49 155>
VStem: 49 106<0 286 415 515 592 639> 288 106<0 297 297 326 0 327>
LayerCount: 2
Fore
SplineSet
271 592 m 1,0,-1
 271 515 l 1,1,-1
 155 515 l 1,2,-1
 155 415 l 1,3,-1
 158 415 l 1,4,5
 201 476 201 476 271 476 c 0,6,7
 394 476 394 476 394 326 c 2,8,-1
 394 0 l 1,9,-1
 288 0 l 1,10,-1
 288 297 l 2,11,12
 288 379 288 379 227 379 c 0,13,14
 196 379 196 379 175.5 352.5 c 128,-1,15
 155 326 155 326 155 286 c 2,16,-1
 155 0 l 1,17,-1
 49 0 l 1,18,-1
 49 515 l 1,19,-1
 0 515 l 1,20,-1
 0 592 l 1,21,-1
 49 592 l 1,22,-1
 49 639 l 1,23,-1
 155 639 l 1,24,-1
 155 592 l 1,25,-1
 271 592 l 1,0,-1
EndSplineSet
EndChar

StartChar: hcircumflex
Encoding: 293 293 171
Width: 443
Flags: MW
HStem: 0 21G<49 155 49 49 288 394 288 288> 379 97<243.5 246> 619 20G<49 155 155 155> 661 120<57 60 -19 143 139 139 139 143 57 218>
VStem: 49 106<0 286 415 639> 288 106<0 297 297 326 0 327>
LayerCount: 2
Fore
SplineSet
100 722 m 1,0,-1
 60 661 l 1,1,-1
 -19 661 l 1,2,-1
 57 781 l 1,3,-1
 143 781 l 1,4,-1
 218 661 l 1,5,-1
 139 661 l 1,6,-1
 100 722 l 1,0,-1
158 415 m 1,7,8
 201 476 201 476 271 476 c 0,9,10
 394 476 394 476 394 326 c 2,11,-1
 394 0 l 1,12,-1
 288 0 l 1,13,-1
 288 297 l 2,14,15
 288 379 288 379 227 379 c 0,16,17
 196 379 196 379 175.5 352.5 c 128,-1,18
 155 326 155 326 155 286 c 2,19,-1
 155 0 l 1,20,-1
 49 0 l 1,21,-1
 49 639 l 1,22,-1
 155 639 l 1,23,-1
 155 415 l 1,24,-1
 158 415 l 1,7,8
EndSplineSet
EndChar

StartChar: i
Encoding: 105 105 172
Width: 202
Flags: MW
HStem: 0 21G<48 154 48 48> 445 20G<48 154 154 154> 543 96<48 154 48 154>
VStem: 48 106<0 465 0 465 543 639>
LayerCount: 2
Fore
SplineSet
48 639 m 1,0,-1
 154 639 l 1,1,-1
 154 543 l 1,2,-1
 48 543 l 1,3,-1
 48 639 l 1,0,-1
48 465 m 1,4,-1
 154 465 l 1,5,-1
 154 0 l 1,6,-1
 48 0 l 1,7,-1
 48 465 l 1,4,-1
EndSplineSet
EndChar

StartChar: dotlessi
Encoding: 305 305 173
Width: 202
Flags: MW
HStem: 0 21G<48 154 48 48> 445 20G<48 154 154 154>
VStem: 48 106<0 465 0 465>
LayerCount: 2
Fore
SplineSet
48 465 m 1,0,-1
 154 465 l 1,1,-1
 154 0 l 1,2,-1
 48 0 l 1,3,-1
 48 465 l 1,0,-1
EndSplineSet
EndChar

StartChar: iacute
Encoding: 237 237 174
Width: 202
Flags: MW
HStem: 0 21G<48 48 48 154> 445 20G<48 154 154 154> 522 117<116 128 40 222>
VStem: 48 106<0 465 0 465>
LayerCount: 2
Fore
SplineSet
128 522 m 1,0,-1
 40 522 l 1,1,-1
 116 639 l 1,2,-1
 222 639 l 1,3,-1
 223 636 l 1,4,-1
 128 522 l 1,0,-1
48 0 m 1,5,-1
 48 465 l 1,6,-1
 154 465 l 1,7,-1
 154 0 l 1,8,-1
 48 0 l 1,5,-1
EndSplineSet
EndChar

StartChar: ibreve
Encoding: 301 301 175
Width: 202
Flags: MW
HStem: 0 21G<48 154 48 48> 445 20G<48 154 154 154> 545 65<86.5 116 86.5 137.5> 545 94<-18 137.5>
VStem: 48 106<0 465 0 465>
LayerCount: 2
Fore
SplineSet
219 639 m 1,0,1
 219 603 219 603 186 574 c 128,-1,2
 153 545 153 545 101 545 c 128,-1,3
 49 545 49 545 15.5 574.5 c 128,-1,4
 -18 604 -18 604 -18 639 c 1,5,-1
 49 639 l 1,6,7
 51 629 51 629 66 619.5 c 128,-1,8
 81 610 81 610 101.5 610 c 0,9,10
 122 610 122 610 137 619.5 c 128,-1,11
 152 629 152 629 154 639 c 1,12,-1
 219 639 l 1,0,1
48 465 m 1,13,-1
 154 465 l 1,14,-1
 154 0 l 1,15,-1
 48 0 l 1,16,-1
 48 465 l 1,13,-1
EndSplineSet
EndChar

StartChar: icircumflex
Encoding: 238 238 176
Width: 202
Flags: MW
HStem: 0 21G<48 154 48 48> 445 20G<48 154 154 154> 520 119<58 62 -19 145 141 141 141 145 58 220> 581 58<102 102>
VStem: 48 106<0 465 0 465>
LayerCount: 2
Fore
SplineSet
102 581 m 1,0,-1
 62 520 l 1,1,-1
 -19 520 l 1,2,-1
 58 639 l 1,3,-1
 145 639 l 1,4,-1
 220 520 l 1,5,-1
 141 520 l 1,6,-1
 102 581 l 1,0,-1
48 465 m 1,7,-1
 154 465 l 1,8,-1
 154 0 l 1,9,-1
 48 0 l 1,10,-1
 48 465 l 1,7,-1
EndSplineSet
EndChar

StartChar: idieresis
Encoding: 239 239 177
Width: 202
Flags: MW
HStem: 0 21G<48 48 48 154> 445 20G<48 154 154 154> 543 96<-20 68 -20 68 134 223 -20 134>
VStem: -20 88<543 639 543 639> 48 106<0 465 0 465> 134 89<543 639 543 639>
LayerCount: 2
Fore
SplineSet
-20 543 m 1,0,-1
 -20 639 l 1,1,-1
 68 639 l 1,2,-1
 68 543 l 1,3,-1
 -20 543 l 1,0,-1
134 543 m 1,4,-1
 134 639 l 1,5,-1
 223 639 l 1,6,-1
 223 543 l 1,7,-1
 134 543 l 1,4,-1
48 0 m 1,8,-1
 48 465 l 1,9,-1
 154 465 l 1,10,-1
 154 0 l 1,11,-1
 48 0 l 1,8,-1
EndSplineSet
EndChar

StartChar: igrave
Encoding: 236 236 178
Width: 202
Flags: MW
HStem: 0 21G<48 48 48 154> 445 20G<48 154 154 154> 522 117<74 74 74 86 -20 162>
VStem: 48 106<0 465 0 465>
LayerCount: 2
Fore
SplineSet
74 522 m 1,0,-1
 -21 636 l 1,1,-1
 -20 639 l 1,2,-1
 86 639 l 1,3,-1
 162 522 l 1,4,-1
 74 522 l 1,0,-1
48 0 m 1,5,-1
 48 465 l 1,6,-1
 154 465 l 1,7,-1
 154 0 l 1,8,-1
 48 0 l 1,5,-1
EndSplineSet
EndChar

StartChar: ij
Encoding: 307 307 179
Width: 403
Flags: MW
HStem: -161 89<169 290> 0 21G<48 48 48 154> 445 20G<48 154 154 154 249 355 355 355> 543 96<48 154 48 154 249 355 48 249>
VStem: 48 106<0 465 0 465 543 639> 249 106<-29 465 543 639>
LayerCount: 2
Fore
SplineSet
48 543 m 1,0,-1
 48 639 l 1,1,-1
 154 639 l 1,2,-1
 154 543 l 1,3,-1
 48 543 l 1,0,-1
249 543 m 1,4,-1
 249 639 l 1,5,-1
 355 639 l 1,6,-1
 355 543 l 1,7,-1
 249 543 l 1,4,-1
48 0 m 1,8,-1
 48 465 l 1,9,-1
 154 465 l 1,10,-1
 154 0 l 1,11,-1
 48 0 l 1,8,-1
355 -36 m 2,12,13
 355 -90 355 -90 330.5 -125.5 c 128,-1,14
 306 -161 306 -161 254 -161 c 0,15,16
 202 -161 202 -161 169 -150 c 1,17,-1
 169 -72 l 1,18,-1
 208 -72 l 2,19,20
 249 -72 249 -72 249 -29 c 2,21,-1
 249 465 l 1,22,-1
 355 465 l 1,23,-1
 355 -36 l 2,12,13
EndSplineSet
EndChar

StartChar: imacron
Encoding: 299 299 180
Width: 202
Flags: MW
HStem: 0 21G<48 154 48 48> 445 20G<48 154 154 154> 530 76<-12 214 -12 214>
VStem: 48 106<0 465 0 465>
LayerCount: 2
Fore
SplineSet
-12 606 m 1,0,-1
 214 606 l 1,1,-1
 214 530 l 1,2,-1
 -12 530 l 1,3,-1
 -12 606 l 1,0,-1
48 465 m 1,4,-1
 154 465 l 1,5,-1
 154 0 l 1,6,-1
 48 0 l 1,7,-1
 48 465 l 1,4,-1
EndSplineSet
EndChar

StartChar: iogonek
Encoding: 303 303 181
Width: 202
Flags: MW
HStem: -168 61<108 187> -156 21G<187 187> -156 49<167 187> 0 21G<48 80 48 48 154 154> 445 20G<48 154 154 154> 537 102<54 149 54 149>
VStem: 41 86<-73.5 -67.5> 48 106<0 465> 54 95<537 639 537 639>
LayerCount: 2
Fore
SplineSet
54 537 m 1,0,-1
 54 639 l 1,1,-1
 149 639 l 1,2,-1
 149 537 l 1,3,-1
 54 537 l 1,0,-1
154 0 m 1,4,5
 127 -29 127 -29 127 -62 c 0,6,7
 127 -107 127 -107 167 -107 c 2,8,-1
 187 -107 l 1,9,-1
 187 -156 l 1,10,11
 156 -168 156 -168 124.5 -168 c 0,12,13
 93 -168 93 -168 67 -149 c 128,-1,14
 41 -130 41 -130 41 -84.5 c 0,15,16
 41 -39 41 -39 80 0 c 1,17,-1
 48 0 l 1,18,-1
 48 465 l 1,19,-1
 154 465 l 1,20,-1
 154 0 l 1,4,5
EndSplineSet
EndChar

StartChar: itilde
Encoding: 297 297 182
Width: 202
Flags: MW
HStem: 0 21G<48 154 48 48> 445 20G<48 154 154 154> 531 75<141.5 166.5 137 194> 564 75<36.5 61 8 66>
VStem: 48 106<0 465 0 465>
LayerCount: 2
Fore
SplineSet
250 639 m 1,0,1
 250 597 250 597 228 564 c 128,-1,2
 206 531 206 531 163 531 c 0,3,4
 141 531 141 531 103.5 547.5 c 128,-1,5
 66 564 66 564 46 564 c 0,6,7
 16 564 16 564 11 531 c 1,8,-1
 -48 531 l 1,9,10
 -48 573 -48 573 -26 606 c 128,-1,11
 -4 639 -4 639 39 639 c 0,12,13
 62 639 62 639 100 622.5 c 128,-1,14
 138 606 138 606 157 606 c 0,15,16
 186 606 186 606 191 639 c 1,17,-1
 250 639 l 1,0,1
48 465 m 1,18,-1
 154 465 l 1,19,-1
 154 0 l 1,20,-1
 48 0 l 1,21,-1
 48 465 l 1,18,-1
EndSplineSet
EndChar

StartChar: j
Encoding: 106 106 183
Width: 202
Flags: MW
HStem: -161 89<-33 88.5> 445 20G<48 154 154 154> 543 96<48 154 48 154>
VStem: 48 106<-29 465 543 639>
LayerCount: 2
Fore
SplineSet
48 639 m 1,0,-1
 154 639 l 1,1,-1
 154 543 l 1,2,-1
 48 543 l 1,3,-1
 48 639 l 1,0,-1
154 -36 m 2,4,5
 154 -90 154 -90 129.5 -125.5 c 128,-1,6
 105 -161 105 -161 53.5 -161 c 0,7,8
 2 -161 2 -161 -33 -150 c 1,9,-1
 -33 -72 l 1,10,-1
 6 -72 l 2,11,12
 48 -72 48 -72 48 -29 c 2,13,-1
 48 465 l 1,14,-1
 154 465 l 1,15,-1
 154 -36 l 2,4,5
EndSplineSet
EndChar

StartChar: jcircumflex
Encoding: 309 309 184
Width: 202
Flags: MW
HStem: -161 89<-33 88.5> 445 20G<48 154 154 154> 520 119<59 63 -17 147 142 142 142 147 59 221> 581 58<103 103>
VStem: 48 106<-29 465>
LayerCount: 2
Fore
SplineSet
103 581 m 1,0,-1
 63 520 l 1,1,-1
 -17 520 l 1,2,-1
 59 639 l 1,3,-1
 147 639 l 1,4,-1
 221 520 l 1,5,-1
 142 520 l 1,6,-1
 103 581 l 1,0,-1
154 -36 m 2,7,8
 154 -90 154 -90 129.5 -125.5 c 128,-1,9
 105 -161 105 -161 53.5 -161 c 0,10,11
 2 -161 2 -161 -33 -150 c 1,12,-1
 -33 -72 l 1,13,-1
 6 -72 l 2,14,15
 48 -72 48 -72 48 -29 c 2,16,-1
 48 465 l 1,17,-1
 154 465 l 1,18,-1
 154 -36 l 2,7,8
EndSplineSet
EndChar

StartChar: k
Encoding: 107 107 185
Width: 403
Flags: MW
HStem: 0 21G<48 154 48 48 286 404 286 286> 445 20G<284 397 397 397> 619 20G<48 154 154 154>
VStem: 48 106<0 145 280 639>
LayerCount: 2
Fore
SplineSet
397 465 m 1,0,-1
 259 276 l 1,1,-1
 404 0 l 1,2,-1
 286 0 l 1,3,-1
 193 193 l 1,4,-1
 154 145 l 1,5,-1
 154 0 l 1,6,-1
 48 0 l 1,7,-1
 48 639 l 1,8,-1
 154 639 l 1,9,-1
 154 280 l 1,10,-1
 284 465 l 1,11,-1
 397 465 l 1,0,-1
EndSplineSet
EndChar

StartChar: kcommaaccent
Encoding: 311 311 186
Width: 403
Flags: MW
HStem: -157 108<148 190 148 256> 0 21G<48 154 48 48 286 404 286 286> 445 20G<284 397 397 397> 619 20G<48 154 154 154>
VStem: 48 106<0 145 280 639> 148 108<-148 -49 -148 -49 -148 -49>
LayerCount: 2
Fore
SplineSet
397 465 m 1,0,-1
 259 276 l 1,1,-1
 404 0 l 1,2,-1
 286 0 l 1,3,-1
 193 193 l 1,4,-1
 154 145 l 1,5,-1
 154 0 l 1,6,-1
 48 0 l 1,7,-1
 48 639 l 1,8,-1
 154 639 l 1,9,-1
 154 280 l 1,10,-1
 284 465 l 1,11,-1
 397 465 l 1,0,-1
159 -232 m 1,12,-1
 190 -157 l 1,13,-1
 148 -157 l 1,14,-1
 148 -49 l 1,15,-1
 256 -49 l 1,16,-1
 256 -148 l 1,17,-1
 217 -232 l 1,18,-1
 159 -232 l 1,12,-1
EndSplineSet
EndChar

StartChar: kgreenlandic
Encoding: 312 312 187
Width: 404
Flags: MW
HStem: 0 21G<48 154 48 48 286 404 286 286> 445 20G<48 154 154 154 284 397 397 397>
VStem: 48 106<0 145 280 465>
LayerCount: 2
Fore
SplineSet
286 0 m 1,0,-1
 193 193 l 1,1,-1
 154 145 l 1,2,-1
 154 0 l 1,3,-1
 48 0 l 1,4,-1
 48 465 l 1,5,-1
 154 465 l 1,6,-1
 154 280 l 1,7,-1
 284 465 l 1,8,-1
 397 465 l 1,9,-1
 259 276 l 1,10,-1
 404 0 l 1,11,-1
 286 0 l 1,0,-1
EndSplineSet
EndChar

StartChar: l
Encoding: 108 108 188
Width: 202
Flags: MW
HStem: 0 21G<48 154 48 48> 619 20G<48 154 154 154>
VStem: 48 106<0 639 0 639>
LayerCount: 2
Fore
SplineSet
48 639 m 1,0,-1
 154 639 l 1,1,-1
 154 0 l 1,2,-1
 48 0 l 1,3,-1
 48 639 l 1,0,-1
EndSplineSet
EndChar

StartChar: lacute
Encoding: 314 314 189
Width: 202
Flags: MW
HStem: 0 21G<48 48 48 154> 619 20G<48 154 154 154> 664 117<116 128 40 222>
VStem: 48 106<0 639 0 639>
LayerCount: 2
Fore
SplineSet
128 664 m 1,0,-1
 40 664 l 1,1,-1
 116 781 l 1,2,-1
 222 781 l 1,3,-1
 223 778 l 1,4,-1
 128 664 l 1,0,-1
48 0 m 1,5,-1
 48 639 l 1,6,-1
 154 639 l 1,7,-1
 154 0 l 1,8,-1
 48 0 l 1,5,-1
EndSplineSet
EndChar

StartChar: lcaron
Encoding: 318 318 190
Width: 279
Flags: MW
HStem: 0 21G<48 154 48 48> 485 121<200 248 200 322> 485 154<48 248 48 200>
VStem: 48 106<0 639 0 639> 200 122<496 606 496 606 496 606>
LayerCount: 2
Fore
SplineSet
48 639 m 1,0,-1
 154 639 l 1,1,-1
 154 0 l 1,2,-1
 48 0 l 1,3,-1
 48 639 l 1,0,-1
200 347 m 1,4,-1
 248 485 l 1,5,-1
 200 485 l 1,6,-1
 200 606 l 1,7,-1
 322 606 l 1,8,-1
 322 496 l 1,9,-1
 263 347 l 1,10,-1
 200 347 l 1,4,-1
EndSplineSet
EndChar

StartChar: lcommaaccent
Encoding: 316 316 191
Width: 202
Flags: MW
HStem: -157 108<47 90 47 156> 0 21G<48 154 48 48> 619 20G<48 154 154 154>
VStem: 48 106<0 639 0 639>
LayerCount: 2
Fore
SplineSet
48 639 m 1,0,-1
 154 639 l 1,1,-1
 154 0 l 1,2,-1
 48 0 l 1,3,-1
 48 639 l 1,0,-1
58 -232 m 1,4,-1
 90 -157 l 1,5,-1
 47 -157 l 1,6,-1
 47 -49 l 1,7,-1
 156 -49 l 1,8,-1
 156 -148 l 1,9,-1
 116 -232 l 1,10,-1
 58 -232 l 1,4,-1
EndSplineSet
EndChar

StartChar: ldot
Encoding: 320 320 192
Width: 295
Flags: MW
HStem: 0 21G<48 154 48 48> 246 116<188 295 188 295> 619 20G<48 154 154 154>
VStem: 48 106<0 639 0 639> 188 107<246 362 246 362>
LayerCount: 2
Fore
SplineSet
48 639 m 1,0,-1
 154 639 l 1,1,-1
 154 0 l 1,2,-1
 48 0 l 1,3,-1
 48 639 l 1,0,-1
188 362 m 1,4,-1
 295 362 l 1,5,-1
 295 246 l 1,6,-1
 188 246 l 1,7,-1
 188 362 l 1,4,-1
EndSplineSet
Ligature2: "Ligature Substitution lookup 19 subtable" l periodcentered
EndChar

StartChar: lslash
Encoding: 322 322 193
Width: 202
Flags: MW
HStem: 0 21G<48 154 48 48> 619 20G<48 154 154 154>
VStem: 48 106<0 204 204 204 289 299 0 384 384 639>
LayerCount: 2
Fore
SplineSet
224 361 m 1,0,-1
 154 299 l 1,1,-1
 154 0 l 1,2,-1
 48 0 l 1,3,-1
 48 204 l 1,4,-1
 -12 151 l 1,5,-1
 -12 236 l 1,6,-1
 48 289 l 1,7,-1
 48 639 l 1,8,-1
 154 639 l 1,9,-1
 154 384 l 1,10,-1
 224 446 l 1,11,-1
 224 361 l 1,0,-1
EndSplineSet
EndChar

StartChar: m
Encoding: 109 109 194
Width: 644
Flags: MW
HStem: 0 21G<49 155 49 49 271 376 271 271 492 598 492 492> 379 86<49 236> 379 97<200 286 456 458>
VStem: 49 106<0 286 0 465> 271 105<0 293 0 297 0 327> 492 106<0 297 297 326 0 327>
LayerCount: 2
Fore
SplineSet
153 408 m 1,0,1
 195 476 195 476 266.5 476 c 0,2,3
 338 476 338 476 363 408 c 1,4,5
 408 476 408 476 484 476 c 0,6,7
 598 476 598 476 598 326 c 2,8,-1
 598 0 l 1,9,-1
 492 0 l 1,10,-1
 492 297 l 2,11,12
 492 341 492 341 479.5 360 c 128,-1,13
 467 379 467 379 440.5 379 c 0,14,15
 414 379 414 379 395 355 c 128,-1,16
 376 331 376 331 376 293 c 2,17,-1
 376 0 l 1,18,-1
 271 0 l 1,19,-1
 271 297 l 2,20,21
 271 341 271 341 258.5 360 c 128,-1,22
 246 379 246 379 218.5 379 c 0,23,24
 191 379 191 379 173 353 c 128,-1,25
 155 327 155 327 155 286 c 2,26,-1
 155 0 l 1,27,-1
 49 0 l 1,28,-1
 49 465 l 1,29,-1
 137 465 l 1,30,-1
 148 408 l 1,31,-1
 153 408 l 1,0,1
EndSplineSet
EndChar

StartChar: n
Encoding: 110 110 195
Width: 443
Flags: MW
HStem: 0 21G<49 155 49 49 288 394 288 288> 379 97<243 246> 445 20G<49 137 137 137>
VStem: 49 106<0 286 0 465> 288 106<0 297 297 326 0 327>
LayerCount: 2
Fore
SplineSet
153 408 m 1,0,1
 198 476 198 476 271 476 c 0,2,3
 394 476 394 476 394 326 c 2,4,-1
 394 0 l 1,5,-1
 288 0 l 1,6,-1
 288 297 l 2,7,8
 288 379 288 379 227 379 c 0,9,10
 196 379 196 379 175.5 352.5 c 128,-1,11
 155 326 155 326 155 286 c 2,12,-1
 155 0 l 1,13,-1
 49 0 l 1,14,-1
 49 465 l 1,15,-1
 137 465 l 1,16,-1
 148 408 l 1,17,-1
 153 408 l 1,0,1
EndSplineSet
Substitution2: "'sups' Superscript lookup 7 subtable" nsuperior
Substitution2: "'aalt' Access All Alternates lookup 0 subtable" nsuperior
EndChar

StartChar: nacute
Encoding: 324 324 196
Width: 443
Flags: MW
HStem: 0 21G<49 155 49 49 288 394 288 288> 379 97<243 246> 445 20G<49 137 137 137> 522 117<237 248 161 343>
VStem: 49 106<0 286 0 465> 288 106<0 297 297 326 0 327>
LayerCount: 2
Fore
SplineSet
248 522 m 1,0,-1
 161 522 l 1,1,-1
 237 639 l 1,2,-1
 343 639 l 1,3,-1
 344 636 l 1,4,-1
 248 522 l 1,0,-1
153 408 m 1,5,6
 198 476 198 476 271 476 c 0,7,8
 394 476 394 476 394 326 c 2,9,-1
 394 0 l 1,10,-1
 288 0 l 1,11,-1
 288 297 l 2,12,13
 288 379 288 379 227 379 c 0,14,15
 196 379 196 379 175.5 352.5 c 128,-1,16
 155 326 155 326 155 286 c 2,17,-1
 155 0 l 1,18,-1
 49 0 l 1,19,-1
 49 465 l 1,20,-1
 137 465 l 1,21,-1
 148 408 l 1,22,-1
 153 408 l 1,5,6
EndSplineSet
EndChar

StartChar: napostrophe
Encoding: 329 329 197
Width: 598
Flags: MW
HStem: 0 21G<203 309 203 203 443 549 443 443> 379 97<397.5 401> 423 42 498 108<59 103 59 169>
VStem: 59 110<507 606 507 606 507 606> 203 106<0 286 0 465> 443 106<0 297 297 326 0 327>
LayerCount: 2
Fore
SplineSet
129 423 m 1,0,-1
 72 423 l 1,1,-1
 103 498 l 1,2,-1
 59 498 l 1,3,-1
 59 606 l 1,4,-1
 169 606 l 1,5,-1
 169 507 l 1,6,-1
 129 423 l 1,0,-1
308 408 m 1,7,8
 351 476 351 476 425 476 c 0,9,10
 549 476 549 476 549 326 c 2,11,-1
 549 0 l 1,12,-1
 443 0 l 1,13,-1
 443 297 l 2,14,15
 443 379 443 379 382 379 c 0,16,17
 351 379 351 379 330 352.5 c 128,-1,18
 309 326 309 326 309 286 c 2,19,-1
 309 0 l 1,20,-1
 203 0 l 1,21,-1
 203 465 l 1,22,-1
 292 465 l 1,23,-1
 302 408 l 1,24,-1
 308 408 l 1,7,8
EndSplineSet
EndChar

StartChar: ncaron
Encoding: 328 328 198
Width: 443
Flags: MW
HStem: 0 21G<49 155 49 49 288 394 288 288> 379 97<243 246> 445 20G<49 137 137 137> 520 119<179 182 261 265 179 179>
VStem: 49 106<0 286 0 465> 288 106<0 297 297 326 0 327>
LayerCount: 2
Fore
SplineSet
103 639 m 1,0,-1
 182 639 l 1,1,-1
 222 578 l 1,2,-1
 261 639 l 1,3,-1
 340 639 l 1,4,-1
 265 520 l 1,5,-1
 179 520 l 1,6,-1
 103 639 l 1,0,-1
153 408 m 1,7,8
 198 476 198 476 271 476 c 0,9,10
 394 476 394 476 394 326 c 2,11,-1
 394 0 l 1,12,-1
 288 0 l 1,13,-1
 288 297 l 2,14,15
 288 379 288 379 227 379 c 0,16,17
 196 379 196 379 175.5 352.5 c 128,-1,18
 155 326 155 326 155 286 c 2,19,-1
 155 0 l 1,20,-1
 49 0 l 1,21,-1
 49 465 l 1,22,-1
 137 465 l 1,23,-1
 148 408 l 1,24,-1
 153 408 l 1,7,8
EndSplineSet
EndChar

StartChar: ncommaaccent
Encoding: 326 326 199
Width: 443
Flags: MW
HStem: -157 108<167 210 167 276> 0 21G<49 155 49 49 288 394 288 288> 379 97<243 246> 445 20G<49 137 137 137>
VStem: 49 106<0 286 0 465> 167 109<-148 -49 -148 -49 -148 -49> 288 106<0 297 297 326 0 327>
LayerCount: 2
Fore
SplineSet
153 408 m 1,0,1
 198 476 198 476 271 476 c 0,2,3
 394 476 394 476 394 326 c 2,4,-1
 394 0 l 1,5,-1
 288 0 l 1,6,-1
 288 297 l 2,7,8
 288 379 288 379 227 379 c 0,9,10
 196 379 196 379 175.5 352.5 c 128,-1,11
 155 326 155 326 155 286 c 2,12,-1
 155 0 l 1,13,-1
 49 0 l 1,14,-1
 49 465 l 1,15,-1
 137 465 l 1,16,-1
 148 408 l 1,17,-1
 153 408 l 1,0,1
179 -232 m 1,18,-1
 210 -157 l 1,19,-1
 167 -157 l 1,20,-1
 167 -49 l 1,21,-1
 276 -49 l 1,22,-1
 276 -148 l 1,23,-1
 236 -232 l 1,24,-1
 179 -232 l 1,18,-1
EndSplineSet
EndChar

StartChar: eng
Encoding: 331 331 200
Width: 443
Flags: MW
HStem: -161 89<208 328.5> 0 21G<49 155 49 49> 379 97<243 246> 445 20G<49 137 137 137>
VStem: 49 106<0 286 0 465> 288 106<-29 297 297 326>
LayerCount: 2
Fore
SplineSet
153 408 m 1,0,1
 198 476 198 476 271 476 c 0,2,3
 394 476 394 476 394 326 c 2,4,-1
 394 -36 l 2,5,6
 394 -90 394 -90 369.5 -125.5 c 128,-1,7
 345 -161 345 -161 293 -161 c 0,8,9
 241 -161 241 -161 208 -150 c 1,10,-1
 208 -72 l 1,11,-1
 247 -72 l 2,12,13
 288 -72 288 -72 288 -29 c 2,14,-1
 288 297 l 2,15,16
 288 379 288 379 227 379 c 0,17,18
 196 379 196 379 175.5 352.5 c 128,-1,19
 155 326 155 326 155 286 c 2,20,-1
 155 0 l 1,21,-1
 49 0 l 1,22,-1
 49 465 l 1,23,-1
 137 465 l 1,24,-1
 148 408 l 1,25,-1
 153 408 l 1,0,1
EndSplineSet
EndChar

StartChar: ntilde
Encoding: 241 241 201
Width: 443
Flags: MW
HStem: 0 21G<49 155 49 49 288 394 288 288> 379 97<243 246> 445 20G<49 137 137 137> 531 75<261.5 287 258 314.5> 564 75<157 181.5 129 186>
VStem: 49 106<0 286 0 465> 288 106<0 297 297 326 0 327>
LayerCount: 2
Fore
SplineSet
370 639 m 1,0,1
 370 597 370 597 348 564 c 128,-1,2
 326 531 326 531 283 531 c 0,3,4
 261 531 261 531 223.5 547.5 c 128,-1,5
 186 564 186 564 166 564 c 0,6,7
 136 564 136 564 132 531 c 1,8,-1
 73 531 l 1,9,10
 73 573 73 573 95 606 c 128,-1,11
 117 639 117 639 160 639 c 0,12,13
 182 639 182 639 220 622.5 c 128,-1,14
 258 606 258 606 278 606 c 0,15,16
 308 606 308 606 312 639 c 1,17,-1
 370 639 l 1,0,1
153 408 m 1,18,19
 198 476 198 476 271 476 c 0,20,21
 394 476 394 476 394 326 c 2,22,-1
 394 0 l 1,23,-1
 288 0 l 1,24,-1
 288 297 l 2,25,26
 288 379 288 379 227 379 c 0,27,28
 196 379 196 379 175.5 352.5 c 128,-1,29
 155 326 155 326 155 286 c 2,30,-1
 155 0 l 1,31,-1
 49 0 l 1,32,-1
 49 465 l 1,33,-1
 137 465 l 1,34,-1
 148 408 l 1,35,-1
 153 408 l 1,18,19
EndSplineSet
EndChar

StartChar: o
Encoding: 111 111 202
Width: 443
Flags: MW
HStem: -11 90<194.5 249.5 194.5 284> 386 90<194.5 249.5>
VStem: 36 111<171 216 216 249 171 316> 297 111<216 249 249 294>
LayerCount: 2
Fore
SplineSet
222 476 m 128,-1,1
 316 476 316 476 362 416.5 c 128,-1,2
 408 357 408 357 408 232.5 c 0,3,4
 408 108 408 108 362 48.5 c 128,-1,5
 316 -11 316 -11 222 -11 c 128,-1,6
 128 -11 128 -11 82 48.5 c 128,-1,7
 36 108 36 108 36 232.5 c 0,8,9
 36 357 36 357 82 416.5 c 128,-1,0
 128 476 128 476 222 476 c 128,-1,1
297 249 m 2,10,11
 297 319 297 319 279.5 352.5 c 128,-1,12
 262 386 262 386 222 386 c 128,-1,13
 182 386 182 386 164.5 352.5 c 128,-1,14
 147 319 147 319 147 249 c 2,15,-1
 147 216 l 2,16,17
 147 146 147 146 164.5 112.5 c 128,-1,18
 182 79 182 79 222 79 c 128,-1,19
 262 79 262 79 279.5 112.5 c 128,-1,20
 297 146 297 146 297 216 c 2,21,-1
 297 249 l 2,10,11
EndSplineSet
Substitution2: "Single Substitution lookup 20 subtable" ordmasculine
Substitution2: "'aalt' Access All Alternates lookup 0 subtable" ordmasculine
EndChar

StartChar: oacute
Encoding: 243 243 203
Width: 443
Flags: MW
HStem: -11 90<194.5 249.5 194.5 284> 386 90<194.5 249.5> 522 117<237 248 161 343>
VStem: 36 111<171 216 216 249 171 316> 297 111<216 249 249 294>
LayerCount: 2
Fore
SplineSet
248 522 m 1,0,-1
 161 522 l 1,1,-1
 237 639 l 1,2,-1
 343 639 l 1,3,-1
 344 636 l 1,4,-1
 248 522 l 1,0,-1
222 476 m 128,-1,6
 316 476 316 476 362 416.5 c 128,-1,7
 408 357 408 357 408 232.5 c 0,8,9
 408 108 408 108 362 48.5 c 128,-1,10
 316 -11 316 -11 222 -11 c 128,-1,11
 128 -11 128 -11 82 48.5 c 128,-1,12
 36 108 36 108 36 232.5 c 0,13,14
 36 357 36 357 82 416.5 c 128,-1,5
 128 476 128 476 222 476 c 128,-1,6
297 249 m 2,15,16
 297 319 297 319 279.5 352.5 c 128,-1,17
 262 386 262 386 222 386 c 128,-1,18
 182 386 182 386 164.5 352.5 c 128,-1,19
 147 319 147 319 147 249 c 2,20,-1
 147 216 l 2,21,22
 147 146 147 146 164.5 112.5 c 128,-1,23
 182 79 182 79 222 79 c 128,-1,24
 262 79 262 79 279.5 112.5 c 128,-1,25
 297 146 297 146 297 216 c 2,26,-1
 297 249 l 2,15,16
EndSplineSet
EndChar

StartChar: obreve
Encoding: 335 335 204
Width: 443
Flags: MW
HStem: -11 90<194.5 249.5 194.5 284> 386 90<194.5 249.5> 545 65<206.5 236 206.5 257.5> 545 94<103 257.5>
VStem: 36 111<171 216 216 249 171 316> 297 111<216 249 249 294>
LayerCount: 2
Fore
SplineSet
339 639 m 1,0,1
 339 603 339 603 306 574 c 128,-1,2
 273 545 273 545 221.5 545 c 0,3,4
 170 545 170 545 136.5 574.5 c 128,-1,5
 103 604 103 604 103 639 c 1,6,-1
 169 639 l 1,7,8
 171 629 171 629 186 619.5 c 128,-1,9
 201 610 201 610 221.5 610 c 0,10,11
 242 610 242 610 257 619.5 c 128,-1,12
 272 629 272 629 274 639 c 1,13,-1
 339 639 l 1,0,1
222 476 m 128,-1,15
 316 476 316 476 362 416.5 c 128,-1,16
 408 357 408 357 408 232.5 c 0,17,18
 408 108 408 108 362 48.5 c 128,-1,19
 316 -11 316 -11 222 -11 c 128,-1,20
 128 -11 128 -11 82 48.5 c 128,-1,21
 36 108 36 108 36 232.5 c 0,22,23
 36 357 36 357 82 416.5 c 128,-1,14
 128 476 128 476 222 476 c 128,-1,15
297 249 m 2,24,25
 297 319 297 319 279.5 352.5 c 128,-1,26
 262 386 262 386 222 386 c 128,-1,27
 182 386 182 386 164.5 352.5 c 128,-1,28
 147 319 147 319 147 249 c 2,29,-1
 147 216 l 2,30,31
 147 146 147 146 164.5 112.5 c 128,-1,32
 182 79 182 79 222 79 c 128,-1,33
 262 79 262 79 279.5 112.5 c 128,-1,34
 297 146 297 146 297 216 c 2,35,-1
 297 249 l 2,24,25
EndSplineSet
EndChar

StartChar: ocircumflex
Encoding: 244 244 205
Width: 443
Flags: MW
HStem: -11 90<194.5 249.5 194.5 284> 386 90<194.5 249.5> 520 119<179 182 103 265 261 261 261 265 179 340> 581 58<222 222>
VStem: 36 111<171 216 216 249 171 316> 297 111<216 249 249 294>
LayerCount: 2
Fore
SplineSet
222 581 m 1,0,-1
 182 520 l 1,1,-1
 103 520 l 1,2,-1
 179 639 l 1,3,-1
 265 639 l 1,4,-1
 340 520 l 1,5,-1
 261 520 l 1,6,-1
 222 581 l 1,0,-1
222 476 m 128,-1,8
 316 476 316 476 362 416.5 c 128,-1,9
 408 357 408 357 408 232.5 c 0,10,11
 408 108 408 108 362 48.5 c 128,-1,12
 316 -11 316 -11 222 -11 c 128,-1,13
 128 -11 128 -11 82 48.5 c 128,-1,14
 36 108 36 108 36 232.5 c 0,15,16
 36 357 36 357 82 416.5 c 128,-1,7
 128 476 128 476 222 476 c 128,-1,8
297 249 m 2,17,18
 297 319 297 319 279.5 352.5 c 128,-1,19
 262 386 262 386 222 386 c 128,-1,20
 182 386 182 386 164.5 352.5 c 128,-1,21
 147 319 147 319 147 249 c 2,22,-1
 147 216 l 2,23,24
 147 146 147 146 164.5 112.5 c 128,-1,25
 182 79 182 79 222 79 c 128,-1,26
 262 79 262 79 279.5 112.5 c 128,-1,27
 297 146 297 146 297 216 c 2,28,-1
 297 249 l 2,17,18
EndSplineSet
EndChar

StartChar: odieresis
Encoding: 246 246 206
Width: 443
Flags: MW
HStem: -11 90<194.5 249.5 194.5 284> 386 90<194.5 249.5> 543 96<100 188 100 188 255 343 100 255>
VStem: 36 111<171 216 216 249 171 316> 100 88<543 639 543 639> 255 88<543 639 543 639> 297 111<216 249 249 294>
LayerCount: 2
Fore
SplineSet
100 543 m 1,0,-1
 100 639 l 1,1,-1
 188 639 l 1,2,-1
 188 543 l 1,3,-1
 100 543 l 1,0,-1
255 543 m 1,4,-1
 255 639 l 1,5,-1
 343 639 l 1,6,-1
 343 543 l 1,7,-1
 255 543 l 1,4,-1
222 476 m 128,-1,9
 316 476 316 476 362 416.5 c 128,-1,10
 408 357 408 357 408 232.5 c 0,11,12
 408 108 408 108 362 48.5 c 128,-1,13
 316 -11 316 -11 222 -11 c 128,-1,14
 128 -11 128 -11 82 48.5 c 128,-1,15
 36 108 36 108 36 232.5 c 0,16,17
 36 357 36 357 82 416.5 c 128,-1,8
 128 476 128 476 222 476 c 128,-1,9
297 249 m 2,18,19
 297 319 297 319 279.5 352.5 c 128,-1,20
 262 386 262 386 222 386 c 128,-1,21
 182 386 182 386 164.5 352.5 c 128,-1,22
 147 319 147 319 147 249 c 2,23,-1
 147 216 l 2,24,25
 147 146 147 146 164.5 112.5 c 128,-1,26
 182 79 182 79 222 79 c 128,-1,27
 262 79 262 79 279.5 112.5 c 128,-1,28
 297 146 297 146 297 216 c 2,29,-1
 297 249 l 2,18,19
EndSplineSet
EndChar

StartChar: ograve
Encoding: 242 242 207
Width: 443
Flags: MW
HStem: -11 90<194.5 249.5 194.5 284> 386 90<194.5 249.5> 522 117<194 194 194 206 100 282>
VStem: 36 111<171 216 216 249 171 316> 297 111<216 249 249 294>
LayerCount: 2
Fore
SplineSet
194 522 m 1,0,-1
 99 636 l 1,1,-1
 100 639 l 1,2,-1
 206 639 l 1,3,-1
 282 522 l 1,4,-1
 194 522 l 1,0,-1
222 476 m 128,-1,6
 316 476 316 476 362 416.5 c 128,-1,7
 408 357 408 357 408 232.5 c 0,8,9
 408 108 408 108 362 48.5 c 128,-1,10
 316 -11 316 -11 222 -11 c 128,-1,11
 128 -11 128 -11 82 48.5 c 128,-1,12
 36 108 36 108 36 232.5 c 0,13,14
 36 357 36 357 82 416.5 c 128,-1,5
 128 476 128 476 222 476 c 128,-1,6
297 249 m 2,15,16
 297 319 297 319 279.5 352.5 c 128,-1,17
 262 386 262 386 222 386 c 128,-1,18
 182 386 182 386 164.5 352.5 c 128,-1,19
 147 319 147 319 147 249 c 2,20,-1
 147 216 l 2,21,22
 147 146 147 146 164.5 112.5 c 128,-1,23
 182 79 182 79 222 79 c 128,-1,24
 262 79 262 79 279.5 112.5 c 128,-1,25
 297 146 297 146 297 216 c 2,26,-1
 297 249 l 2,15,16
EndSplineSet
EndChar

StartChar: ohungarumlaut
Encoding: 337 337 208
Width: 443
Flags: MW
HStem: -11 90<194.5 249.5 194.5 284> 386 90<194.5 249.5> 522 117<122 265 177 192 246 265 301 316 246 246>
VStem: 36 111<171 216 216 249 171 316> 297 111<216 249 249 294>
LayerCount: 2
Fore
SplineSet
122 522 m 1,0,-1
 177 639 l 1,1,-1
 265 639 l 1,2,-1
 266 636 l 1,3,-1
 192 522 l 1,4,-1
 122 522 l 1,0,-1
246 522 m 1,5,-1
 301 639 l 1,6,-1
 389 639 l 1,7,-1
 390 636 l 1,8,-1
 316 522 l 1,9,-1
 246 522 l 1,5,-1
222 476 m 128,-1,11
 316 476 316 476 362 416.5 c 128,-1,12
 408 357 408 357 408 232.5 c 0,13,14
 408 108 408 108 362 48.5 c 128,-1,15
 316 -11 316 -11 222 -11 c 128,-1,16
 128 -11 128 -11 82 48.5 c 128,-1,17
 36 108 36 108 36 232.5 c 0,18,19
 36 357 36 357 82 416.5 c 128,-1,10
 128 476 128 476 222 476 c 128,-1,11
297 249 m 2,20,21
 297 319 297 319 279.5 352.5 c 128,-1,22
 262 386 262 386 222 386 c 128,-1,23
 182 386 182 386 164.5 352.5 c 128,-1,24
 147 319 147 319 147 249 c 2,25,-1
 147 216 l 2,26,27
 147 146 147 146 164.5 112.5 c 128,-1,28
 182 79 182 79 222 79 c 128,-1,29
 262 79 262 79 279.5 112.5 c 128,-1,30
 297 146 297 146 297 216 c 2,31,-1
 297 249 l 2,20,21
EndSplineSet
EndChar

StartChar: omacron
Encoding: 333 333 209
Width: 443
Flags: MW
HStem: -11 90<194.5 249.5 194.5 284> 386 90<194.5 249.5> 530 76<109 334 109 334>
VStem: 36 111<171 216 216 249 171 316> 109 225<530 606 530 606> 297 111<216 249 249 294>
LayerCount: 2
Fore
SplineSet
109 606 m 1,0,-1
 334 606 l 1,1,-1
 334 530 l 1,2,-1
 109 530 l 1,3,-1
 109 606 l 1,0,-1
222 476 m 128,-1,5
 316 476 316 476 362 416.5 c 128,-1,6
 408 357 408 357 408 232.5 c 0,7,8
 408 108 408 108 362 48.5 c 128,-1,9
 316 -11 316 -11 222 -11 c 128,-1,10
 128 -11 128 -11 82 48.5 c 128,-1,11
 36 108 36 108 36 232.5 c 0,12,13
 36 357 36 357 82 416.5 c 128,-1,4
 128 476 128 476 222 476 c 128,-1,5
297 249 m 2,14,15
 297 319 297 319 279.5 352.5 c 128,-1,16
 262 386 262 386 222 386 c 128,-1,17
 182 386 182 386 164.5 352.5 c 128,-1,18
 147 319 147 319 147 249 c 2,19,-1
 147 216 l 2,20,21
 147 146 147 146 164.5 112.5 c 128,-1,22
 182 79 182 79 222 79 c 128,-1,23
 262 79 262 79 279.5 112.5 c 128,-1,24
 297 146 297 146 297 216 c 2,25,-1
 297 249 l 2,14,15
EndSplineSet
EndChar

StartChar: oslash
Encoding: 248 248 210
Width: 443
Flags: MW
HStem: -11 90<213 249.5 213 284> 386 90<194.5 230.5>
VStem: 36 111<205.5 216 216 249 205.5 316> 297 111<216 249 249 259.5>
LayerCount: 2
Fore
SplineSet
357 422 m 1,0,1
 408 362 408 362 408 235 c 0,2,3
 408 108 408 108 362 48.5 c 128,-1,4
 316 -11 316 -11 222 -11 c 0,5,6
 172 -11 172 -11 132 8 c 1,7,-1
 112 -28 l 1,8,-1
 46 -28 l 1,9,-1
 86 44 l 1,10,11
 36 105 36 105 36 231 c 0,12,13
 36 357 36 357 82 416.5 c 128,-1,14
 128 476 128 476 222 476 c 0,15,16
 272 476 272 476 310 457 c 1,17,-1
 330 493 l 1,18,-1
 396 493 l 1,19,-1
 357 422 l 1,0,1
263 372 m 1,20,21
 247 386 247 386 222 386 c 0,22,23
 182 386 182 386 164.5 352.5 c 128,-1,24
 147 319 147 319 147 249 c 2,25,-1
 147 216 l 2,26,27
 147 194 147 194 149 162 c 1,28,-1
 263 372 l 1,20,21
179 94 m 1,29,30
 196 79 196 79 222 79 c 0,31,32
 262 79 262 79 279.5 112.5 c 128,-1,33
 297 146 297 146 297 216 c 2,34,-1
 297 249 l 2,35,36
 297 271 297 271 293 305 c 1,37,-1
 179 94 l 1,29,30
EndSplineSet
EndChar

StartChar: oslashacute
Encoding: 511 511 211
Width: 443
Flags: MW
HStem: -11 90<213 249.5 213 284> 386 90<194.5 230.5> 522 117<237 248 161 343>
VStem: 36 111<205.5 216 216 249 205.5 316> 297 111<216 249 249 259.5>
LayerCount: 2
Fore
SplineSet
248 522 m 1,0,-1
 161 522 l 1,1,-1
 237 639 l 1,2,-1
 343 639 l 1,3,-1
 344 636 l 1,4,-1
 248 522 l 1,0,-1
357 422 m 1,5,6
 408 362 408 362 408 235 c 0,7,8
 408 108 408 108 362 48.5 c 128,-1,9
 316 -11 316 -11 222 -11 c 0,10,11
 172 -11 172 -11 132 8 c 1,12,-1
 112 -28 l 1,13,-1
 46 -28 l 1,14,-1
 86 44 l 1,15,16
 36 105 36 105 36 231 c 0,17,18
 36 357 36 357 82 416.5 c 128,-1,19
 128 476 128 476 222 476 c 0,20,21
 272 476 272 476 310 457 c 1,22,-1
 330 493 l 1,23,-1
 396 493 l 1,24,-1
 357 422 l 1,5,6
263 372 m 1,25,26
 247 386 247 386 222 386 c 0,27,28
 182 386 182 386 164.5 352.5 c 128,-1,29
 147 319 147 319 147 249 c 2,30,-1
 147 216 l 2,31,32
 147 194 147 194 149 162 c 1,33,-1
 263 372 l 1,25,26
179 94 m 1,34,35
 196 79 196 79 222 79 c 0,36,37
 262 79 262 79 279.5 112.5 c 128,-1,38
 297 146 297 146 297 216 c 2,39,-1
 297 249 l 2,40,41
 297 271 297 271 293 305 c 1,42,-1
 179 94 l 1,34,35
EndSplineSet
EndChar

StartChar: otilde
Encoding: 245 245 212
Width: 443
Flags: MW
HStem: -11 90<194.5 249.5 194.5 284> 386 90<194.5 249.5> 531 75<261.5 287 258 314.5> 564 75<157 181.5 129 186>
VStem: 36 111<171 216 216 249 171 316> 297 111<216 249 249 294>
LayerCount: 2
Fore
SplineSet
370 639 m 1,0,1
 370 597 370 597 348 564 c 128,-1,2
 326 531 326 531 283 531 c 0,3,4
 261 531 261 531 223.5 547.5 c 128,-1,5
 186 564 186 564 166 564 c 0,6,7
 136 564 136 564 132 531 c 1,8,-1
 73 531 l 1,9,10
 73 573 73 573 95 606 c 128,-1,11
 117 639 117 639 160 639 c 0,12,13
 182 639 182 639 220 622.5 c 128,-1,14
 258 606 258 606 278 606 c 0,15,16
 308 606 308 606 312 639 c 1,17,-1
 370 639 l 1,0,1
222 476 m 128,-1,19
 316 476 316 476 362 416.5 c 128,-1,20
 408 357 408 357 408 232.5 c 0,21,22
 408 108 408 108 362 48.5 c 128,-1,23
 316 -11 316 -11 222 -11 c 128,-1,24
 128 -11 128 -11 82 48.5 c 128,-1,25
 36 108 36 108 36 232.5 c 0,26,27
 36 357 36 357 82 416.5 c 128,-1,18
 128 476 128 476 222 476 c 128,-1,19
297 249 m 2,28,29
 297 319 297 319 279.5 352.5 c 128,-1,30
 262 386 262 386 222 386 c 128,-1,31
 182 386 182 386 164.5 352.5 c 128,-1,32
 147 319 147 319 147 249 c 2,33,-1
 147 216 l 2,34,35
 147 146 147 146 164.5 112.5 c 128,-1,36
 182 79 182 79 222 79 c 128,-1,37
 262 79 262 79 279.5 112.5 c 128,-1,38
 297 146 297 146 297 216 c 2,39,-1
 297 249 l 2,28,29
EndSplineSet
EndChar

